G04 #@! TF.GenerationSoftware,KiCad,Pcbnew,(5.1.2)-1*
G04 #@! TF.CreationDate,2019-11-04T01:51:56+09:00*
G04 #@! TF.ProjectId,IR,49522e6b-6963-4616-945f-706362585858,v1.1*
G04 #@! TF.SameCoordinates,Original*
G04 #@! TF.FileFunction,Copper,L1,Top*
G04 #@! TF.FilePolarity,Positive*
%FSLAX46Y46*%
G04 Gerber Fmt 4.6, Leading zero omitted, Abs format (unit mm)*
G04 Created by KiCad (PCBNEW (5.1.2)-1) date 2019-11-04 01:51:56*
%MOMM*%
%LPD*%
G04 APERTURE LIST*
%ADD10O,1.800000X1.524000*%
%ADD11C,0.050000*%
%ADD12C,0.875000*%
%ADD13C,0.975000*%
%ADD14R,0.650000X1.060000*%
%ADD15R,4.500000X2.000000*%
%ADD16C,1.000000*%
%ADD17R,0.450000X1.500000*%
%ADD18C,0.800000*%
%ADD19C,0.350000*%
%ADD20C,0.254000*%
G04 APERTURE END LIST*
D10*
X185200000Y-114000000D03*
X185200000Y-112000000D03*
X185200000Y-110000000D03*
X185200000Y-108000000D03*
X202200000Y-108000000D03*
X202200000Y-110000000D03*
X202200000Y-112000000D03*
X202200000Y-114000000D03*
D11*
G36*
X193527691Y-116526053D02*
G01*
X193548926Y-116529203D01*
X193569750Y-116534419D01*
X193589962Y-116541651D01*
X193609368Y-116550830D01*
X193627781Y-116561866D01*
X193645024Y-116574654D01*
X193660930Y-116589070D01*
X193675346Y-116604976D01*
X193688134Y-116622219D01*
X193699170Y-116640632D01*
X193708349Y-116660038D01*
X193715581Y-116680250D01*
X193720797Y-116701074D01*
X193723947Y-116722309D01*
X193725000Y-116743750D01*
X193725000Y-117256250D01*
X193723947Y-117277691D01*
X193720797Y-117298926D01*
X193715581Y-117319750D01*
X193708349Y-117339962D01*
X193699170Y-117359368D01*
X193688134Y-117377781D01*
X193675346Y-117395024D01*
X193660930Y-117410930D01*
X193645024Y-117425346D01*
X193627781Y-117438134D01*
X193609368Y-117449170D01*
X193589962Y-117458349D01*
X193569750Y-117465581D01*
X193548926Y-117470797D01*
X193527691Y-117473947D01*
X193506250Y-117475000D01*
X193068750Y-117475000D01*
X193047309Y-117473947D01*
X193026074Y-117470797D01*
X193005250Y-117465581D01*
X192985038Y-117458349D01*
X192965632Y-117449170D01*
X192947219Y-117438134D01*
X192929976Y-117425346D01*
X192914070Y-117410930D01*
X192899654Y-117395024D01*
X192886866Y-117377781D01*
X192875830Y-117359368D01*
X192866651Y-117339962D01*
X192859419Y-117319750D01*
X192854203Y-117298926D01*
X192851053Y-117277691D01*
X192850000Y-117256250D01*
X192850000Y-116743750D01*
X192851053Y-116722309D01*
X192854203Y-116701074D01*
X192859419Y-116680250D01*
X192866651Y-116660038D01*
X192875830Y-116640632D01*
X192886866Y-116622219D01*
X192899654Y-116604976D01*
X192914070Y-116589070D01*
X192929976Y-116574654D01*
X192947219Y-116561866D01*
X192965632Y-116550830D01*
X192985038Y-116541651D01*
X193005250Y-116534419D01*
X193026074Y-116529203D01*
X193047309Y-116526053D01*
X193068750Y-116525000D01*
X193506250Y-116525000D01*
X193527691Y-116526053D01*
X193527691Y-116526053D01*
G37*
D12*
X193287500Y-117000000D03*
D11*
G36*
X191952691Y-116526053D02*
G01*
X191973926Y-116529203D01*
X191994750Y-116534419D01*
X192014962Y-116541651D01*
X192034368Y-116550830D01*
X192052781Y-116561866D01*
X192070024Y-116574654D01*
X192085930Y-116589070D01*
X192100346Y-116604976D01*
X192113134Y-116622219D01*
X192124170Y-116640632D01*
X192133349Y-116660038D01*
X192140581Y-116680250D01*
X192145797Y-116701074D01*
X192148947Y-116722309D01*
X192150000Y-116743750D01*
X192150000Y-117256250D01*
X192148947Y-117277691D01*
X192145797Y-117298926D01*
X192140581Y-117319750D01*
X192133349Y-117339962D01*
X192124170Y-117359368D01*
X192113134Y-117377781D01*
X192100346Y-117395024D01*
X192085930Y-117410930D01*
X192070024Y-117425346D01*
X192052781Y-117438134D01*
X192034368Y-117449170D01*
X192014962Y-117458349D01*
X191994750Y-117465581D01*
X191973926Y-117470797D01*
X191952691Y-117473947D01*
X191931250Y-117475000D01*
X191493750Y-117475000D01*
X191472309Y-117473947D01*
X191451074Y-117470797D01*
X191430250Y-117465581D01*
X191410038Y-117458349D01*
X191390632Y-117449170D01*
X191372219Y-117438134D01*
X191354976Y-117425346D01*
X191339070Y-117410930D01*
X191324654Y-117395024D01*
X191311866Y-117377781D01*
X191300830Y-117359368D01*
X191291651Y-117339962D01*
X191284419Y-117319750D01*
X191279203Y-117298926D01*
X191276053Y-117277691D01*
X191275000Y-117256250D01*
X191275000Y-116743750D01*
X191276053Y-116722309D01*
X191279203Y-116701074D01*
X191284419Y-116680250D01*
X191291651Y-116660038D01*
X191300830Y-116640632D01*
X191311866Y-116622219D01*
X191324654Y-116604976D01*
X191339070Y-116589070D01*
X191354976Y-116574654D01*
X191372219Y-116561866D01*
X191390632Y-116550830D01*
X191410038Y-116541651D01*
X191430250Y-116534419D01*
X191451074Y-116529203D01*
X191472309Y-116526053D01*
X191493750Y-116525000D01*
X191931250Y-116525000D01*
X191952691Y-116526053D01*
X191952691Y-116526053D01*
G37*
D12*
X191712500Y-117000000D03*
D11*
G36*
X192205142Y-114301174D02*
G01*
X192228803Y-114304684D01*
X192252007Y-114310496D01*
X192274529Y-114318554D01*
X192296153Y-114328782D01*
X192316670Y-114341079D01*
X192335883Y-114355329D01*
X192353607Y-114371393D01*
X192369671Y-114389117D01*
X192383921Y-114408330D01*
X192396218Y-114428847D01*
X192406446Y-114450471D01*
X192414504Y-114472993D01*
X192420316Y-114496197D01*
X192423826Y-114519858D01*
X192425000Y-114543750D01*
X192425000Y-115456250D01*
X192423826Y-115480142D01*
X192420316Y-115503803D01*
X192414504Y-115527007D01*
X192406446Y-115549529D01*
X192396218Y-115571153D01*
X192383921Y-115591670D01*
X192369671Y-115610883D01*
X192353607Y-115628607D01*
X192335883Y-115644671D01*
X192316670Y-115658921D01*
X192296153Y-115671218D01*
X192274529Y-115681446D01*
X192252007Y-115689504D01*
X192228803Y-115695316D01*
X192205142Y-115698826D01*
X192181250Y-115700000D01*
X191693750Y-115700000D01*
X191669858Y-115698826D01*
X191646197Y-115695316D01*
X191622993Y-115689504D01*
X191600471Y-115681446D01*
X191578847Y-115671218D01*
X191558330Y-115658921D01*
X191539117Y-115644671D01*
X191521393Y-115628607D01*
X191505329Y-115610883D01*
X191491079Y-115591670D01*
X191478782Y-115571153D01*
X191468554Y-115549529D01*
X191460496Y-115527007D01*
X191454684Y-115503803D01*
X191451174Y-115480142D01*
X191450000Y-115456250D01*
X191450000Y-114543750D01*
X191451174Y-114519858D01*
X191454684Y-114496197D01*
X191460496Y-114472993D01*
X191468554Y-114450471D01*
X191478782Y-114428847D01*
X191491079Y-114408330D01*
X191505329Y-114389117D01*
X191521393Y-114371393D01*
X191539117Y-114355329D01*
X191558330Y-114341079D01*
X191578847Y-114328782D01*
X191600471Y-114318554D01*
X191622993Y-114310496D01*
X191646197Y-114304684D01*
X191669858Y-114301174D01*
X191693750Y-114300000D01*
X192181250Y-114300000D01*
X192205142Y-114301174D01*
X192205142Y-114301174D01*
G37*
D13*
X191937500Y-115000000D03*
D11*
G36*
X190330142Y-114301174D02*
G01*
X190353803Y-114304684D01*
X190377007Y-114310496D01*
X190399529Y-114318554D01*
X190421153Y-114328782D01*
X190441670Y-114341079D01*
X190460883Y-114355329D01*
X190478607Y-114371393D01*
X190494671Y-114389117D01*
X190508921Y-114408330D01*
X190521218Y-114428847D01*
X190531446Y-114450471D01*
X190539504Y-114472993D01*
X190545316Y-114496197D01*
X190548826Y-114519858D01*
X190550000Y-114543750D01*
X190550000Y-115456250D01*
X190548826Y-115480142D01*
X190545316Y-115503803D01*
X190539504Y-115527007D01*
X190531446Y-115549529D01*
X190521218Y-115571153D01*
X190508921Y-115591670D01*
X190494671Y-115610883D01*
X190478607Y-115628607D01*
X190460883Y-115644671D01*
X190441670Y-115658921D01*
X190421153Y-115671218D01*
X190399529Y-115681446D01*
X190377007Y-115689504D01*
X190353803Y-115695316D01*
X190330142Y-115698826D01*
X190306250Y-115700000D01*
X189818750Y-115700000D01*
X189794858Y-115698826D01*
X189771197Y-115695316D01*
X189747993Y-115689504D01*
X189725471Y-115681446D01*
X189703847Y-115671218D01*
X189683330Y-115658921D01*
X189664117Y-115644671D01*
X189646393Y-115628607D01*
X189630329Y-115610883D01*
X189616079Y-115591670D01*
X189603782Y-115571153D01*
X189593554Y-115549529D01*
X189585496Y-115527007D01*
X189579684Y-115503803D01*
X189576174Y-115480142D01*
X189575000Y-115456250D01*
X189575000Y-114543750D01*
X189576174Y-114519858D01*
X189579684Y-114496197D01*
X189585496Y-114472993D01*
X189593554Y-114450471D01*
X189603782Y-114428847D01*
X189616079Y-114408330D01*
X189630329Y-114389117D01*
X189646393Y-114371393D01*
X189664117Y-114355329D01*
X189683330Y-114341079D01*
X189703847Y-114328782D01*
X189725471Y-114318554D01*
X189747993Y-114310496D01*
X189771197Y-114304684D01*
X189794858Y-114301174D01*
X189818750Y-114300000D01*
X190306250Y-114300000D01*
X190330142Y-114301174D01*
X190330142Y-114301174D01*
G37*
D13*
X190062500Y-115000000D03*
D11*
G36*
X192277691Y-106776053D02*
G01*
X192298926Y-106779203D01*
X192319750Y-106784419D01*
X192339962Y-106791651D01*
X192359368Y-106800830D01*
X192377781Y-106811866D01*
X192395024Y-106824654D01*
X192410930Y-106839070D01*
X192425346Y-106854976D01*
X192438134Y-106872219D01*
X192449170Y-106890632D01*
X192458349Y-106910038D01*
X192465581Y-106930250D01*
X192470797Y-106951074D01*
X192473947Y-106972309D01*
X192475000Y-106993750D01*
X192475000Y-107431250D01*
X192473947Y-107452691D01*
X192470797Y-107473926D01*
X192465581Y-107494750D01*
X192458349Y-107514962D01*
X192449170Y-107534368D01*
X192438134Y-107552781D01*
X192425346Y-107570024D01*
X192410930Y-107585930D01*
X192395024Y-107600346D01*
X192377781Y-107613134D01*
X192359368Y-107624170D01*
X192339962Y-107633349D01*
X192319750Y-107640581D01*
X192298926Y-107645797D01*
X192277691Y-107648947D01*
X192256250Y-107650000D01*
X191743750Y-107650000D01*
X191722309Y-107648947D01*
X191701074Y-107645797D01*
X191680250Y-107640581D01*
X191660038Y-107633349D01*
X191640632Y-107624170D01*
X191622219Y-107613134D01*
X191604976Y-107600346D01*
X191589070Y-107585930D01*
X191574654Y-107570024D01*
X191561866Y-107552781D01*
X191550830Y-107534368D01*
X191541651Y-107514962D01*
X191534419Y-107494750D01*
X191529203Y-107473926D01*
X191526053Y-107452691D01*
X191525000Y-107431250D01*
X191525000Y-106993750D01*
X191526053Y-106972309D01*
X191529203Y-106951074D01*
X191534419Y-106930250D01*
X191541651Y-106910038D01*
X191550830Y-106890632D01*
X191561866Y-106872219D01*
X191574654Y-106854976D01*
X191589070Y-106839070D01*
X191604976Y-106824654D01*
X191622219Y-106811866D01*
X191640632Y-106800830D01*
X191660038Y-106791651D01*
X191680250Y-106784419D01*
X191701074Y-106779203D01*
X191722309Y-106776053D01*
X191743750Y-106775000D01*
X192256250Y-106775000D01*
X192277691Y-106776053D01*
X192277691Y-106776053D01*
G37*
D12*
X192000000Y-107212500D03*
D11*
G36*
X192277691Y-108351053D02*
G01*
X192298926Y-108354203D01*
X192319750Y-108359419D01*
X192339962Y-108366651D01*
X192359368Y-108375830D01*
X192377781Y-108386866D01*
X192395024Y-108399654D01*
X192410930Y-108414070D01*
X192425346Y-108429976D01*
X192438134Y-108447219D01*
X192449170Y-108465632D01*
X192458349Y-108485038D01*
X192465581Y-108505250D01*
X192470797Y-108526074D01*
X192473947Y-108547309D01*
X192475000Y-108568750D01*
X192475000Y-109006250D01*
X192473947Y-109027691D01*
X192470797Y-109048926D01*
X192465581Y-109069750D01*
X192458349Y-109089962D01*
X192449170Y-109109368D01*
X192438134Y-109127781D01*
X192425346Y-109145024D01*
X192410930Y-109160930D01*
X192395024Y-109175346D01*
X192377781Y-109188134D01*
X192359368Y-109199170D01*
X192339962Y-109208349D01*
X192319750Y-109215581D01*
X192298926Y-109220797D01*
X192277691Y-109223947D01*
X192256250Y-109225000D01*
X191743750Y-109225000D01*
X191722309Y-109223947D01*
X191701074Y-109220797D01*
X191680250Y-109215581D01*
X191660038Y-109208349D01*
X191640632Y-109199170D01*
X191622219Y-109188134D01*
X191604976Y-109175346D01*
X191589070Y-109160930D01*
X191574654Y-109145024D01*
X191561866Y-109127781D01*
X191550830Y-109109368D01*
X191541651Y-109089962D01*
X191534419Y-109069750D01*
X191529203Y-109048926D01*
X191526053Y-109027691D01*
X191525000Y-109006250D01*
X191525000Y-108568750D01*
X191526053Y-108547309D01*
X191529203Y-108526074D01*
X191534419Y-108505250D01*
X191541651Y-108485038D01*
X191550830Y-108465632D01*
X191561866Y-108447219D01*
X191574654Y-108429976D01*
X191589070Y-108414070D01*
X191604976Y-108399654D01*
X191622219Y-108386866D01*
X191640632Y-108375830D01*
X191660038Y-108366651D01*
X191680250Y-108359419D01*
X191701074Y-108354203D01*
X191722309Y-108351053D01*
X191743750Y-108350000D01*
X192256250Y-108350000D01*
X192277691Y-108351053D01*
X192277691Y-108351053D01*
G37*
D12*
X192000000Y-108787500D03*
D11*
G36*
X190580142Y-108251174D02*
G01*
X190603803Y-108254684D01*
X190627007Y-108260496D01*
X190649529Y-108268554D01*
X190671153Y-108278782D01*
X190691670Y-108291079D01*
X190710883Y-108305329D01*
X190728607Y-108321393D01*
X190744671Y-108339117D01*
X190758921Y-108358330D01*
X190771218Y-108378847D01*
X190781446Y-108400471D01*
X190789504Y-108422993D01*
X190795316Y-108446197D01*
X190798826Y-108469858D01*
X190800000Y-108493750D01*
X190800000Y-108981250D01*
X190798826Y-109005142D01*
X190795316Y-109028803D01*
X190789504Y-109052007D01*
X190781446Y-109074529D01*
X190771218Y-109096153D01*
X190758921Y-109116670D01*
X190744671Y-109135883D01*
X190728607Y-109153607D01*
X190710883Y-109169671D01*
X190691670Y-109183921D01*
X190671153Y-109196218D01*
X190649529Y-109206446D01*
X190627007Y-109214504D01*
X190603803Y-109220316D01*
X190580142Y-109223826D01*
X190556250Y-109225000D01*
X189643750Y-109225000D01*
X189619858Y-109223826D01*
X189596197Y-109220316D01*
X189572993Y-109214504D01*
X189550471Y-109206446D01*
X189528847Y-109196218D01*
X189508330Y-109183921D01*
X189489117Y-109169671D01*
X189471393Y-109153607D01*
X189455329Y-109135883D01*
X189441079Y-109116670D01*
X189428782Y-109096153D01*
X189418554Y-109074529D01*
X189410496Y-109052007D01*
X189404684Y-109028803D01*
X189401174Y-109005142D01*
X189400000Y-108981250D01*
X189400000Y-108493750D01*
X189401174Y-108469858D01*
X189404684Y-108446197D01*
X189410496Y-108422993D01*
X189418554Y-108400471D01*
X189428782Y-108378847D01*
X189441079Y-108358330D01*
X189455329Y-108339117D01*
X189471393Y-108321393D01*
X189489117Y-108305329D01*
X189508330Y-108291079D01*
X189528847Y-108278782D01*
X189550471Y-108268554D01*
X189572993Y-108260496D01*
X189596197Y-108254684D01*
X189619858Y-108251174D01*
X189643750Y-108250000D01*
X190556250Y-108250000D01*
X190580142Y-108251174D01*
X190580142Y-108251174D01*
G37*
D13*
X190100000Y-108737500D03*
D11*
G36*
X190580142Y-106376174D02*
G01*
X190603803Y-106379684D01*
X190627007Y-106385496D01*
X190649529Y-106393554D01*
X190671153Y-106403782D01*
X190691670Y-106416079D01*
X190710883Y-106430329D01*
X190728607Y-106446393D01*
X190744671Y-106464117D01*
X190758921Y-106483330D01*
X190771218Y-106503847D01*
X190781446Y-106525471D01*
X190789504Y-106547993D01*
X190795316Y-106571197D01*
X190798826Y-106594858D01*
X190800000Y-106618750D01*
X190800000Y-107106250D01*
X190798826Y-107130142D01*
X190795316Y-107153803D01*
X190789504Y-107177007D01*
X190781446Y-107199529D01*
X190771218Y-107221153D01*
X190758921Y-107241670D01*
X190744671Y-107260883D01*
X190728607Y-107278607D01*
X190710883Y-107294671D01*
X190691670Y-107308921D01*
X190671153Y-107321218D01*
X190649529Y-107331446D01*
X190627007Y-107339504D01*
X190603803Y-107345316D01*
X190580142Y-107348826D01*
X190556250Y-107350000D01*
X189643750Y-107350000D01*
X189619858Y-107348826D01*
X189596197Y-107345316D01*
X189572993Y-107339504D01*
X189550471Y-107331446D01*
X189528847Y-107321218D01*
X189508330Y-107308921D01*
X189489117Y-107294671D01*
X189471393Y-107278607D01*
X189455329Y-107260883D01*
X189441079Y-107241670D01*
X189428782Y-107221153D01*
X189418554Y-107199529D01*
X189410496Y-107177007D01*
X189404684Y-107153803D01*
X189401174Y-107130142D01*
X189400000Y-107106250D01*
X189400000Y-106618750D01*
X189401174Y-106594858D01*
X189404684Y-106571197D01*
X189410496Y-106547993D01*
X189418554Y-106525471D01*
X189428782Y-106503847D01*
X189441079Y-106483330D01*
X189455329Y-106464117D01*
X189471393Y-106446393D01*
X189489117Y-106430329D01*
X189508330Y-106416079D01*
X189528847Y-106403782D01*
X189550471Y-106393554D01*
X189572993Y-106385496D01*
X189596197Y-106379684D01*
X189619858Y-106376174D01*
X189643750Y-106375000D01*
X190556250Y-106375000D01*
X190580142Y-106376174D01*
X190580142Y-106376174D01*
G37*
D13*
X190100000Y-106862500D03*
D11*
G36*
X203327691Y-104226053D02*
G01*
X203348926Y-104229203D01*
X203369750Y-104234419D01*
X203389962Y-104241651D01*
X203409368Y-104250830D01*
X203427781Y-104261866D01*
X203445024Y-104274654D01*
X203460930Y-104289070D01*
X203475346Y-104304976D01*
X203488134Y-104322219D01*
X203499170Y-104340632D01*
X203508349Y-104360038D01*
X203515581Y-104380250D01*
X203520797Y-104401074D01*
X203523947Y-104422309D01*
X203525000Y-104443750D01*
X203525000Y-104956250D01*
X203523947Y-104977691D01*
X203520797Y-104998926D01*
X203515581Y-105019750D01*
X203508349Y-105039962D01*
X203499170Y-105059368D01*
X203488134Y-105077781D01*
X203475346Y-105095024D01*
X203460930Y-105110930D01*
X203445024Y-105125346D01*
X203427781Y-105138134D01*
X203409368Y-105149170D01*
X203389962Y-105158349D01*
X203369750Y-105165581D01*
X203348926Y-105170797D01*
X203327691Y-105173947D01*
X203306250Y-105175000D01*
X202868750Y-105175000D01*
X202847309Y-105173947D01*
X202826074Y-105170797D01*
X202805250Y-105165581D01*
X202785038Y-105158349D01*
X202765632Y-105149170D01*
X202747219Y-105138134D01*
X202729976Y-105125346D01*
X202714070Y-105110930D01*
X202699654Y-105095024D01*
X202686866Y-105077781D01*
X202675830Y-105059368D01*
X202666651Y-105039962D01*
X202659419Y-105019750D01*
X202654203Y-104998926D01*
X202651053Y-104977691D01*
X202650000Y-104956250D01*
X202650000Y-104443750D01*
X202651053Y-104422309D01*
X202654203Y-104401074D01*
X202659419Y-104380250D01*
X202666651Y-104360038D01*
X202675830Y-104340632D01*
X202686866Y-104322219D01*
X202699654Y-104304976D01*
X202714070Y-104289070D01*
X202729976Y-104274654D01*
X202747219Y-104261866D01*
X202765632Y-104250830D01*
X202785038Y-104241651D01*
X202805250Y-104234419D01*
X202826074Y-104229203D01*
X202847309Y-104226053D01*
X202868750Y-104225000D01*
X203306250Y-104225000D01*
X203327691Y-104226053D01*
X203327691Y-104226053D01*
G37*
D12*
X203087500Y-104700000D03*
D11*
G36*
X201752691Y-104226053D02*
G01*
X201773926Y-104229203D01*
X201794750Y-104234419D01*
X201814962Y-104241651D01*
X201834368Y-104250830D01*
X201852781Y-104261866D01*
X201870024Y-104274654D01*
X201885930Y-104289070D01*
X201900346Y-104304976D01*
X201913134Y-104322219D01*
X201924170Y-104340632D01*
X201933349Y-104360038D01*
X201940581Y-104380250D01*
X201945797Y-104401074D01*
X201948947Y-104422309D01*
X201950000Y-104443750D01*
X201950000Y-104956250D01*
X201948947Y-104977691D01*
X201945797Y-104998926D01*
X201940581Y-105019750D01*
X201933349Y-105039962D01*
X201924170Y-105059368D01*
X201913134Y-105077781D01*
X201900346Y-105095024D01*
X201885930Y-105110930D01*
X201870024Y-105125346D01*
X201852781Y-105138134D01*
X201834368Y-105149170D01*
X201814962Y-105158349D01*
X201794750Y-105165581D01*
X201773926Y-105170797D01*
X201752691Y-105173947D01*
X201731250Y-105175000D01*
X201293750Y-105175000D01*
X201272309Y-105173947D01*
X201251074Y-105170797D01*
X201230250Y-105165581D01*
X201210038Y-105158349D01*
X201190632Y-105149170D01*
X201172219Y-105138134D01*
X201154976Y-105125346D01*
X201139070Y-105110930D01*
X201124654Y-105095024D01*
X201111866Y-105077781D01*
X201100830Y-105059368D01*
X201091651Y-105039962D01*
X201084419Y-105019750D01*
X201079203Y-104998926D01*
X201076053Y-104977691D01*
X201075000Y-104956250D01*
X201075000Y-104443750D01*
X201076053Y-104422309D01*
X201079203Y-104401074D01*
X201084419Y-104380250D01*
X201091651Y-104360038D01*
X201100830Y-104340632D01*
X201111866Y-104322219D01*
X201124654Y-104304976D01*
X201139070Y-104289070D01*
X201154976Y-104274654D01*
X201172219Y-104261866D01*
X201190632Y-104250830D01*
X201210038Y-104241651D01*
X201230250Y-104234419D01*
X201251074Y-104229203D01*
X201272309Y-104226053D01*
X201293750Y-104225000D01*
X201731250Y-104225000D01*
X201752691Y-104226053D01*
X201752691Y-104226053D01*
G37*
D12*
X201512500Y-104700000D03*
D11*
G36*
X186227691Y-104726053D02*
G01*
X186248926Y-104729203D01*
X186269750Y-104734419D01*
X186289962Y-104741651D01*
X186309368Y-104750830D01*
X186327781Y-104761866D01*
X186345024Y-104774654D01*
X186360930Y-104789070D01*
X186375346Y-104804976D01*
X186388134Y-104822219D01*
X186399170Y-104840632D01*
X186408349Y-104860038D01*
X186415581Y-104880250D01*
X186420797Y-104901074D01*
X186423947Y-104922309D01*
X186425000Y-104943750D01*
X186425000Y-105456250D01*
X186423947Y-105477691D01*
X186420797Y-105498926D01*
X186415581Y-105519750D01*
X186408349Y-105539962D01*
X186399170Y-105559368D01*
X186388134Y-105577781D01*
X186375346Y-105595024D01*
X186360930Y-105610930D01*
X186345024Y-105625346D01*
X186327781Y-105638134D01*
X186309368Y-105649170D01*
X186289962Y-105658349D01*
X186269750Y-105665581D01*
X186248926Y-105670797D01*
X186227691Y-105673947D01*
X186206250Y-105675000D01*
X185768750Y-105675000D01*
X185747309Y-105673947D01*
X185726074Y-105670797D01*
X185705250Y-105665581D01*
X185685038Y-105658349D01*
X185665632Y-105649170D01*
X185647219Y-105638134D01*
X185629976Y-105625346D01*
X185614070Y-105610930D01*
X185599654Y-105595024D01*
X185586866Y-105577781D01*
X185575830Y-105559368D01*
X185566651Y-105539962D01*
X185559419Y-105519750D01*
X185554203Y-105498926D01*
X185551053Y-105477691D01*
X185550000Y-105456250D01*
X185550000Y-104943750D01*
X185551053Y-104922309D01*
X185554203Y-104901074D01*
X185559419Y-104880250D01*
X185566651Y-104860038D01*
X185575830Y-104840632D01*
X185586866Y-104822219D01*
X185599654Y-104804976D01*
X185614070Y-104789070D01*
X185629976Y-104774654D01*
X185647219Y-104761866D01*
X185665632Y-104750830D01*
X185685038Y-104741651D01*
X185705250Y-104734419D01*
X185726074Y-104729203D01*
X185747309Y-104726053D01*
X185768750Y-104725000D01*
X186206250Y-104725000D01*
X186227691Y-104726053D01*
X186227691Y-104726053D01*
G37*
D12*
X185987500Y-105200000D03*
D11*
G36*
X184652691Y-104726053D02*
G01*
X184673926Y-104729203D01*
X184694750Y-104734419D01*
X184714962Y-104741651D01*
X184734368Y-104750830D01*
X184752781Y-104761866D01*
X184770024Y-104774654D01*
X184785930Y-104789070D01*
X184800346Y-104804976D01*
X184813134Y-104822219D01*
X184824170Y-104840632D01*
X184833349Y-104860038D01*
X184840581Y-104880250D01*
X184845797Y-104901074D01*
X184848947Y-104922309D01*
X184850000Y-104943750D01*
X184850000Y-105456250D01*
X184848947Y-105477691D01*
X184845797Y-105498926D01*
X184840581Y-105519750D01*
X184833349Y-105539962D01*
X184824170Y-105559368D01*
X184813134Y-105577781D01*
X184800346Y-105595024D01*
X184785930Y-105610930D01*
X184770024Y-105625346D01*
X184752781Y-105638134D01*
X184734368Y-105649170D01*
X184714962Y-105658349D01*
X184694750Y-105665581D01*
X184673926Y-105670797D01*
X184652691Y-105673947D01*
X184631250Y-105675000D01*
X184193750Y-105675000D01*
X184172309Y-105673947D01*
X184151074Y-105670797D01*
X184130250Y-105665581D01*
X184110038Y-105658349D01*
X184090632Y-105649170D01*
X184072219Y-105638134D01*
X184054976Y-105625346D01*
X184039070Y-105610930D01*
X184024654Y-105595024D01*
X184011866Y-105577781D01*
X184000830Y-105559368D01*
X183991651Y-105539962D01*
X183984419Y-105519750D01*
X183979203Y-105498926D01*
X183976053Y-105477691D01*
X183975000Y-105456250D01*
X183975000Y-104943750D01*
X183976053Y-104922309D01*
X183979203Y-104901074D01*
X183984419Y-104880250D01*
X183991651Y-104860038D01*
X184000830Y-104840632D01*
X184011866Y-104822219D01*
X184024654Y-104804976D01*
X184039070Y-104789070D01*
X184054976Y-104774654D01*
X184072219Y-104761866D01*
X184090632Y-104750830D01*
X184110038Y-104741651D01*
X184130250Y-104734419D01*
X184151074Y-104729203D01*
X184172309Y-104726053D01*
X184193750Y-104725000D01*
X184631250Y-104725000D01*
X184652691Y-104726053D01*
X184652691Y-104726053D01*
G37*
D12*
X184412500Y-105200000D03*
D11*
G36*
X184652691Y-102826053D02*
G01*
X184673926Y-102829203D01*
X184694750Y-102834419D01*
X184714962Y-102841651D01*
X184734368Y-102850830D01*
X184752781Y-102861866D01*
X184770024Y-102874654D01*
X184785930Y-102889070D01*
X184800346Y-102904976D01*
X184813134Y-102922219D01*
X184824170Y-102940632D01*
X184833349Y-102960038D01*
X184840581Y-102980250D01*
X184845797Y-103001074D01*
X184848947Y-103022309D01*
X184850000Y-103043750D01*
X184850000Y-103556250D01*
X184848947Y-103577691D01*
X184845797Y-103598926D01*
X184840581Y-103619750D01*
X184833349Y-103639962D01*
X184824170Y-103659368D01*
X184813134Y-103677781D01*
X184800346Y-103695024D01*
X184785930Y-103710930D01*
X184770024Y-103725346D01*
X184752781Y-103738134D01*
X184734368Y-103749170D01*
X184714962Y-103758349D01*
X184694750Y-103765581D01*
X184673926Y-103770797D01*
X184652691Y-103773947D01*
X184631250Y-103775000D01*
X184193750Y-103775000D01*
X184172309Y-103773947D01*
X184151074Y-103770797D01*
X184130250Y-103765581D01*
X184110038Y-103758349D01*
X184090632Y-103749170D01*
X184072219Y-103738134D01*
X184054976Y-103725346D01*
X184039070Y-103710930D01*
X184024654Y-103695024D01*
X184011866Y-103677781D01*
X184000830Y-103659368D01*
X183991651Y-103639962D01*
X183984419Y-103619750D01*
X183979203Y-103598926D01*
X183976053Y-103577691D01*
X183975000Y-103556250D01*
X183975000Y-103043750D01*
X183976053Y-103022309D01*
X183979203Y-103001074D01*
X183984419Y-102980250D01*
X183991651Y-102960038D01*
X184000830Y-102940632D01*
X184011866Y-102922219D01*
X184024654Y-102904976D01*
X184039070Y-102889070D01*
X184054976Y-102874654D01*
X184072219Y-102861866D01*
X184090632Y-102850830D01*
X184110038Y-102841651D01*
X184130250Y-102834419D01*
X184151074Y-102829203D01*
X184172309Y-102826053D01*
X184193750Y-102825000D01*
X184631250Y-102825000D01*
X184652691Y-102826053D01*
X184652691Y-102826053D01*
G37*
D12*
X184412500Y-103300000D03*
D11*
G36*
X186227691Y-102826053D02*
G01*
X186248926Y-102829203D01*
X186269750Y-102834419D01*
X186289962Y-102841651D01*
X186309368Y-102850830D01*
X186327781Y-102861866D01*
X186345024Y-102874654D01*
X186360930Y-102889070D01*
X186375346Y-102904976D01*
X186388134Y-102922219D01*
X186399170Y-102940632D01*
X186408349Y-102960038D01*
X186415581Y-102980250D01*
X186420797Y-103001074D01*
X186423947Y-103022309D01*
X186425000Y-103043750D01*
X186425000Y-103556250D01*
X186423947Y-103577691D01*
X186420797Y-103598926D01*
X186415581Y-103619750D01*
X186408349Y-103639962D01*
X186399170Y-103659368D01*
X186388134Y-103677781D01*
X186375346Y-103695024D01*
X186360930Y-103710930D01*
X186345024Y-103725346D01*
X186327781Y-103738134D01*
X186309368Y-103749170D01*
X186289962Y-103758349D01*
X186269750Y-103765581D01*
X186248926Y-103770797D01*
X186227691Y-103773947D01*
X186206250Y-103775000D01*
X185768750Y-103775000D01*
X185747309Y-103773947D01*
X185726074Y-103770797D01*
X185705250Y-103765581D01*
X185685038Y-103758349D01*
X185665632Y-103749170D01*
X185647219Y-103738134D01*
X185629976Y-103725346D01*
X185614070Y-103710930D01*
X185599654Y-103695024D01*
X185586866Y-103677781D01*
X185575830Y-103659368D01*
X185566651Y-103639962D01*
X185559419Y-103619750D01*
X185554203Y-103598926D01*
X185551053Y-103577691D01*
X185550000Y-103556250D01*
X185550000Y-103043750D01*
X185551053Y-103022309D01*
X185554203Y-103001074D01*
X185559419Y-102980250D01*
X185566651Y-102960038D01*
X185575830Y-102940632D01*
X185586866Y-102922219D01*
X185599654Y-102904976D01*
X185614070Y-102889070D01*
X185629976Y-102874654D01*
X185647219Y-102861866D01*
X185665632Y-102850830D01*
X185685038Y-102841651D01*
X185705250Y-102834419D01*
X185726074Y-102829203D01*
X185747309Y-102826053D01*
X185768750Y-102825000D01*
X186206250Y-102825000D01*
X186227691Y-102826053D01*
X186227691Y-102826053D01*
G37*
D12*
X185987500Y-103300000D03*
D11*
G36*
X193352691Y-120626053D02*
G01*
X193373926Y-120629203D01*
X193394750Y-120634419D01*
X193414962Y-120641651D01*
X193434368Y-120650830D01*
X193452781Y-120661866D01*
X193470024Y-120674654D01*
X193485930Y-120689070D01*
X193500346Y-120704976D01*
X193513134Y-120722219D01*
X193524170Y-120740632D01*
X193533349Y-120760038D01*
X193540581Y-120780250D01*
X193545797Y-120801074D01*
X193548947Y-120822309D01*
X193550000Y-120843750D01*
X193550000Y-121356250D01*
X193548947Y-121377691D01*
X193545797Y-121398926D01*
X193540581Y-121419750D01*
X193533349Y-121439962D01*
X193524170Y-121459368D01*
X193513134Y-121477781D01*
X193500346Y-121495024D01*
X193485930Y-121510930D01*
X193470024Y-121525346D01*
X193452781Y-121538134D01*
X193434368Y-121549170D01*
X193414962Y-121558349D01*
X193394750Y-121565581D01*
X193373926Y-121570797D01*
X193352691Y-121573947D01*
X193331250Y-121575000D01*
X192893750Y-121575000D01*
X192872309Y-121573947D01*
X192851074Y-121570797D01*
X192830250Y-121565581D01*
X192810038Y-121558349D01*
X192790632Y-121549170D01*
X192772219Y-121538134D01*
X192754976Y-121525346D01*
X192739070Y-121510930D01*
X192724654Y-121495024D01*
X192711866Y-121477781D01*
X192700830Y-121459368D01*
X192691651Y-121439962D01*
X192684419Y-121419750D01*
X192679203Y-121398926D01*
X192676053Y-121377691D01*
X192675000Y-121356250D01*
X192675000Y-120843750D01*
X192676053Y-120822309D01*
X192679203Y-120801074D01*
X192684419Y-120780250D01*
X192691651Y-120760038D01*
X192700830Y-120740632D01*
X192711866Y-120722219D01*
X192724654Y-120704976D01*
X192739070Y-120689070D01*
X192754976Y-120674654D01*
X192772219Y-120661866D01*
X192790632Y-120650830D01*
X192810038Y-120641651D01*
X192830250Y-120634419D01*
X192851074Y-120629203D01*
X192872309Y-120626053D01*
X192893750Y-120625000D01*
X193331250Y-120625000D01*
X193352691Y-120626053D01*
X193352691Y-120626053D01*
G37*
D12*
X193112500Y-121100000D03*
D11*
G36*
X194927691Y-120626053D02*
G01*
X194948926Y-120629203D01*
X194969750Y-120634419D01*
X194989962Y-120641651D01*
X195009368Y-120650830D01*
X195027781Y-120661866D01*
X195045024Y-120674654D01*
X195060930Y-120689070D01*
X195075346Y-120704976D01*
X195088134Y-120722219D01*
X195099170Y-120740632D01*
X195108349Y-120760038D01*
X195115581Y-120780250D01*
X195120797Y-120801074D01*
X195123947Y-120822309D01*
X195125000Y-120843750D01*
X195125000Y-121356250D01*
X195123947Y-121377691D01*
X195120797Y-121398926D01*
X195115581Y-121419750D01*
X195108349Y-121439962D01*
X195099170Y-121459368D01*
X195088134Y-121477781D01*
X195075346Y-121495024D01*
X195060930Y-121510930D01*
X195045024Y-121525346D01*
X195027781Y-121538134D01*
X195009368Y-121549170D01*
X194989962Y-121558349D01*
X194969750Y-121565581D01*
X194948926Y-121570797D01*
X194927691Y-121573947D01*
X194906250Y-121575000D01*
X194468750Y-121575000D01*
X194447309Y-121573947D01*
X194426074Y-121570797D01*
X194405250Y-121565581D01*
X194385038Y-121558349D01*
X194365632Y-121549170D01*
X194347219Y-121538134D01*
X194329976Y-121525346D01*
X194314070Y-121510930D01*
X194299654Y-121495024D01*
X194286866Y-121477781D01*
X194275830Y-121459368D01*
X194266651Y-121439962D01*
X194259419Y-121419750D01*
X194254203Y-121398926D01*
X194251053Y-121377691D01*
X194250000Y-121356250D01*
X194250000Y-120843750D01*
X194251053Y-120822309D01*
X194254203Y-120801074D01*
X194259419Y-120780250D01*
X194266651Y-120760038D01*
X194275830Y-120740632D01*
X194286866Y-120722219D01*
X194299654Y-120704976D01*
X194314070Y-120689070D01*
X194329976Y-120674654D01*
X194347219Y-120661866D01*
X194365632Y-120650830D01*
X194385038Y-120641651D01*
X194405250Y-120634419D01*
X194426074Y-120629203D01*
X194447309Y-120626053D01*
X194468750Y-120625000D01*
X194906250Y-120625000D01*
X194927691Y-120626053D01*
X194927691Y-120626053D01*
G37*
D12*
X194687500Y-121100000D03*
D11*
G36*
X191627691Y-120626053D02*
G01*
X191648926Y-120629203D01*
X191669750Y-120634419D01*
X191689962Y-120641651D01*
X191709368Y-120650830D01*
X191727781Y-120661866D01*
X191745024Y-120674654D01*
X191760930Y-120689070D01*
X191775346Y-120704976D01*
X191788134Y-120722219D01*
X191799170Y-120740632D01*
X191808349Y-120760038D01*
X191815581Y-120780250D01*
X191820797Y-120801074D01*
X191823947Y-120822309D01*
X191825000Y-120843750D01*
X191825000Y-121356250D01*
X191823947Y-121377691D01*
X191820797Y-121398926D01*
X191815581Y-121419750D01*
X191808349Y-121439962D01*
X191799170Y-121459368D01*
X191788134Y-121477781D01*
X191775346Y-121495024D01*
X191760930Y-121510930D01*
X191745024Y-121525346D01*
X191727781Y-121538134D01*
X191709368Y-121549170D01*
X191689962Y-121558349D01*
X191669750Y-121565581D01*
X191648926Y-121570797D01*
X191627691Y-121573947D01*
X191606250Y-121575000D01*
X191168750Y-121575000D01*
X191147309Y-121573947D01*
X191126074Y-121570797D01*
X191105250Y-121565581D01*
X191085038Y-121558349D01*
X191065632Y-121549170D01*
X191047219Y-121538134D01*
X191029976Y-121525346D01*
X191014070Y-121510930D01*
X190999654Y-121495024D01*
X190986866Y-121477781D01*
X190975830Y-121459368D01*
X190966651Y-121439962D01*
X190959419Y-121419750D01*
X190954203Y-121398926D01*
X190951053Y-121377691D01*
X190950000Y-121356250D01*
X190950000Y-120843750D01*
X190951053Y-120822309D01*
X190954203Y-120801074D01*
X190959419Y-120780250D01*
X190966651Y-120760038D01*
X190975830Y-120740632D01*
X190986866Y-120722219D01*
X190999654Y-120704976D01*
X191014070Y-120689070D01*
X191029976Y-120674654D01*
X191047219Y-120661866D01*
X191065632Y-120650830D01*
X191085038Y-120641651D01*
X191105250Y-120634419D01*
X191126074Y-120629203D01*
X191147309Y-120626053D01*
X191168750Y-120625000D01*
X191606250Y-120625000D01*
X191627691Y-120626053D01*
X191627691Y-120626053D01*
G37*
D12*
X191387500Y-121100000D03*
D11*
G36*
X190052691Y-120626053D02*
G01*
X190073926Y-120629203D01*
X190094750Y-120634419D01*
X190114962Y-120641651D01*
X190134368Y-120650830D01*
X190152781Y-120661866D01*
X190170024Y-120674654D01*
X190185930Y-120689070D01*
X190200346Y-120704976D01*
X190213134Y-120722219D01*
X190224170Y-120740632D01*
X190233349Y-120760038D01*
X190240581Y-120780250D01*
X190245797Y-120801074D01*
X190248947Y-120822309D01*
X190250000Y-120843750D01*
X190250000Y-121356250D01*
X190248947Y-121377691D01*
X190245797Y-121398926D01*
X190240581Y-121419750D01*
X190233349Y-121439962D01*
X190224170Y-121459368D01*
X190213134Y-121477781D01*
X190200346Y-121495024D01*
X190185930Y-121510930D01*
X190170024Y-121525346D01*
X190152781Y-121538134D01*
X190134368Y-121549170D01*
X190114962Y-121558349D01*
X190094750Y-121565581D01*
X190073926Y-121570797D01*
X190052691Y-121573947D01*
X190031250Y-121575000D01*
X189593750Y-121575000D01*
X189572309Y-121573947D01*
X189551074Y-121570797D01*
X189530250Y-121565581D01*
X189510038Y-121558349D01*
X189490632Y-121549170D01*
X189472219Y-121538134D01*
X189454976Y-121525346D01*
X189439070Y-121510930D01*
X189424654Y-121495024D01*
X189411866Y-121477781D01*
X189400830Y-121459368D01*
X189391651Y-121439962D01*
X189384419Y-121419750D01*
X189379203Y-121398926D01*
X189376053Y-121377691D01*
X189375000Y-121356250D01*
X189375000Y-120843750D01*
X189376053Y-120822309D01*
X189379203Y-120801074D01*
X189384419Y-120780250D01*
X189391651Y-120760038D01*
X189400830Y-120740632D01*
X189411866Y-120722219D01*
X189424654Y-120704976D01*
X189439070Y-120689070D01*
X189454976Y-120674654D01*
X189472219Y-120661866D01*
X189490632Y-120650830D01*
X189510038Y-120641651D01*
X189530250Y-120634419D01*
X189551074Y-120629203D01*
X189572309Y-120626053D01*
X189593750Y-120625000D01*
X190031250Y-120625000D01*
X190052691Y-120626053D01*
X190052691Y-120626053D01*
G37*
D12*
X189812500Y-121100000D03*
D11*
G36*
X206227691Y-118926053D02*
G01*
X206248926Y-118929203D01*
X206269750Y-118934419D01*
X206289962Y-118941651D01*
X206309368Y-118950830D01*
X206327781Y-118961866D01*
X206345024Y-118974654D01*
X206360930Y-118989070D01*
X206375346Y-119004976D01*
X206388134Y-119022219D01*
X206399170Y-119040632D01*
X206408349Y-119060038D01*
X206415581Y-119080250D01*
X206420797Y-119101074D01*
X206423947Y-119122309D01*
X206425000Y-119143750D01*
X206425000Y-119656250D01*
X206423947Y-119677691D01*
X206420797Y-119698926D01*
X206415581Y-119719750D01*
X206408349Y-119739962D01*
X206399170Y-119759368D01*
X206388134Y-119777781D01*
X206375346Y-119795024D01*
X206360930Y-119810930D01*
X206345024Y-119825346D01*
X206327781Y-119838134D01*
X206309368Y-119849170D01*
X206289962Y-119858349D01*
X206269750Y-119865581D01*
X206248926Y-119870797D01*
X206227691Y-119873947D01*
X206206250Y-119875000D01*
X205768750Y-119875000D01*
X205747309Y-119873947D01*
X205726074Y-119870797D01*
X205705250Y-119865581D01*
X205685038Y-119858349D01*
X205665632Y-119849170D01*
X205647219Y-119838134D01*
X205629976Y-119825346D01*
X205614070Y-119810930D01*
X205599654Y-119795024D01*
X205586866Y-119777781D01*
X205575830Y-119759368D01*
X205566651Y-119739962D01*
X205559419Y-119719750D01*
X205554203Y-119698926D01*
X205551053Y-119677691D01*
X205550000Y-119656250D01*
X205550000Y-119143750D01*
X205551053Y-119122309D01*
X205554203Y-119101074D01*
X205559419Y-119080250D01*
X205566651Y-119060038D01*
X205575830Y-119040632D01*
X205586866Y-119022219D01*
X205599654Y-119004976D01*
X205614070Y-118989070D01*
X205629976Y-118974654D01*
X205647219Y-118961866D01*
X205665632Y-118950830D01*
X205685038Y-118941651D01*
X205705250Y-118934419D01*
X205726074Y-118929203D01*
X205747309Y-118926053D01*
X205768750Y-118925000D01*
X206206250Y-118925000D01*
X206227691Y-118926053D01*
X206227691Y-118926053D01*
G37*
D12*
X205987500Y-119400000D03*
D11*
G36*
X204652691Y-118926053D02*
G01*
X204673926Y-118929203D01*
X204694750Y-118934419D01*
X204714962Y-118941651D01*
X204734368Y-118950830D01*
X204752781Y-118961866D01*
X204770024Y-118974654D01*
X204785930Y-118989070D01*
X204800346Y-119004976D01*
X204813134Y-119022219D01*
X204824170Y-119040632D01*
X204833349Y-119060038D01*
X204840581Y-119080250D01*
X204845797Y-119101074D01*
X204848947Y-119122309D01*
X204850000Y-119143750D01*
X204850000Y-119656250D01*
X204848947Y-119677691D01*
X204845797Y-119698926D01*
X204840581Y-119719750D01*
X204833349Y-119739962D01*
X204824170Y-119759368D01*
X204813134Y-119777781D01*
X204800346Y-119795024D01*
X204785930Y-119810930D01*
X204770024Y-119825346D01*
X204752781Y-119838134D01*
X204734368Y-119849170D01*
X204714962Y-119858349D01*
X204694750Y-119865581D01*
X204673926Y-119870797D01*
X204652691Y-119873947D01*
X204631250Y-119875000D01*
X204193750Y-119875000D01*
X204172309Y-119873947D01*
X204151074Y-119870797D01*
X204130250Y-119865581D01*
X204110038Y-119858349D01*
X204090632Y-119849170D01*
X204072219Y-119838134D01*
X204054976Y-119825346D01*
X204039070Y-119810930D01*
X204024654Y-119795024D01*
X204011866Y-119777781D01*
X204000830Y-119759368D01*
X203991651Y-119739962D01*
X203984419Y-119719750D01*
X203979203Y-119698926D01*
X203976053Y-119677691D01*
X203975000Y-119656250D01*
X203975000Y-119143750D01*
X203976053Y-119122309D01*
X203979203Y-119101074D01*
X203984419Y-119080250D01*
X203991651Y-119060038D01*
X204000830Y-119040632D01*
X204011866Y-119022219D01*
X204024654Y-119004976D01*
X204039070Y-118989070D01*
X204054976Y-118974654D01*
X204072219Y-118961866D01*
X204090632Y-118950830D01*
X204110038Y-118941651D01*
X204130250Y-118934419D01*
X204151074Y-118929203D01*
X204172309Y-118926053D01*
X204193750Y-118925000D01*
X204631250Y-118925000D01*
X204652691Y-118926053D01*
X204652691Y-118926053D01*
G37*
D12*
X204412500Y-119400000D03*
D11*
G36*
X201352691Y-118926053D02*
G01*
X201373926Y-118929203D01*
X201394750Y-118934419D01*
X201414962Y-118941651D01*
X201434368Y-118950830D01*
X201452781Y-118961866D01*
X201470024Y-118974654D01*
X201485930Y-118989070D01*
X201500346Y-119004976D01*
X201513134Y-119022219D01*
X201524170Y-119040632D01*
X201533349Y-119060038D01*
X201540581Y-119080250D01*
X201545797Y-119101074D01*
X201548947Y-119122309D01*
X201550000Y-119143750D01*
X201550000Y-119656250D01*
X201548947Y-119677691D01*
X201545797Y-119698926D01*
X201540581Y-119719750D01*
X201533349Y-119739962D01*
X201524170Y-119759368D01*
X201513134Y-119777781D01*
X201500346Y-119795024D01*
X201485930Y-119810930D01*
X201470024Y-119825346D01*
X201452781Y-119838134D01*
X201434368Y-119849170D01*
X201414962Y-119858349D01*
X201394750Y-119865581D01*
X201373926Y-119870797D01*
X201352691Y-119873947D01*
X201331250Y-119875000D01*
X200893750Y-119875000D01*
X200872309Y-119873947D01*
X200851074Y-119870797D01*
X200830250Y-119865581D01*
X200810038Y-119858349D01*
X200790632Y-119849170D01*
X200772219Y-119838134D01*
X200754976Y-119825346D01*
X200739070Y-119810930D01*
X200724654Y-119795024D01*
X200711866Y-119777781D01*
X200700830Y-119759368D01*
X200691651Y-119739962D01*
X200684419Y-119719750D01*
X200679203Y-119698926D01*
X200676053Y-119677691D01*
X200675000Y-119656250D01*
X200675000Y-119143750D01*
X200676053Y-119122309D01*
X200679203Y-119101074D01*
X200684419Y-119080250D01*
X200691651Y-119060038D01*
X200700830Y-119040632D01*
X200711866Y-119022219D01*
X200724654Y-119004976D01*
X200739070Y-118989070D01*
X200754976Y-118974654D01*
X200772219Y-118961866D01*
X200790632Y-118950830D01*
X200810038Y-118941651D01*
X200830250Y-118934419D01*
X200851074Y-118929203D01*
X200872309Y-118926053D01*
X200893750Y-118925000D01*
X201331250Y-118925000D01*
X201352691Y-118926053D01*
X201352691Y-118926053D01*
G37*
D12*
X201112500Y-119400000D03*
D11*
G36*
X202927691Y-118926053D02*
G01*
X202948926Y-118929203D01*
X202969750Y-118934419D01*
X202989962Y-118941651D01*
X203009368Y-118950830D01*
X203027781Y-118961866D01*
X203045024Y-118974654D01*
X203060930Y-118989070D01*
X203075346Y-119004976D01*
X203088134Y-119022219D01*
X203099170Y-119040632D01*
X203108349Y-119060038D01*
X203115581Y-119080250D01*
X203120797Y-119101074D01*
X203123947Y-119122309D01*
X203125000Y-119143750D01*
X203125000Y-119656250D01*
X203123947Y-119677691D01*
X203120797Y-119698926D01*
X203115581Y-119719750D01*
X203108349Y-119739962D01*
X203099170Y-119759368D01*
X203088134Y-119777781D01*
X203075346Y-119795024D01*
X203060930Y-119810930D01*
X203045024Y-119825346D01*
X203027781Y-119838134D01*
X203009368Y-119849170D01*
X202989962Y-119858349D01*
X202969750Y-119865581D01*
X202948926Y-119870797D01*
X202927691Y-119873947D01*
X202906250Y-119875000D01*
X202468750Y-119875000D01*
X202447309Y-119873947D01*
X202426074Y-119870797D01*
X202405250Y-119865581D01*
X202385038Y-119858349D01*
X202365632Y-119849170D01*
X202347219Y-119838134D01*
X202329976Y-119825346D01*
X202314070Y-119810930D01*
X202299654Y-119795024D01*
X202286866Y-119777781D01*
X202275830Y-119759368D01*
X202266651Y-119739962D01*
X202259419Y-119719750D01*
X202254203Y-119698926D01*
X202251053Y-119677691D01*
X202250000Y-119656250D01*
X202250000Y-119143750D01*
X202251053Y-119122309D01*
X202254203Y-119101074D01*
X202259419Y-119080250D01*
X202266651Y-119060038D01*
X202275830Y-119040632D01*
X202286866Y-119022219D01*
X202299654Y-119004976D01*
X202314070Y-118989070D01*
X202329976Y-118974654D01*
X202347219Y-118961866D01*
X202365632Y-118950830D01*
X202385038Y-118941651D01*
X202405250Y-118934419D01*
X202426074Y-118929203D01*
X202447309Y-118926053D01*
X202468750Y-118925000D01*
X202906250Y-118925000D01*
X202927691Y-118926053D01*
X202927691Y-118926053D01*
G37*
D12*
X202687500Y-119400000D03*
D11*
G36*
X186227691Y-116726053D02*
G01*
X186248926Y-116729203D01*
X186269750Y-116734419D01*
X186289962Y-116741651D01*
X186309368Y-116750830D01*
X186327781Y-116761866D01*
X186345024Y-116774654D01*
X186360930Y-116789070D01*
X186375346Y-116804976D01*
X186388134Y-116822219D01*
X186399170Y-116840632D01*
X186408349Y-116860038D01*
X186415581Y-116880250D01*
X186420797Y-116901074D01*
X186423947Y-116922309D01*
X186425000Y-116943750D01*
X186425000Y-117456250D01*
X186423947Y-117477691D01*
X186420797Y-117498926D01*
X186415581Y-117519750D01*
X186408349Y-117539962D01*
X186399170Y-117559368D01*
X186388134Y-117577781D01*
X186375346Y-117595024D01*
X186360930Y-117610930D01*
X186345024Y-117625346D01*
X186327781Y-117638134D01*
X186309368Y-117649170D01*
X186289962Y-117658349D01*
X186269750Y-117665581D01*
X186248926Y-117670797D01*
X186227691Y-117673947D01*
X186206250Y-117675000D01*
X185768750Y-117675000D01*
X185747309Y-117673947D01*
X185726074Y-117670797D01*
X185705250Y-117665581D01*
X185685038Y-117658349D01*
X185665632Y-117649170D01*
X185647219Y-117638134D01*
X185629976Y-117625346D01*
X185614070Y-117610930D01*
X185599654Y-117595024D01*
X185586866Y-117577781D01*
X185575830Y-117559368D01*
X185566651Y-117539962D01*
X185559419Y-117519750D01*
X185554203Y-117498926D01*
X185551053Y-117477691D01*
X185550000Y-117456250D01*
X185550000Y-116943750D01*
X185551053Y-116922309D01*
X185554203Y-116901074D01*
X185559419Y-116880250D01*
X185566651Y-116860038D01*
X185575830Y-116840632D01*
X185586866Y-116822219D01*
X185599654Y-116804976D01*
X185614070Y-116789070D01*
X185629976Y-116774654D01*
X185647219Y-116761866D01*
X185665632Y-116750830D01*
X185685038Y-116741651D01*
X185705250Y-116734419D01*
X185726074Y-116729203D01*
X185747309Y-116726053D01*
X185768750Y-116725000D01*
X186206250Y-116725000D01*
X186227691Y-116726053D01*
X186227691Y-116726053D01*
G37*
D12*
X185987500Y-117200000D03*
D11*
G36*
X184652691Y-116726053D02*
G01*
X184673926Y-116729203D01*
X184694750Y-116734419D01*
X184714962Y-116741651D01*
X184734368Y-116750830D01*
X184752781Y-116761866D01*
X184770024Y-116774654D01*
X184785930Y-116789070D01*
X184800346Y-116804976D01*
X184813134Y-116822219D01*
X184824170Y-116840632D01*
X184833349Y-116860038D01*
X184840581Y-116880250D01*
X184845797Y-116901074D01*
X184848947Y-116922309D01*
X184850000Y-116943750D01*
X184850000Y-117456250D01*
X184848947Y-117477691D01*
X184845797Y-117498926D01*
X184840581Y-117519750D01*
X184833349Y-117539962D01*
X184824170Y-117559368D01*
X184813134Y-117577781D01*
X184800346Y-117595024D01*
X184785930Y-117610930D01*
X184770024Y-117625346D01*
X184752781Y-117638134D01*
X184734368Y-117649170D01*
X184714962Y-117658349D01*
X184694750Y-117665581D01*
X184673926Y-117670797D01*
X184652691Y-117673947D01*
X184631250Y-117675000D01*
X184193750Y-117675000D01*
X184172309Y-117673947D01*
X184151074Y-117670797D01*
X184130250Y-117665581D01*
X184110038Y-117658349D01*
X184090632Y-117649170D01*
X184072219Y-117638134D01*
X184054976Y-117625346D01*
X184039070Y-117610930D01*
X184024654Y-117595024D01*
X184011866Y-117577781D01*
X184000830Y-117559368D01*
X183991651Y-117539962D01*
X183984419Y-117519750D01*
X183979203Y-117498926D01*
X183976053Y-117477691D01*
X183975000Y-117456250D01*
X183975000Y-116943750D01*
X183976053Y-116922309D01*
X183979203Y-116901074D01*
X183984419Y-116880250D01*
X183991651Y-116860038D01*
X184000830Y-116840632D01*
X184011866Y-116822219D01*
X184024654Y-116804976D01*
X184039070Y-116789070D01*
X184054976Y-116774654D01*
X184072219Y-116761866D01*
X184090632Y-116750830D01*
X184110038Y-116741651D01*
X184130250Y-116734419D01*
X184151074Y-116729203D01*
X184172309Y-116726053D01*
X184193750Y-116725000D01*
X184631250Y-116725000D01*
X184652691Y-116726053D01*
X184652691Y-116726053D01*
G37*
D12*
X184412500Y-117200000D03*
D11*
G36*
X193352691Y-118926053D02*
G01*
X193373926Y-118929203D01*
X193394750Y-118934419D01*
X193414962Y-118941651D01*
X193434368Y-118950830D01*
X193452781Y-118961866D01*
X193470024Y-118974654D01*
X193485930Y-118989070D01*
X193500346Y-119004976D01*
X193513134Y-119022219D01*
X193524170Y-119040632D01*
X193533349Y-119060038D01*
X193540581Y-119080250D01*
X193545797Y-119101074D01*
X193548947Y-119122309D01*
X193550000Y-119143750D01*
X193550000Y-119656250D01*
X193548947Y-119677691D01*
X193545797Y-119698926D01*
X193540581Y-119719750D01*
X193533349Y-119739962D01*
X193524170Y-119759368D01*
X193513134Y-119777781D01*
X193500346Y-119795024D01*
X193485930Y-119810930D01*
X193470024Y-119825346D01*
X193452781Y-119838134D01*
X193434368Y-119849170D01*
X193414962Y-119858349D01*
X193394750Y-119865581D01*
X193373926Y-119870797D01*
X193352691Y-119873947D01*
X193331250Y-119875000D01*
X192893750Y-119875000D01*
X192872309Y-119873947D01*
X192851074Y-119870797D01*
X192830250Y-119865581D01*
X192810038Y-119858349D01*
X192790632Y-119849170D01*
X192772219Y-119838134D01*
X192754976Y-119825346D01*
X192739070Y-119810930D01*
X192724654Y-119795024D01*
X192711866Y-119777781D01*
X192700830Y-119759368D01*
X192691651Y-119739962D01*
X192684419Y-119719750D01*
X192679203Y-119698926D01*
X192676053Y-119677691D01*
X192675000Y-119656250D01*
X192675000Y-119143750D01*
X192676053Y-119122309D01*
X192679203Y-119101074D01*
X192684419Y-119080250D01*
X192691651Y-119060038D01*
X192700830Y-119040632D01*
X192711866Y-119022219D01*
X192724654Y-119004976D01*
X192739070Y-118989070D01*
X192754976Y-118974654D01*
X192772219Y-118961866D01*
X192790632Y-118950830D01*
X192810038Y-118941651D01*
X192830250Y-118934419D01*
X192851074Y-118929203D01*
X192872309Y-118926053D01*
X192893750Y-118925000D01*
X193331250Y-118925000D01*
X193352691Y-118926053D01*
X193352691Y-118926053D01*
G37*
D12*
X193112500Y-119400000D03*
D11*
G36*
X194927691Y-118926053D02*
G01*
X194948926Y-118929203D01*
X194969750Y-118934419D01*
X194989962Y-118941651D01*
X195009368Y-118950830D01*
X195027781Y-118961866D01*
X195045024Y-118974654D01*
X195060930Y-118989070D01*
X195075346Y-119004976D01*
X195088134Y-119022219D01*
X195099170Y-119040632D01*
X195108349Y-119060038D01*
X195115581Y-119080250D01*
X195120797Y-119101074D01*
X195123947Y-119122309D01*
X195125000Y-119143750D01*
X195125000Y-119656250D01*
X195123947Y-119677691D01*
X195120797Y-119698926D01*
X195115581Y-119719750D01*
X195108349Y-119739962D01*
X195099170Y-119759368D01*
X195088134Y-119777781D01*
X195075346Y-119795024D01*
X195060930Y-119810930D01*
X195045024Y-119825346D01*
X195027781Y-119838134D01*
X195009368Y-119849170D01*
X194989962Y-119858349D01*
X194969750Y-119865581D01*
X194948926Y-119870797D01*
X194927691Y-119873947D01*
X194906250Y-119875000D01*
X194468750Y-119875000D01*
X194447309Y-119873947D01*
X194426074Y-119870797D01*
X194405250Y-119865581D01*
X194385038Y-119858349D01*
X194365632Y-119849170D01*
X194347219Y-119838134D01*
X194329976Y-119825346D01*
X194314070Y-119810930D01*
X194299654Y-119795024D01*
X194286866Y-119777781D01*
X194275830Y-119759368D01*
X194266651Y-119739962D01*
X194259419Y-119719750D01*
X194254203Y-119698926D01*
X194251053Y-119677691D01*
X194250000Y-119656250D01*
X194250000Y-119143750D01*
X194251053Y-119122309D01*
X194254203Y-119101074D01*
X194259419Y-119080250D01*
X194266651Y-119060038D01*
X194275830Y-119040632D01*
X194286866Y-119022219D01*
X194299654Y-119004976D01*
X194314070Y-118989070D01*
X194329976Y-118974654D01*
X194347219Y-118961866D01*
X194365632Y-118950830D01*
X194385038Y-118941651D01*
X194405250Y-118934419D01*
X194426074Y-118929203D01*
X194447309Y-118926053D01*
X194468750Y-118925000D01*
X194906250Y-118925000D01*
X194927691Y-118926053D01*
X194927691Y-118926053D01*
G37*
D12*
X194687500Y-119400000D03*
D11*
G36*
X191627691Y-118926053D02*
G01*
X191648926Y-118929203D01*
X191669750Y-118934419D01*
X191689962Y-118941651D01*
X191709368Y-118950830D01*
X191727781Y-118961866D01*
X191745024Y-118974654D01*
X191760930Y-118989070D01*
X191775346Y-119004976D01*
X191788134Y-119022219D01*
X191799170Y-119040632D01*
X191808349Y-119060038D01*
X191815581Y-119080250D01*
X191820797Y-119101074D01*
X191823947Y-119122309D01*
X191825000Y-119143750D01*
X191825000Y-119656250D01*
X191823947Y-119677691D01*
X191820797Y-119698926D01*
X191815581Y-119719750D01*
X191808349Y-119739962D01*
X191799170Y-119759368D01*
X191788134Y-119777781D01*
X191775346Y-119795024D01*
X191760930Y-119810930D01*
X191745024Y-119825346D01*
X191727781Y-119838134D01*
X191709368Y-119849170D01*
X191689962Y-119858349D01*
X191669750Y-119865581D01*
X191648926Y-119870797D01*
X191627691Y-119873947D01*
X191606250Y-119875000D01*
X191168750Y-119875000D01*
X191147309Y-119873947D01*
X191126074Y-119870797D01*
X191105250Y-119865581D01*
X191085038Y-119858349D01*
X191065632Y-119849170D01*
X191047219Y-119838134D01*
X191029976Y-119825346D01*
X191014070Y-119810930D01*
X190999654Y-119795024D01*
X190986866Y-119777781D01*
X190975830Y-119759368D01*
X190966651Y-119739962D01*
X190959419Y-119719750D01*
X190954203Y-119698926D01*
X190951053Y-119677691D01*
X190950000Y-119656250D01*
X190950000Y-119143750D01*
X190951053Y-119122309D01*
X190954203Y-119101074D01*
X190959419Y-119080250D01*
X190966651Y-119060038D01*
X190975830Y-119040632D01*
X190986866Y-119022219D01*
X190999654Y-119004976D01*
X191014070Y-118989070D01*
X191029976Y-118974654D01*
X191047219Y-118961866D01*
X191065632Y-118950830D01*
X191085038Y-118941651D01*
X191105250Y-118934419D01*
X191126074Y-118929203D01*
X191147309Y-118926053D01*
X191168750Y-118925000D01*
X191606250Y-118925000D01*
X191627691Y-118926053D01*
X191627691Y-118926053D01*
G37*
D12*
X191387500Y-119400000D03*
D11*
G36*
X190052691Y-118926053D02*
G01*
X190073926Y-118929203D01*
X190094750Y-118934419D01*
X190114962Y-118941651D01*
X190134368Y-118950830D01*
X190152781Y-118961866D01*
X190170024Y-118974654D01*
X190185930Y-118989070D01*
X190200346Y-119004976D01*
X190213134Y-119022219D01*
X190224170Y-119040632D01*
X190233349Y-119060038D01*
X190240581Y-119080250D01*
X190245797Y-119101074D01*
X190248947Y-119122309D01*
X190250000Y-119143750D01*
X190250000Y-119656250D01*
X190248947Y-119677691D01*
X190245797Y-119698926D01*
X190240581Y-119719750D01*
X190233349Y-119739962D01*
X190224170Y-119759368D01*
X190213134Y-119777781D01*
X190200346Y-119795024D01*
X190185930Y-119810930D01*
X190170024Y-119825346D01*
X190152781Y-119838134D01*
X190134368Y-119849170D01*
X190114962Y-119858349D01*
X190094750Y-119865581D01*
X190073926Y-119870797D01*
X190052691Y-119873947D01*
X190031250Y-119875000D01*
X189593750Y-119875000D01*
X189572309Y-119873947D01*
X189551074Y-119870797D01*
X189530250Y-119865581D01*
X189510038Y-119858349D01*
X189490632Y-119849170D01*
X189472219Y-119838134D01*
X189454976Y-119825346D01*
X189439070Y-119810930D01*
X189424654Y-119795024D01*
X189411866Y-119777781D01*
X189400830Y-119759368D01*
X189391651Y-119739962D01*
X189384419Y-119719750D01*
X189379203Y-119698926D01*
X189376053Y-119677691D01*
X189375000Y-119656250D01*
X189375000Y-119143750D01*
X189376053Y-119122309D01*
X189379203Y-119101074D01*
X189384419Y-119080250D01*
X189391651Y-119060038D01*
X189400830Y-119040632D01*
X189411866Y-119022219D01*
X189424654Y-119004976D01*
X189439070Y-118989070D01*
X189454976Y-118974654D01*
X189472219Y-118961866D01*
X189490632Y-118950830D01*
X189510038Y-118941651D01*
X189530250Y-118934419D01*
X189551074Y-118929203D01*
X189572309Y-118926053D01*
X189593750Y-118925000D01*
X190031250Y-118925000D01*
X190052691Y-118926053D01*
X190052691Y-118926053D01*
G37*
D12*
X189812500Y-119400000D03*
D11*
G36*
X184652691Y-119526053D02*
G01*
X184673926Y-119529203D01*
X184694750Y-119534419D01*
X184714962Y-119541651D01*
X184734368Y-119550830D01*
X184752781Y-119561866D01*
X184770024Y-119574654D01*
X184785930Y-119589070D01*
X184800346Y-119604976D01*
X184813134Y-119622219D01*
X184824170Y-119640632D01*
X184833349Y-119660038D01*
X184840581Y-119680250D01*
X184845797Y-119701074D01*
X184848947Y-119722309D01*
X184850000Y-119743750D01*
X184850000Y-120256250D01*
X184848947Y-120277691D01*
X184845797Y-120298926D01*
X184840581Y-120319750D01*
X184833349Y-120339962D01*
X184824170Y-120359368D01*
X184813134Y-120377781D01*
X184800346Y-120395024D01*
X184785930Y-120410930D01*
X184770024Y-120425346D01*
X184752781Y-120438134D01*
X184734368Y-120449170D01*
X184714962Y-120458349D01*
X184694750Y-120465581D01*
X184673926Y-120470797D01*
X184652691Y-120473947D01*
X184631250Y-120475000D01*
X184193750Y-120475000D01*
X184172309Y-120473947D01*
X184151074Y-120470797D01*
X184130250Y-120465581D01*
X184110038Y-120458349D01*
X184090632Y-120449170D01*
X184072219Y-120438134D01*
X184054976Y-120425346D01*
X184039070Y-120410930D01*
X184024654Y-120395024D01*
X184011866Y-120377781D01*
X184000830Y-120359368D01*
X183991651Y-120339962D01*
X183984419Y-120319750D01*
X183979203Y-120298926D01*
X183976053Y-120277691D01*
X183975000Y-120256250D01*
X183975000Y-119743750D01*
X183976053Y-119722309D01*
X183979203Y-119701074D01*
X183984419Y-119680250D01*
X183991651Y-119660038D01*
X184000830Y-119640632D01*
X184011866Y-119622219D01*
X184024654Y-119604976D01*
X184039070Y-119589070D01*
X184054976Y-119574654D01*
X184072219Y-119561866D01*
X184090632Y-119550830D01*
X184110038Y-119541651D01*
X184130250Y-119534419D01*
X184151074Y-119529203D01*
X184172309Y-119526053D01*
X184193750Y-119525000D01*
X184631250Y-119525000D01*
X184652691Y-119526053D01*
X184652691Y-119526053D01*
G37*
D12*
X184412500Y-120000000D03*
D11*
G36*
X186227691Y-119526053D02*
G01*
X186248926Y-119529203D01*
X186269750Y-119534419D01*
X186289962Y-119541651D01*
X186309368Y-119550830D01*
X186327781Y-119561866D01*
X186345024Y-119574654D01*
X186360930Y-119589070D01*
X186375346Y-119604976D01*
X186388134Y-119622219D01*
X186399170Y-119640632D01*
X186408349Y-119660038D01*
X186415581Y-119680250D01*
X186420797Y-119701074D01*
X186423947Y-119722309D01*
X186425000Y-119743750D01*
X186425000Y-120256250D01*
X186423947Y-120277691D01*
X186420797Y-120298926D01*
X186415581Y-120319750D01*
X186408349Y-120339962D01*
X186399170Y-120359368D01*
X186388134Y-120377781D01*
X186375346Y-120395024D01*
X186360930Y-120410930D01*
X186345024Y-120425346D01*
X186327781Y-120438134D01*
X186309368Y-120449170D01*
X186289962Y-120458349D01*
X186269750Y-120465581D01*
X186248926Y-120470797D01*
X186227691Y-120473947D01*
X186206250Y-120475000D01*
X185768750Y-120475000D01*
X185747309Y-120473947D01*
X185726074Y-120470797D01*
X185705250Y-120465581D01*
X185685038Y-120458349D01*
X185665632Y-120449170D01*
X185647219Y-120438134D01*
X185629976Y-120425346D01*
X185614070Y-120410930D01*
X185599654Y-120395024D01*
X185586866Y-120377781D01*
X185575830Y-120359368D01*
X185566651Y-120339962D01*
X185559419Y-120319750D01*
X185554203Y-120298926D01*
X185551053Y-120277691D01*
X185550000Y-120256250D01*
X185550000Y-119743750D01*
X185551053Y-119722309D01*
X185554203Y-119701074D01*
X185559419Y-119680250D01*
X185566651Y-119660038D01*
X185575830Y-119640632D01*
X185586866Y-119622219D01*
X185599654Y-119604976D01*
X185614070Y-119589070D01*
X185629976Y-119574654D01*
X185647219Y-119561866D01*
X185665632Y-119550830D01*
X185685038Y-119541651D01*
X185705250Y-119534419D01*
X185726074Y-119529203D01*
X185747309Y-119526053D01*
X185768750Y-119525000D01*
X186206250Y-119525000D01*
X186227691Y-119526053D01*
X186227691Y-119526053D01*
G37*
D12*
X185987500Y-120000000D03*
D11*
G36*
X206227691Y-120626053D02*
G01*
X206248926Y-120629203D01*
X206269750Y-120634419D01*
X206289962Y-120641651D01*
X206309368Y-120650830D01*
X206327781Y-120661866D01*
X206345024Y-120674654D01*
X206360930Y-120689070D01*
X206375346Y-120704976D01*
X206388134Y-120722219D01*
X206399170Y-120740632D01*
X206408349Y-120760038D01*
X206415581Y-120780250D01*
X206420797Y-120801074D01*
X206423947Y-120822309D01*
X206425000Y-120843750D01*
X206425000Y-121356250D01*
X206423947Y-121377691D01*
X206420797Y-121398926D01*
X206415581Y-121419750D01*
X206408349Y-121439962D01*
X206399170Y-121459368D01*
X206388134Y-121477781D01*
X206375346Y-121495024D01*
X206360930Y-121510930D01*
X206345024Y-121525346D01*
X206327781Y-121538134D01*
X206309368Y-121549170D01*
X206289962Y-121558349D01*
X206269750Y-121565581D01*
X206248926Y-121570797D01*
X206227691Y-121573947D01*
X206206250Y-121575000D01*
X205768750Y-121575000D01*
X205747309Y-121573947D01*
X205726074Y-121570797D01*
X205705250Y-121565581D01*
X205685038Y-121558349D01*
X205665632Y-121549170D01*
X205647219Y-121538134D01*
X205629976Y-121525346D01*
X205614070Y-121510930D01*
X205599654Y-121495024D01*
X205586866Y-121477781D01*
X205575830Y-121459368D01*
X205566651Y-121439962D01*
X205559419Y-121419750D01*
X205554203Y-121398926D01*
X205551053Y-121377691D01*
X205550000Y-121356250D01*
X205550000Y-120843750D01*
X205551053Y-120822309D01*
X205554203Y-120801074D01*
X205559419Y-120780250D01*
X205566651Y-120760038D01*
X205575830Y-120740632D01*
X205586866Y-120722219D01*
X205599654Y-120704976D01*
X205614070Y-120689070D01*
X205629976Y-120674654D01*
X205647219Y-120661866D01*
X205665632Y-120650830D01*
X205685038Y-120641651D01*
X205705250Y-120634419D01*
X205726074Y-120629203D01*
X205747309Y-120626053D01*
X205768750Y-120625000D01*
X206206250Y-120625000D01*
X206227691Y-120626053D01*
X206227691Y-120626053D01*
G37*
D12*
X205987500Y-121100000D03*
D11*
G36*
X204652691Y-120626053D02*
G01*
X204673926Y-120629203D01*
X204694750Y-120634419D01*
X204714962Y-120641651D01*
X204734368Y-120650830D01*
X204752781Y-120661866D01*
X204770024Y-120674654D01*
X204785930Y-120689070D01*
X204800346Y-120704976D01*
X204813134Y-120722219D01*
X204824170Y-120740632D01*
X204833349Y-120760038D01*
X204840581Y-120780250D01*
X204845797Y-120801074D01*
X204848947Y-120822309D01*
X204850000Y-120843750D01*
X204850000Y-121356250D01*
X204848947Y-121377691D01*
X204845797Y-121398926D01*
X204840581Y-121419750D01*
X204833349Y-121439962D01*
X204824170Y-121459368D01*
X204813134Y-121477781D01*
X204800346Y-121495024D01*
X204785930Y-121510930D01*
X204770024Y-121525346D01*
X204752781Y-121538134D01*
X204734368Y-121549170D01*
X204714962Y-121558349D01*
X204694750Y-121565581D01*
X204673926Y-121570797D01*
X204652691Y-121573947D01*
X204631250Y-121575000D01*
X204193750Y-121575000D01*
X204172309Y-121573947D01*
X204151074Y-121570797D01*
X204130250Y-121565581D01*
X204110038Y-121558349D01*
X204090632Y-121549170D01*
X204072219Y-121538134D01*
X204054976Y-121525346D01*
X204039070Y-121510930D01*
X204024654Y-121495024D01*
X204011866Y-121477781D01*
X204000830Y-121459368D01*
X203991651Y-121439962D01*
X203984419Y-121419750D01*
X203979203Y-121398926D01*
X203976053Y-121377691D01*
X203975000Y-121356250D01*
X203975000Y-120843750D01*
X203976053Y-120822309D01*
X203979203Y-120801074D01*
X203984419Y-120780250D01*
X203991651Y-120760038D01*
X204000830Y-120740632D01*
X204011866Y-120722219D01*
X204024654Y-120704976D01*
X204039070Y-120689070D01*
X204054976Y-120674654D01*
X204072219Y-120661866D01*
X204090632Y-120650830D01*
X204110038Y-120641651D01*
X204130250Y-120634419D01*
X204151074Y-120629203D01*
X204172309Y-120626053D01*
X204193750Y-120625000D01*
X204631250Y-120625000D01*
X204652691Y-120626053D01*
X204652691Y-120626053D01*
G37*
D12*
X204412500Y-121100000D03*
D11*
G36*
X201352691Y-120626053D02*
G01*
X201373926Y-120629203D01*
X201394750Y-120634419D01*
X201414962Y-120641651D01*
X201434368Y-120650830D01*
X201452781Y-120661866D01*
X201470024Y-120674654D01*
X201485930Y-120689070D01*
X201500346Y-120704976D01*
X201513134Y-120722219D01*
X201524170Y-120740632D01*
X201533349Y-120760038D01*
X201540581Y-120780250D01*
X201545797Y-120801074D01*
X201548947Y-120822309D01*
X201550000Y-120843750D01*
X201550000Y-121356250D01*
X201548947Y-121377691D01*
X201545797Y-121398926D01*
X201540581Y-121419750D01*
X201533349Y-121439962D01*
X201524170Y-121459368D01*
X201513134Y-121477781D01*
X201500346Y-121495024D01*
X201485930Y-121510930D01*
X201470024Y-121525346D01*
X201452781Y-121538134D01*
X201434368Y-121549170D01*
X201414962Y-121558349D01*
X201394750Y-121565581D01*
X201373926Y-121570797D01*
X201352691Y-121573947D01*
X201331250Y-121575000D01*
X200893750Y-121575000D01*
X200872309Y-121573947D01*
X200851074Y-121570797D01*
X200830250Y-121565581D01*
X200810038Y-121558349D01*
X200790632Y-121549170D01*
X200772219Y-121538134D01*
X200754976Y-121525346D01*
X200739070Y-121510930D01*
X200724654Y-121495024D01*
X200711866Y-121477781D01*
X200700830Y-121459368D01*
X200691651Y-121439962D01*
X200684419Y-121419750D01*
X200679203Y-121398926D01*
X200676053Y-121377691D01*
X200675000Y-121356250D01*
X200675000Y-120843750D01*
X200676053Y-120822309D01*
X200679203Y-120801074D01*
X200684419Y-120780250D01*
X200691651Y-120760038D01*
X200700830Y-120740632D01*
X200711866Y-120722219D01*
X200724654Y-120704976D01*
X200739070Y-120689070D01*
X200754976Y-120674654D01*
X200772219Y-120661866D01*
X200790632Y-120650830D01*
X200810038Y-120641651D01*
X200830250Y-120634419D01*
X200851074Y-120629203D01*
X200872309Y-120626053D01*
X200893750Y-120625000D01*
X201331250Y-120625000D01*
X201352691Y-120626053D01*
X201352691Y-120626053D01*
G37*
D12*
X201112500Y-121100000D03*
D11*
G36*
X202927691Y-120626053D02*
G01*
X202948926Y-120629203D01*
X202969750Y-120634419D01*
X202989962Y-120641651D01*
X203009368Y-120650830D01*
X203027781Y-120661866D01*
X203045024Y-120674654D01*
X203060930Y-120689070D01*
X203075346Y-120704976D01*
X203088134Y-120722219D01*
X203099170Y-120740632D01*
X203108349Y-120760038D01*
X203115581Y-120780250D01*
X203120797Y-120801074D01*
X203123947Y-120822309D01*
X203125000Y-120843750D01*
X203125000Y-121356250D01*
X203123947Y-121377691D01*
X203120797Y-121398926D01*
X203115581Y-121419750D01*
X203108349Y-121439962D01*
X203099170Y-121459368D01*
X203088134Y-121477781D01*
X203075346Y-121495024D01*
X203060930Y-121510930D01*
X203045024Y-121525346D01*
X203027781Y-121538134D01*
X203009368Y-121549170D01*
X202989962Y-121558349D01*
X202969750Y-121565581D01*
X202948926Y-121570797D01*
X202927691Y-121573947D01*
X202906250Y-121575000D01*
X202468750Y-121575000D01*
X202447309Y-121573947D01*
X202426074Y-121570797D01*
X202405250Y-121565581D01*
X202385038Y-121558349D01*
X202365632Y-121549170D01*
X202347219Y-121538134D01*
X202329976Y-121525346D01*
X202314070Y-121510930D01*
X202299654Y-121495024D01*
X202286866Y-121477781D01*
X202275830Y-121459368D01*
X202266651Y-121439962D01*
X202259419Y-121419750D01*
X202254203Y-121398926D01*
X202251053Y-121377691D01*
X202250000Y-121356250D01*
X202250000Y-120843750D01*
X202251053Y-120822309D01*
X202254203Y-120801074D01*
X202259419Y-120780250D01*
X202266651Y-120760038D01*
X202275830Y-120740632D01*
X202286866Y-120722219D01*
X202299654Y-120704976D01*
X202314070Y-120689070D01*
X202329976Y-120674654D01*
X202347219Y-120661866D01*
X202365632Y-120650830D01*
X202385038Y-120641651D01*
X202405250Y-120634419D01*
X202426074Y-120629203D01*
X202447309Y-120626053D01*
X202468750Y-120625000D01*
X202906250Y-120625000D01*
X202927691Y-120626053D01*
X202927691Y-120626053D01*
G37*
D12*
X202687500Y-121100000D03*
D11*
G36*
X200227691Y-116426053D02*
G01*
X200248926Y-116429203D01*
X200269750Y-116434419D01*
X200289962Y-116441651D01*
X200309368Y-116450830D01*
X200327781Y-116461866D01*
X200345024Y-116474654D01*
X200360930Y-116489070D01*
X200375346Y-116504976D01*
X200388134Y-116522219D01*
X200399170Y-116540632D01*
X200408349Y-116560038D01*
X200415581Y-116580250D01*
X200420797Y-116601074D01*
X200423947Y-116622309D01*
X200425000Y-116643750D01*
X200425000Y-117156250D01*
X200423947Y-117177691D01*
X200420797Y-117198926D01*
X200415581Y-117219750D01*
X200408349Y-117239962D01*
X200399170Y-117259368D01*
X200388134Y-117277781D01*
X200375346Y-117295024D01*
X200360930Y-117310930D01*
X200345024Y-117325346D01*
X200327781Y-117338134D01*
X200309368Y-117349170D01*
X200289962Y-117358349D01*
X200269750Y-117365581D01*
X200248926Y-117370797D01*
X200227691Y-117373947D01*
X200206250Y-117375000D01*
X199768750Y-117375000D01*
X199747309Y-117373947D01*
X199726074Y-117370797D01*
X199705250Y-117365581D01*
X199685038Y-117358349D01*
X199665632Y-117349170D01*
X199647219Y-117338134D01*
X199629976Y-117325346D01*
X199614070Y-117310930D01*
X199599654Y-117295024D01*
X199586866Y-117277781D01*
X199575830Y-117259368D01*
X199566651Y-117239962D01*
X199559419Y-117219750D01*
X199554203Y-117198926D01*
X199551053Y-117177691D01*
X199550000Y-117156250D01*
X199550000Y-116643750D01*
X199551053Y-116622309D01*
X199554203Y-116601074D01*
X199559419Y-116580250D01*
X199566651Y-116560038D01*
X199575830Y-116540632D01*
X199586866Y-116522219D01*
X199599654Y-116504976D01*
X199614070Y-116489070D01*
X199629976Y-116474654D01*
X199647219Y-116461866D01*
X199665632Y-116450830D01*
X199685038Y-116441651D01*
X199705250Y-116434419D01*
X199726074Y-116429203D01*
X199747309Y-116426053D01*
X199768750Y-116425000D01*
X200206250Y-116425000D01*
X200227691Y-116426053D01*
X200227691Y-116426053D01*
G37*
D12*
X199987500Y-116900000D03*
D11*
G36*
X198652691Y-116426053D02*
G01*
X198673926Y-116429203D01*
X198694750Y-116434419D01*
X198714962Y-116441651D01*
X198734368Y-116450830D01*
X198752781Y-116461866D01*
X198770024Y-116474654D01*
X198785930Y-116489070D01*
X198800346Y-116504976D01*
X198813134Y-116522219D01*
X198824170Y-116540632D01*
X198833349Y-116560038D01*
X198840581Y-116580250D01*
X198845797Y-116601074D01*
X198848947Y-116622309D01*
X198850000Y-116643750D01*
X198850000Y-117156250D01*
X198848947Y-117177691D01*
X198845797Y-117198926D01*
X198840581Y-117219750D01*
X198833349Y-117239962D01*
X198824170Y-117259368D01*
X198813134Y-117277781D01*
X198800346Y-117295024D01*
X198785930Y-117310930D01*
X198770024Y-117325346D01*
X198752781Y-117338134D01*
X198734368Y-117349170D01*
X198714962Y-117358349D01*
X198694750Y-117365581D01*
X198673926Y-117370797D01*
X198652691Y-117373947D01*
X198631250Y-117375000D01*
X198193750Y-117375000D01*
X198172309Y-117373947D01*
X198151074Y-117370797D01*
X198130250Y-117365581D01*
X198110038Y-117358349D01*
X198090632Y-117349170D01*
X198072219Y-117338134D01*
X198054976Y-117325346D01*
X198039070Y-117310930D01*
X198024654Y-117295024D01*
X198011866Y-117277781D01*
X198000830Y-117259368D01*
X197991651Y-117239962D01*
X197984419Y-117219750D01*
X197979203Y-117198926D01*
X197976053Y-117177691D01*
X197975000Y-117156250D01*
X197975000Y-116643750D01*
X197976053Y-116622309D01*
X197979203Y-116601074D01*
X197984419Y-116580250D01*
X197991651Y-116560038D01*
X198000830Y-116540632D01*
X198011866Y-116522219D01*
X198024654Y-116504976D01*
X198039070Y-116489070D01*
X198054976Y-116474654D01*
X198072219Y-116461866D01*
X198090632Y-116450830D01*
X198110038Y-116441651D01*
X198130250Y-116434419D01*
X198151074Y-116429203D01*
X198172309Y-116426053D01*
X198193750Y-116425000D01*
X198631250Y-116425000D01*
X198652691Y-116426053D01*
X198652691Y-116426053D01*
G37*
D12*
X198412500Y-116900000D03*
D11*
G36*
X201752691Y-102526053D02*
G01*
X201773926Y-102529203D01*
X201794750Y-102534419D01*
X201814962Y-102541651D01*
X201834368Y-102550830D01*
X201852781Y-102561866D01*
X201870024Y-102574654D01*
X201885930Y-102589070D01*
X201900346Y-102604976D01*
X201913134Y-102622219D01*
X201924170Y-102640632D01*
X201933349Y-102660038D01*
X201940581Y-102680250D01*
X201945797Y-102701074D01*
X201948947Y-102722309D01*
X201950000Y-102743750D01*
X201950000Y-103256250D01*
X201948947Y-103277691D01*
X201945797Y-103298926D01*
X201940581Y-103319750D01*
X201933349Y-103339962D01*
X201924170Y-103359368D01*
X201913134Y-103377781D01*
X201900346Y-103395024D01*
X201885930Y-103410930D01*
X201870024Y-103425346D01*
X201852781Y-103438134D01*
X201834368Y-103449170D01*
X201814962Y-103458349D01*
X201794750Y-103465581D01*
X201773926Y-103470797D01*
X201752691Y-103473947D01*
X201731250Y-103475000D01*
X201293750Y-103475000D01*
X201272309Y-103473947D01*
X201251074Y-103470797D01*
X201230250Y-103465581D01*
X201210038Y-103458349D01*
X201190632Y-103449170D01*
X201172219Y-103438134D01*
X201154976Y-103425346D01*
X201139070Y-103410930D01*
X201124654Y-103395024D01*
X201111866Y-103377781D01*
X201100830Y-103359368D01*
X201091651Y-103339962D01*
X201084419Y-103319750D01*
X201079203Y-103298926D01*
X201076053Y-103277691D01*
X201075000Y-103256250D01*
X201075000Y-102743750D01*
X201076053Y-102722309D01*
X201079203Y-102701074D01*
X201084419Y-102680250D01*
X201091651Y-102660038D01*
X201100830Y-102640632D01*
X201111866Y-102622219D01*
X201124654Y-102604976D01*
X201139070Y-102589070D01*
X201154976Y-102574654D01*
X201172219Y-102561866D01*
X201190632Y-102550830D01*
X201210038Y-102541651D01*
X201230250Y-102534419D01*
X201251074Y-102529203D01*
X201272309Y-102526053D01*
X201293750Y-102525000D01*
X201731250Y-102525000D01*
X201752691Y-102526053D01*
X201752691Y-102526053D01*
G37*
D12*
X201512500Y-103000000D03*
D11*
G36*
X203327691Y-102526053D02*
G01*
X203348926Y-102529203D01*
X203369750Y-102534419D01*
X203389962Y-102541651D01*
X203409368Y-102550830D01*
X203427781Y-102561866D01*
X203445024Y-102574654D01*
X203460930Y-102589070D01*
X203475346Y-102604976D01*
X203488134Y-102622219D01*
X203499170Y-102640632D01*
X203508349Y-102660038D01*
X203515581Y-102680250D01*
X203520797Y-102701074D01*
X203523947Y-102722309D01*
X203525000Y-102743750D01*
X203525000Y-103256250D01*
X203523947Y-103277691D01*
X203520797Y-103298926D01*
X203515581Y-103319750D01*
X203508349Y-103339962D01*
X203499170Y-103359368D01*
X203488134Y-103377781D01*
X203475346Y-103395024D01*
X203460930Y-103410930D01*
X203445024Y-103425346D01*
X203427781Y-103438134D01*
X203409368Y-103449170D01*
X203389962Y-103458349D01*
X203369750Y-103465581D01*
X203348926Y-103470797D01*
X203327691Y-103473947D01*
X203306250Y-103475000D01*
X202868750Y-103475000D01*
X202847309Y-103473947D01*
X202826074Y-103470797D01*
X202805250Y-103465581D01*
X202785038Y-103458349D01*
X202765632Y-103449170D01*
X202747219Y-103438134D01*
X202729976Y-103425346D01*
X202714070Y-103410930D01*
X202699654Y-103395024D01*
X202686866Y-103377781D01*
X202675830Y-103359368D01*
X202666651Y-103339962D01*
X202659419Y-103319750D01*
X202654203Y-103298926D01*
X202651053Y-103277691D01*
X202650000Y-103256250D01*
X202650000Y-102743750D01*
X202651053Y-102722309D01*
X202654203Y-102701074D01*
X202659419Y-102680250D01*
X202666651Y-102660038D01*
X202675830Y-102640632D01*
X202686866Y-102622219D01*
X202699654Y-102604976D01*
X202714070Y-102589070D01*
X202729976Y-102574654D01*
X202747219Y-102561866D01*
X202765632Y-102550830D01*
X202785038Y-102541651D01*
X202805250Y-102534419D01*
X202826074Y-102529203D01*
X202847309Y-102526053D01*
X202868750Y-102525000D01*
X203306250Y-102525000D01*
X203327691Y-102526053D01*
X203327691Y-102526053D01*
G37*
D12*
X203087500Y-103000000D03*
D11*
G36*
X184652691Y-100626053D02*
G01*
X184673926Y-100629203D01*
X184694750Y-100634419D01*
X184714962Y-100641651D01*
X184734368Y-100650830D01*
X184752781Y-100661866D01*
X184770024Y-100674654D01*
X184785930Y-100689070D01*
X184800346Y-100704976D01*
X184813134Y-100722219D01*
X184824170Y-100740632D01*
X184833349Y-100760038D01*
X184840581Y-100780250D01*
X184845797Y-100801074D01*
X184848947Y-100822309D01*
X184850000Y-100843750D01*
X184850000Y-101356250D01*
X184848947Y-101377691D01*
X184845797Y-101398926D01*
X184840581Y-101419750D01*
X184833349Y-101439962D01*
X184824170Y-101459368D01*
X184813134Y-101477781D01*
X184800346Y-101495024D01*
X184785930Y-101510930D01*
X184770024Y-101525346D01*
X184752781Y-101538134D01*
X184734368Y-101549170D01*
X184714962Y-101558349D01*
X184694750Y-101565581D01*
X184673926Y-101570797D01*
X184652691Y-101573947D01*
X184631250Y-101575000D01*
X184193750Y-101575000D01*
X184172309Y-101573947D01*
X184151074Y-101570797D01*
X184130250Y-101565581D01*
X184110038Y-101558349D01*
X184090632Y-101549170D01*
X184072219Y-101538134D01*
X184054976Y-101525346D01*
X184039070Y-101510930D01*
X184024654Y-101495024D01*
X184011866Y-101477781D01*
X184000830Y-101459368D01*
X183991651Y-101439962D01*
X183984419Y-101419750D01*
X183979203Y-101398926D01*
X183976053Y-101377691D01*
X183975000Y-101356250D01*
X183975000Y-100843750D01*
X183976053Y-100822309D01*
X183979203Y-100801074D01*
X183984419Y-100780250D01*
X183991651Y-100760038D01*
X184000830Y-100740632D01*
X184011866Y-100722219D01*
X184024654Y-100704976D01*
X184039070Y-100689070D01*
X184054976Y-100674654D01*
X184072219Y-100661866D01*
X184090632Y-100650830D01*
X184110038Y-100641651D01*
X184130250Y-100634419D01*
X184151074Y-100629203D01*
X184172309Y-100626053D01*
X184193750Y-100625000D01*
X184631250Y-100625000D01*
X184652691Y-100626053D01*
X184652691Y-100626053D01*
G37*
D12*
X184412500Y-101100000D03*
D11*
G36*
X186227691Y-100626053D02*
G01*
X186248926Y-100629203D01*
X186269750Y-100634419D01*
X186289962Y-100641651D01*
X186309368Y-100650830D01*
X186327781Y-100661866D01*
X186345024Y-100674654D01*
X186360930Y-100689070D01*
X186375346Y-100704976D01*
X186388134Y-100722219D01*
X186399170Y-100740632D01*
X186408349Y-100760038D01*
X186415581Y-100780250D01*
X186420797Y-100801074D01*
X186423947Y-100822309D01*
X186425000Y-100843750D01*
X186425000Y-101356250D01*
X186423947Y-101377691D01*
X186420797Y-101398926D01*
X186415581Y-101419750D01*
X186408349Y-101439962D01*
X186399170Y-101459368D01*
X186388134Y-101477781D01*
X186375346Y-101495024D01*
X186360930Y-101510930D01*
X186345024Y-101525346D01*
X186327781Y-101538134D01*
X186309368Y-101549170D01*
X186289962Y-101558349D01*
X186269750Y-101565581D01*
X186248926Y-101570797D01*
X186227691Y-101573947D01*
X186206250Y-101575000D01*
X185768750Y-101575000D01*
X185747309Y-101573947D01*
X185726074Y-101570797D01*
X185705250Y-101565581D01*
X185685038Y-101558349D01*
X185665632Y-101549170D01*
X185647219Y-101538134D01*
X185629976Y-101525346D01*
X185614070Y-101510930D01*
X185599654Y-101495024D01*
X185586866Y-101477781D01*
X185575830Y-101459368D01*
X185566651Y-101439962D01*
X185559419Y-101419750D01*
X185554203Y-101398926D01*
X185551053Y-101377691D01*
X185550000Y-101356250D01*
X185550000Y-100843750D01*
X185551053Y-100822309D01*
X185554203Y-100801074D01*
X185559419Y-100780250D01*
X185566651Y-100760038D01*
X185575830Y-100740632D01*
X185586866Y-100722219D01*
X185599654Y-100704976D01*
X185614070Y-100689070D01*
X185629976Y-100674654D01*
X185647219Y-100661866D01*
X185665632Y-100650830D01*
X185685038Y-100641651D01*
X185705250Y-100634419D01*
X185726074Y-100629203D01*
X185747309Y-100626053D01*
X185768750Y-100625000D01*
X186206250Y-100625000D01*
X186227691Y-100626053D01*
X186227691Y-100626053D01*
G37*
D12*
X185987500Y-101100000D03*
D14*
X190050000Y-113000000D03*
X191000000Y-113000000D03*
X191950000Y-113000000D03*
X191950000Y-110800000D03*
X190050000Y-110800000D03*
D15*
X198050000Y-102800000D03*
X189550000Y-102800000D03*
D16*
X204200000Y-116900000D03*
X208200000Y-101400000D03*
X208200000Y-104600000D03*
D17*
X194025000Y-114950000D03*
X194675000Y-114950000D03*
X195325000Y-114950000D03*
X195975000Y-114950000D03*
X196625000Y-114950000D03*
X197275000Y-114950000D03*
X197925000Y-114950000D03*
X198575000Y-114950000D03*
X198575000Y-109050000D03*
X197925000Y-109050000D03*
X197275000Y-109050000D03*
X196625000Y-109050000D03*
X195975000Y-109050000D03*
X195325000Y-109050000D03*
X194675000Y-109050000D03*
X194025000Y-109050000D03*
D18*
X199464200Y-109735100D03*
X200143100Y-120130600D03*
X207000000Y-113000000D03*
X189300000Y-117500000D03*
X199300000Y-106200000D03*
X193000000Y-115000000D03*
X196300000Y-116386500D03*
X196132500Y-121590600D03*
X203643200Y-118505600D03*
X201143000Y-101923900D03*
X195740400Y-110458300D03*
X200447000Y-109235600D03*
X199436300Y-108170800D03*
D19*
X198575000Y-114950000D02*
X198575000Y-113824700D01*
X194025000Y-114950000D02*
X194025000Y-113824700D01*
X194025000Y-113824700D02*
X198575000Y-113824700D01*
X194025000Y-115375000D02*
X194025000Y-114950000D01*
X194025000Y-115375000D02*
X194025000Y-116075300D01*
X194025000Y-116075300D02*
X193287500Y-116812800D01*
X193287500Y-116812800D02*
X193287500Y-117000000D01*
X199987500Y-116317700D02*
X199942700Y-116317700D01*
X199942700Y-116317700D02*
X198575000Y-114950000D01*
X185987500Y-103300000D02*
X185987500Y-102567200D01*
X185987500Y-102567200D02*
X187408000Y-101146700D01*
X187408000Y-101146700D02*
X201492500Y-101146700D01*
X201492500Y-101146700D02*
X203087500Y-102741700D01*
X203087500Y-102741700D02*
X203087500Y-103000000D01*
X190100000Y-108737500D02*
X187963900Y-106601400D01*
X187963900Y-106601400D02*
X184498700Y-106601400D01*
X184498700Y-106601400D02*
X183574900Y-105677600D01*
X183574900Y-105677600D02*
X183574900Y-104675400D01*
X183574900Y-104675400D02*
X184098900Y-104151400D01*
X184098900Y-104151400D02*
X185136100Y-104151400D01*
X185136100Y-104151400D02*
X185987500Y-103300000D01*
X203087500Y-103000000D02*
X204088100Y-104000600D01*
X204088100Y-104000600D02*
X204088100Y-113940100D01*
X204088100Y-113940100D02*
X203748300Y-114279900D01*
X190050000Y-109894700D02*
X190100000Y-109844700D01*
X190100000Y-109844700D02*
X190100000Y-108737500D01*
X205987500Y-121100000D02*
X204533900Y-122553600D01*
X204533900Y-122553600D02*
X198192000Y-122553600D01*
X198192000Y-122553600D02*
X195038400Y-119400000D01*
X195038400Y-119400000D02*
X194687500Y-119400000D01*
X203748300Y-114279900D02*
X206805600Y-117337200D01*
X206805600Y-117337200D02*
X206805600Y-120281900D01*
X206805600Y-120281900D02*
X205987500Y-121100000D01*
X203748300Y-114279900D02*
X201710500Y-116317700D01*
X201710500Y-116317700D02*
X199987500Y-116317700D01*
X199987500Y-116317700D02*
X199987500Y-116900000D01*
X190050000Y-110800000D02*
X190050000Y-109894700D01*
X185200000Y-108000000D02*
X189294700Y-112094700D01*
X189294700Y-112094700D02*
X191000000Y-112094700D01*
X200924700Y-114000000D02*
X200195500Y-113270800D01*
X200195500Y-113270800D02*
X193666700Y-113270800D01*
X193666700Y-113270800D02*
X191937500Y-115000000D01*
X202200000Y-114000000D02*
X200924700Y-114000000D01*
X191712500Y-117000000D02*
X191712500Y-115225000D01*
X191712500Y-115225000D02*
X191937500Y-115000000D01*
X189812500Y-119400000D02*
X189812500Y-118900000D01*
X189812500Y-118900000D02*
X191712500Y-117000000D01*
X203087500Y-104700000D02*
X203481400Y-105093900D01*
X203481400Y-105093900D02*
X203481400Y-112718600D01*
X203481400Y-112718600D02*
X202200000Y-114000000D01*
X190100000Y-106862500D02*
X189288600Y-106051100D01*
X189288600Y-106051100D02*
X185263600Y-106051100D01*
X185263600Y-106051100D02*
X184412500Y-105200000D01*
X192000000Y-107212500D02*
X191650000Y-106862500D01*
X191650000Y-106862500D02*
X190100000Y-106862500D01*
X191000000Y-113000000D02*
X191000000Y-112094700D01*
X191000000Y-112094700D02*
X192058800Y-112094700D01*
X192058800Y-112094700D02*
X192873700Y-111279800D01*
X192873700Y-111279800D02*
X192873700Y-108086200D01*
X192873700Y-108086200D02*
X192000000Y-107212500D01*
X201112500Y-121100000D02*
X200143100Y-120130600D01*
X198575000Y-109050000D02*
X198779100Y-109050000D01*
X198779100Y-109050000D02*
X199464200Y-109735100D01*
X185987500Y-101100000D02*
X185123700Y-100236200D01*
X185200000Y-108000000D02*
X183924700Y-108000000D01*
X182986200Y-107061500D02*
X183924700Y-108000000D01*
X182986200Y-101174300D02*
X182986200Y-107061500D01*
X183924300Y-100236200D02*
X182986200Y-101174300D01*
X185123700Y-100236200D02*
X183924300Y-100236200D01*
X189812500Y-119400000D02*
X189812500Y-118012500D01*
X189812500Y-118012500D02*
X189300000Y-117500000D01*
X203087500Y-104700000D02*
X203087500Y-106112500D01*
X203000000Y-106200000D02*
X199300000Y-106200000D01*
X203087500Y-106112500D02*
X203000000Y-106200000D01*
X191937500Y-115000000D02*
X193000000Y-115000000D01*
X200924700Y-112000000D02*
X192950000Y-112000000D01*
X192950000Y-112000000D02*
X191950000Y-113000000D01*
X190050000Y-113434600D02*
X188634600Y-113434600D01*
X188634600Y-113434600D02*
X185200000Y-110000000D01*
X190050000Y-113434600D02*
X190050000Y-113905300D01*
X190050000Y-113000000D02*
X190050000Y-113434600D01*
X190062500Y-113905300D02*
X191950000Y-113905300D01*
X190062500Y-115000000D02*
X190062500Y-113905300D01*
X190062500Y-113905300D02*
X190050000Y-113905300D01*
X191950000Y-113000000D02*
X191950000Y-113905300D01*
X202200000Y-112000000D02*
X200924700Y-112000000D01*
X185127700Y-118059800D02*
X185987500Y-117200000D01*
X185200000Y-110000000D02*
X183318500Y-111881500D01*
X183318500Y-111881500D02*
X183318500Y-117495600D01*
X183318500Y-117495600D02*
X183882700Y-118059800D01*
X183882700Y-118059800D02*
X185127700Y-118059800D01*
X185987500Y-120000000D02*
X185987500Y-118919600D01*
X185987500Y-118919600D02*
X185127700Y-118059800D01*
X191950000Y-110800000D02*
X191950000Y-109894700D01*
X191950000Y-109894700D02*
X192000000Y-109844700D01*
X192000000Y-109844700D02*
X192000000Y-108787500D01*
X198050000Y-104700000D02*
X197899700Y-104700000D01*
X197899700Y-104700000D02*
X194675000Y-107924700D01*
X201512500Y-104700000D02*
X198050000Y-104700000D01*
X198050000Y-102800000D02*
X198050000Y-104700000D01*
X194675000Y-109050000D02*
X194675000Y-107924700D01*
X194025000Y-109050000D02*
X194025000Y-107885700D01*
X194025000Y-107885700D02*
X190290500Y-104151200D01*
X190290500Y-104151200D02*
X189550000Y-104151200D01*
X189550000Y-104151200D02*
X187036300Y-104151200D01*
X187036300Y-104151200D02*
X185987500Y-105200000D01*
X189550000Y-104025600D02*
X189550000Y-104151200D01*
X189550000Y-102800000D02*
X189550000Y-104025600D01*
X184412500Y-103300000D02*
X184412500Y-101100000D01*
X196625000Y-116386500D02*
X196625000Y-114950000D01*
X201112500Y-119400000D02*
X201024500Y-119312000D01*
X201024500Y-119312000D02*
X198697900Y-119312000D01*
X198697900Y-119312000D02*
X196625000Y-117239100D01*
X196625000Y-117239100D02*
X196625000Y-116386500D01*
X196625000Y-116386500D02*
X196300000Y-116386500D01*
X185200000Y-115137300D02*
X185271100Y-115137300D01*
X185271100Y-115137300D02*
X188963700Y-118829900D01*
X188963700Y-118829900D02*
X188963700Y-120251200D01*
X188963700Y-120251200D02*
X189812500Y-121100000D01*
X184412500Y-120000000D02*
X185271000Y-120858500D01*
X185271000Y-120858500D02*
X188356400Y-120858500D01*
X188356400Y-120858500D02*
X188963700Y-120251200D01*
X185200000Y-114000000D02*
X185200000Y-115137300D01*
X196132500Y-121590600D02*
X195178100Y-121590600D01*
X195178100Y-121590600D02*
X194687500Y-121100000D01*
X203643200Y-118505600D02*
X205093100Y-118505600D01*
X205093100Y-118505600D02*
X205987500Y-119400000D01*
X197275000Y-114950000D02*
X197275000Y-117101100D01*
X197275000Y-117101100D02*
X198679500Y-118505600D01*
X198679500Y-118505600D02*
X203643200Y-118505600D01*
X185200000Y-112000000D02*
X183895600Y-113304400D01*
X183895600Y-113304400D02*
X183895600Y-116683100D01*
X183895600Y-116683100D02*
X184412500Y-117200000D01*
X200924700Y-108000000D02*
X200283000Y-107358300D01*
X200283000Y-107358300D02*
X196541400Y-107358300D01*
X196541400Y-107358300D02*
X195975000Y-107924700D01*
X202200000Y-108000000D02*
X200924700Y-108000000D01*
X195975000Y-109050000D02*
X195975000Y-107924700D01*
X196625000Y-110175300D02*
X197527900Y-111078200D01*
X197527900Y-111078200D02*
X201121800Y-111078200D01*
X201121800Y-111078200D02*
X202200000Y-110000000D01*
X196625000Y-109050000D02*
X196625000Y-110175300D01*
X193112500Y-119400000D02*
X194675000Y-117837500D01*
X194675000Y-117837500D02*
X194675000Y-114950000D01*
X191387500Y-119400000D02*
X193112500Y-119400000D01*
X191387500Y-119400000D02*
X191387500Y-121100000D01*
X193112500Y-119400000D02*
X193112500Y-121100000D01*
X195325000Y-114950000D02*
X195325000Y-116735400D01*
X195325000Y-116735400D02*
X200566800Y-121977200D01*
X200566800Y-121977200D02*
X201810300Y-121977200D01*
X201810300Y-121977200D02*
X202687500Y-121100000D01*
X202687500Y-119937900D02*
X202687500Y-119400000D01*
X202687500Y-121100000D02*
X202687500Y-119937900D01*
X202687500Y-119937900D02*
X204412500Y-119937900D01*
X204412500Y-119937900D02*
X204412500Y-121100000D01*
X204412500Y-119400000D02*
X204412500Y-119937900D01*
X204200000Y-116900000D02*
X203002900Y-116900000D01*
X203002900Y-116900000D02*
X202151400Y-117751500D01*
X202151400Y-117751500D02*
X199264000Y-117751500D01*
X199264000Y-117751500D02*
X198412500Y-116900000D01*
X197925000Y-114950000D02*
X197925000Y-116412500D01*
X197925000Y-116412500D02*
X198412500Y-116900000D01*
X195325000Y-110175300D02*
X195457400Y-110175300D01*
X195457400Y-110175300D02*
X195740400Y-110458300D01*
X195325000Y-109050000D02*
X195325000Y-110175300D01*
X201143000Y-101923900D02*
X201143000Y-102630500D01*
X201143000Y-102630500D02*
X201512500Y-103000000D01*
X197925000Y-109050000D02*
X197925000Y-110175300D01*
X197925000Y-110175300D02*
X198268800Y-110519100D01*
X198268800Y-110519100D02*
X199822500Y-110519100D01*
X199822500Y-110519100D02*
X200447000Y-109894600D01*
X200447000Y-109894600D02*
X200447000Y-109235600D01*
X197275000Y-109050000D02*
X197275000Y-107924700D01*
X197275000Y-107924700D02*
X199190200Y-107924700D01*
X199190200Y-107924700D02*
X199436300Y-108170800D01*
D20*
G36*
X209055665Y-99718863D02*
G01*
X209109214Y-99735030D01*
X209158597Y-99761288D01*
X209201945Y-99796641D01*
X209237600Y-99839740D01*
X209264201Y-99888937D01*
X209280742Y-99942375D01*
X209290000Y-100030455D01*
X209290000Y-101065594D01*
X209205824Y-100862376D01*
X209081612Y-100676480D01*
X208923520Y-100518388D01*
X208737624Y-100394176D01*
X208531067Y-100308617D01*
X208311788Y-100265000D01*
X208088212Y-100265000D01*
X207868933Y-100308617D01*
X207662376Y-100394176D01*
X207476480Y-100518388D01*
X207318388Y-100676480D01*
X207194176Y-100862376D01*
X207108617Y-101068933D01*
X207065000Y-101288212D01*
X207065000Y-101511788D01*
X207108617Y-101731067D01*
X207194176Y-101937624D01*
X207318388Y-102123520D01*
X207476480Y-102281612D01*
X207662376Y-102405824D01*
X207868933Y-102491383D01*
X208088212Y-102535000D01*
X208311788Y-102535000D01*
X208531067Y-102491383D01*
X208737624Y-102405824D01*
X208923520Y-102281612D01*
X209081612Y-102123520D01*
X209205824Y-101937624D01*
X209290000Y-101734406D01*
X209290000Y-104265595D01*
X209205824Y-104062376D01*
X209081612Y-103876480D01*
X208923520Y-103718388D01*
X208737624Y-103594176D01*
X208531067Y-103508617D01*
X208311788Y-103465000D01*
X208088212Y-103465000D01*
X207868933Y-103508617D01*
X207662376Y-103594176D01*
X207476480Y-103718388D01*
X207318388Y-103876480D01*
X207194176Y-104062376D01*
X207108617Y-104268933D01*
X207065000Y-104488212D01*
X207065000Y-104711788D01*
X207108617Y-104931067D01*
X207194176Y-105137624D01*
X207318388Y-105323520D01*
X207476480Y-105481612D01*
X207662376Y-105605824D01*
X207868933Y-105691383D01*
X208088212Y-105735000D01*
X208311788Y-105735000D01*
X208531067Y-105691383D01*
X208737624Y-105605824D01*
X208923520Y-105481612D01*
X209081612Y-105323520D01*
X209205824Y-105137624D01*
X209290000Y-104934405D01*
X209290001Y-121965269D01*
X209281138Y-122055664D01*
X209264970Y-122109214D01*
X209238712Y-122158597D01*
X209203357Y-122201947D01*
X209160261Y-122237599D01*
X209111063Y-122264201D01*
X209057625Y-122280742D01*
X208969545Y-122290000D01*
X205943013Y-122290000D01*
X206019941Y-122213072D01*
X206206250Y-122213072D01*
X206373408Y-122196608D01*
X206534142Y-122147850D01*
X206682275Y-122068671D01*
X206812115Y-121962115D01*
X206918671Y-121832275D01*
X206997850Y-121684142D01*
X207046608Y-121523408D01*
X207063072Y-121356250D01*
X207063072Y-121169941D01*
X207350218Y-120882795D01*
X207381128Y-120857428D01*
X207444179Y-120780600D01*
X207482349Y-120734090D01*
X207540658Y-120625000D01*
X207557563Y-120593373D01*
X207603880Y-120440688D01*
X207615600Y-120321691D01*
X207615600Y-120321689D01*
X207619519Y-120281901D01*
X207615600Y-120242113D01*
X207615600Y-117376987D01*
X207619519Y-117337199D01*
X207615600Y-117297409D01*
X207603880Y-117178412D01*
X207557563Y-117025727D01*
X207513746Y-116943750D01*
X207482349Y-116885010D01*
X207423087Y-116812800D01*
X207381128Y-116761672D01*
X207350219Y-116736306D01*
X204845980Y-114232068D01*
X204886380Y-114098888D01*
X204898100Y-113979891D01*
X204898100Y-113979888D01*
X204902019Y-113940100D01*
X204898100Y-113900312D01*
X204898100Y-104040387D01*
X204902019Y-104000599D01*
X204892280Y-103901720D01*
X204886380Y-103841812D01*
X204840063Y-103689127D01*
X204779421Y-103575673D01*
X204764849Y-103548410D01*
X204704152Y-103474451D01*
X204663628Y-103425072D01*
X204632719Y-103399706D01*
X204163072Y-102930059D01*
X204163072Y-102743750D01*
X204146608Y-102576592D01*
X204097850Y-102415858D01*
X204018671Y-102267725D01*
X203912115Y-102137885D01*
X203782275Y-102031329D01*
X203634142Y-101952150D01*
X203473408Y-101903392D01*
X203386106Y-101894793D01*
X202093399Y-100602087D01*
X202068028Y-100571172D01*
X201944689Y-100469951D01*
X201803973Y-100394737D01*
X201651288Y-100348420D01*
X201532291Y-100336700D01*
X201532288Y-100336700D01*
X201492500Y-100332781D01*
X201452712Y-100336700D01*
X187447787Y-100336700D01*
X187407999Y-100332781D01*
X187368211Y-100336700D01*
X187368209Y-100336700D01*
X187249212Y-100348420D01*
X187096527Y-100394737D01*
X187043181Y-100423251D01*
X187029579Y-100430521D01*
X187014502Y-100380820D01*
X186955537Y-100270506D01*
X186876185Y-100173815D01*
X186779494Y-100094463D01*
X186669180Y-100035498D01*
X186549482Y-99999188D01*
X186425000Y-99986928D01*
X186273250Y-99990000D01*
X186114500Y-100148750D01*
X186114500Y-100973000D01*
X186134500Y-100973000D01*
X186134500Y-101227000D01*
X186114500Y-101227000D01*
X186114500Y-101247000D01*
X185860500Y-101247000D01*
X185860500Y-101227000D01*
X185840500Y-101227000D01*
X185840500Y-100973000D01*
X185860500Y-100973000D01*
X185860500Y-100148750D01*
X185701750Y-99990000D01*
X185550000Y-99986928D01*
X185425518Y-99999188D01*
X185305820Y-100035498D01*
X185195506Y-100094463D01*
X185128930Y-100149100D01*
X185107275Y-100131329D01*
X184959142Y-100052150D01*
X184798408Y-100003392D01*
X184631250Y-99986928D01*
X184193750Y-99986928D01*
X184026592Y-100003392D01*
X183865858Y-100052150D01*
X183717725Y-100131329D01*
X183587885Y-100237885D01*
X183481329Y-100367725D01*
X183402150Y-100515858D01*
X183353392Y-100676592D01*
X183336928Y-100843750D01*
X183336928Y-101356250D01*
X183353392Y-101523408D01*
X183402150Y-101684142D01*
X183481329Y-101832275D01*
X183587885Y-101962115D01*
X183602501Y-101974110D01*
X183602500Y-102425891D01*
X183587885Y-102437885D01*
X183481329Y-102567725D01*
X183402150Y-102715858D01*
X183353392Y-102876592D01*
X183336928Y-103043750D01*
X183336928Y-103556250D01*
X183353392Y-103723408D01*
X183359906Y-103744882D01*
X183030283Y-104074505D01*
X182999373Y-104099872D01*
X182957249Y-104151201D01*
X182898151Y-104223211D01*
X182851662Y-104310188D01*
X182822938Y-104363927D01*
X182792923Y-104462874D01*
X182776621Y-104516613D01*
X182760981Y-104675400D01*
X182764901Y-104715198D01*
X182764900Y-105637811D01*
X182760981Y-105677600D01*
X182764900Y-105717388D01*
X182764900Y-105717390D01*
X182776620Y-105836387D01*
X182822937Y-105989072D01*
X182844543Y-106029494D01*
X182898151Y-106129789D01*
X182915764Y-106151250D01*
X182999372Y-106253128D01*
X183030287Y-106278499D01*
X183897805Y-107146018D01*
X183923172Y-107176928D01*
X183930128Y-107182636D01*
X183797476Y-107404932D01*
X183707780Y-107656930D01*
X183830280Y-107873000D01*
X185073000Y-107873000D01*
X185073000Y-107853000D01*
X185327000Y-107853000D01*
X185327000Y-107873000D01*
X186569720Y-107873000D01*
X186692220Y-107656930D01*
X186604826Y-107411400D01*
X187628388Y-107411400D01*
X188761928Y-108544941D01*
X188761928Y-108981250D01*
X188778872Y-109153285D01*
X188829053Y-109318709D01*
X188910542Y-109471164D01*
X189020208Y-109604792D01*
X189153836Y-109714458D01*
X189248833Y-109765235D01*
X189245409Y-109800000D01*
X189239428Y-109860715D01*
X189194463Y-109915506D01*
X189135498Y-110025820D01*
X189099188Y-110145518D01*
X189086928Y-110270000D01*
X189086928Y-111330000D01*
X189099188Y-111454482D01*
X189135498Y-111574180D01*
X189194463Y-111684494D01*
X189273815Y-111781185D01*
X189370506Y-111860537D01*
X189444335Y-111900000D01*
X189370506Y-111939463D01*
X189273815Y-112018815D01*
X189194463Y-112115506D01*
X189135498Y-112225820D01*
X189099188Y-112345518D01*
X189086928Y-112470000D01*
X189086928Y-112624600D01*
X188970113Y-112624600D01*
X186692579Y-110347067D01*
X186714786Y-110273860D01*
X186741759Y-110000000D01*
X186714786Y-109726140D01*
X186634904Y-109462805D01*
X186505183Y-109220113D01*
X186330608Y-109007392D01*
X186314337Y-108994039D01*
X186462135Y-108830330D01*
X186602524Y-108595068D01*
X186692220Y-108343070D01*
X186569720Y-108127000D01*
X185327000Y-108127000D01*
X185327000Y-108147000D01*
X185073000Y-108147000D01*
X185073000Y-108127000D01*
X183830280Y-108127000D01*
X183707780Y-108343070D01*
X183797476Y-108595068D01*
X183937865Y-108830330D01*
X184085663Y-108994039D01*
X184069392Y-109007392D01*
X183894817Y-109220113D01*
X183765096Y-109462805D01*
X183685214Y-109726140D01*
X183658241Y-110000000D01*
X183685214Y-110273860D01*
X183707421Y-110347066D01*
X182773887Y-111280601D01*
X182742972Y-111305972D01*
X182674281Y-111389673D01*
X182641751Y-111429311D01*
X182616395Y-111476749D01*
X182566537Y-111570028D01*
X182520220Y-111722713D01*
X182509161Y-111835000D01*
X182504581Y-111881500D01*
X182508500Y-111921288D01*
X182508501Y-117455802D01*
X182504581Y-117495600D01*
X182517170Y-117623408D01*
X182520221Y-117654388D01*
X182552900Y-117762115D01*
X182566538Y-117807073D01*
X182641751Y-117947789D01*
X182677528Y-117991383D01*
X182742973Y-118071128D01*
X182773883Y-118096495D01*
X183281805Y-118604417D01*
X183307172Y-118635328D01*
X183362605Y-118680820D01*
X183430510Y-118736549D01*
X183475904Y-118760812D01*
X183571227Y-118811763D01*
X183723912Y-118858080D01*
X183842909Y-118869800D01*
X183842911Y-118869800D01*
X183882699Y-118873719D01*
X183922487Y-118869800D01*
X184792188Y-118869800D01*
X184837698Y-118915311D01*
X184798408Y-118903392D01*
X184631250Y-118886928D01*
X184193750Y-118886928D01*
X184026592Y-118903392D01*
X183865858Y-118952150D01*
X183717725Y-119031329D01*
X183587885Y-119137885D01*
X183481329Y-119267725D01*
X183402150Y-119415858D01*
X183353392Y-119576592D01*
X183336928Y-119743750D01*
X183336928Y-120256250D01*
X183353392Y-120423408D01*
X183402150Y-120584142D01*
X183481329Y-120732275D01*
X183587885Y-120862115D01*
X183717725Y-120968671D01*
X183865858Y-121047850D01*
X184026592Y-121096608D01*
X184193750Y-121113072D01*
X184380059Y-121113072D01*
X184670105Y-121403118D01*
X184695472Y-121434028D01*
X184760208Y-121487155D01*
X184818810Y-121535249D01*
X184883233Y-121569683D01*
X184959527Y-121610463D01*
X185112212Y-121656780D01*
X185231209Y-121668500D01*
X185231211Y-121668500D01*
X185270999Y-121672419D01*
X185310787Y-121668500D01*
X188316612Y-121668500D01*
X188356400Y-121672419D01*
X188396188Y-121668500D01*
X188396191Y-121668500D01*
X188515188Y-121656780D01*
X188667873Y-121610463D01*
X188764184Y-121558984D01*
X188802150Y-121684142D01*
X188881329Y-121832275D01*
X188987885Y-121962115D01*
X189117725Y-122068671D01*
X189265858Y-122147850D01*
X189426592Y-122196608D01*
X189593750Y-122213072D01*
X190031250Y-122213072D01*
X190198408Y-122196608D01*
X190359142Y-122147850D01*
X190507275Y-122068671D01*
X190600000Y-121992574D01*
X190692725Y-122068671D01*
X190840858Y-122147850D01*
X191001592Y-122196608D01*
X191168750Y-122213072D01*
X191606250Y-122213072D01*
X191773408Y-122196608D01*
X191934142Y-122147850D01*
X192082275Y-122068671D01*
X192212115Y-121962115D01*
X192250000Y-121915952D01*
X192287885Y-121962115D01*
X192417725Y-122068671D01*
X192565858Y-122147850D01*
X192726592Y-122196608D01*
X192893750Y-122213072D01*
X193331250Y-122213072D01*
X193498408Y-122196608D01*
X193659142Y-122147850D01*
X193807275Y-122068671D01*
X193900000Y-121992574D01*
X193992725Y-122068671D01*
X194140858Y-122147850D01*
X194301592Y-122196608D01*
X194468750Y-122213072D01*
X194659774Y-122213072D01*
X194686493Y-122235000D01*
X194725910Y-122267349D01*
X194768288Y-122290000D01*
X178034721Y-122290000D01*
X177944336Y-122281138D01*
X177890786Y-122264970D01*
X177841403Y-122238712D01*
X177798053Y-122203357D01*
X177762401Y-122160261D01*
X177735799Y-122111063D01*
X177719258Y-122057625D01*
X177710000Y-121969545D01*
X177710000Y-119779872D01*
X177765000Y-119779872D01*
X177765000Y-120220128D01*
X177850890Y-120651925D01*
X178019369Y-121058669D01*
X178263962Y-121424729D01*
X178575271Y-121736038D01*
X178941331Y-121980631D01*
X179348075Y-122149110D01*
X179779872Y-122235000D01*
X180220128Y-122235000D01*
X180651925Y-122149110D01*
X181058669Y-121980631D01*
X181424729Y-121736038D01*
X181736038Y-121424729D01*
X181980631Y-121058669D01*
X182149110Y-120651925D01*
X182235000Y-120220128D01*
X182235000Y-119779872D01*
X182149110Y-119348075D01*
X181980631Y-118941331D01*
X181736038Y-118575271D01*
X181424729Y-118263962D01*
X181058669Y-118019369D01*
X180651925Y-117850890D01*
X180220128Y-117765000D01*
X179779872Y-117765000D01*
X179348075Y-117850890D01*
X178941331Y-118019369D01*
X178575271Y-118263962D01*
X178263962Y-118575271D01*
X178019369Y-118941331D01*
X177850890Y-119348075D01*
X177765000Y-119779872D01*
X177710000Y-119779872D01*
X177710000Y-101779872D01*
X177765000Y-101779872D01*
X177765000Y-102220128D01*
X177850890Y-102651925D01*
X178019369Y-103058669D01*
X178263962Y-103424729D01*
X178575271Y-103736038D01*
X178941331Y-103980631D01*
X179348075Y-104149110D01*
X179779872Y-104235000D01*
X180220128Y-104235000D01*
X180651925Y-104149110D01*
X181058669Y-103980631D01*
X181424729Y-103736038D01*
X181736038Y-103424729D01*
X181980631Y-103058669D01*
X182149110Y-102651925D01*
X182235000Y-102220128D01*
X182235000Y-101779872D01*
X182149110Y-101348075D01*
X181980631Y-100941331D01*
X181736038Y-100575271D01*
X181424729Y-100263962D01*
X181058669Y-100019369D01*
X180651925Y-99850890D01*
X180220128Y-99765000D01*
X179779872Y-99765000D01*
X179348075Y-99850890D01*
X178941331Y-100019369D01*
X178575271Y-100263962D01*
X178263962Y-100575271D01*
X178019369Y-100941331D01*
X177850890Y-101348075D01*
X177765000Y-101779872D01*
X177710000Y-101779872D01*
X177710000Y-100034722D01*
X177718863Y-99944335D01*
X177735030Y-99890786D01*
X177761288Y-99841403D01*
X177796641Y-99798055D01*
X177839740Y-99762400D01*
X177888937Y-99735799D01*
X177942375Y-99719258D01*
X178030455Y-99710000D01*
X208965278Y-99710000D01*
X209055665Y-99718863D01*
X209055665Y-99718863D01*
G37*
X209055665Y-99718863D02*
X209109214Y-99735030D01*
X209158597Y-99761288D01*
X209201945Y-99796641D01*
X209237600Y-99839740D01*
X209264201Y-99888937D01*
X209280742Y-99942375D01*
X209290000Y-100030455D01*
X209290000Y-101065594D01*
X209205824Y-100862376D01*
X209081612Y-100676480D01*
X208923520Y-100518388D01*
X208737624Y-100394176D01*
X208531067Y-100308617D01*
X208311788Y-100265000D01*
X208088212Y-100265000D01*
X207868933Y-100308617D01*
X207662376Y-100394176D01*
X207476480Y-100518388D01*
X207318388Y-100676480D01*
X207194176Y-100862376D01*
X207108617Y-101068933D01*
X207065000Y-101288212D01*
X207065000Y-101511788D01*
X207108617Y-101731067D01*
X207194176Y-101937624D01*
X207318388Y-102123520D01*
X207476480Y-102281612D01*
X207662376Y-102405824D01*
X207868933Y-102491383D01*
X208088212Y-102535000D01*
X208311788Y-102535000D01*
X208531067Y-102491383D01*
X208737624Y-102405824D01*
X208923520Y-102281612D01*
X209081612Y-102123520D01*
X209205824Y-101937624D01*
X209290000Y-101734406D01*
X209290000Y-104265595D01*
X209205824Y-104062376D01*
X209081612Y-103876480D01*
X208923520Y-103718388D01*
X208737624Y-103594176D01*
X208531067Y-103508617D01*
X208311788Y-103465000D01*
X208088212Y-103465000D01*
X207868933Y-103508617D01*
X207662376Y-103594176D01*
X207476480Y-103718388D01*
X207318388Y-103876480D01*
X207194176Y-104062376D01*
X207108617Y-104268933D01*
X207065000Y-104488212D01*
X207065000Y-104711788D01*
X207108617Y-104931067D01*
X207194176Y-105137624D01*
X207318388Y-105323520D01*
X207476480Y-105481612D01*
X207662376Y-105605824D01*
X207868933Y-105691383D01*
X208088212Y-105735000D01*
X208311788Y-105735000D01*
X208531067Y-105691383D01*
X208737624Y-105605824D01*
X208923520Y-105481612D01*
X209081612Y-105323520D01*
X209205824Y-105137624D01*
X209290000Y-104934405D01*
X209290001Y-121965269D01*
X209281138Y-122055664D01*
X209264970Y-122109214D01*
X209238712Y-122158597D01*
X209203357Y-122201947D01*
X209160261Y-122237599D01*
X209111063Y-122264201D01*
X209057625Y-122280742D01*
X208969545Y-122290000D01*
X205943013Y-122290000D01*
X206019941Y-122213072D01*
X206206250Y-122213072D01*
X206373408Y-122196608D01*
X206534142Y-122147850D01*
X206682275Y-122068671D01*
X206812115Y-121962115D01*
X206918671Y-121832275D01*
X206997850Y-121684142D01*
X207046608Y-121523408D01*
X207063072Y-121356250D01*
X207063072Y-121169941D01*
X207350218Y-120882795D01*
X207381128Y-120857428D01*
X207444179Y-120780600D01*
X207482349Y-120734090D01*
X207540658Y-120625000D01*
X207557563Y-120593373D01*
X207603880Y-120440688D01*
X207615600Y-120321691D01*
X207615600Y-120321689D01*
X207619519Y-120281901D01*
X207615600Y-120242113D01*
X207615600Y-117376987D01*
X207619519Y-117337199D01*
X207615600Y-117297409D01*
X207603880Y-117178412D01*
X207557563Y-117025727D01*
X207513746Y-116943750D01*
X207482349Y-116885010D01*
X207423087Y-116812800D01*
X207381128Y-116761672D01*
X207350219Y-116736306D01*
X204845980Y-114232068D01*
X204886380Y-114098888D01*
X204898100Y-113979891D01*
X204898100Y-113979888D01*
X204902019Y-113940100D01*
X204898100Y-113900312D01*
X204898100Y-104040387D01*
X204902019Y-104000599D01*
X204892280Y-103901720D01*
X204886380Y-103841812D01*
X204840063Y-103689127D01*
X204779421Y-103575673D01*
X204764849Y-103548410D01*
X204704152Y-103474451D01*
X204663628Y-103425072D01*
X204632719Y-103399706D01*
X204163072Y-102930059D01*
X204163072Y-102743750D01*
X204146608Y-102576592D01*
X204097850Y-102415858D01*
X204018671Y-102267725D01*
X203912115Y-102137885D01*
X203782275Y-102031329D01*
X203634142Y-101952150D01*
X203473408Y-101903392D01*
X203386106Y-101894793D01*
X202093399Y-100602087D01*
X202068028Y-100571172D01*
X201944689Y-100469951D01*
X201803973Y-100394737D01*
X201651288Y-100348420D01*
X201532291Y-100336700D01*
X201532288Y-100336700D01*
X201492500Y-100332781D01*
X201452712Y-100336700D01*
X187447787Y-100336700D01*
X187407999Y-100332781D01*
X187368211Y-100336700D01*
X187368209Y-100336700D01*
X187249212Y-100348420D01*
X187096527Y-100394737D01*
X187043181Y-100423251D01*
X187029579Y-100430521D01*
X187014502Y-100380820D01*
X186955537Y-100270506D01*
X186876185Y-100173815D01*
X186779494Y-100094463D01*
X186669180Y-100035498D01*
X186549482Y-99999188D01*
X186425000Y-99986928D01*
X186273250Y-99990000D01*
X186114500Y-100148750D01*
X186114500Y-100973000D01*
X186134500Y-100973000D01*
X186134500Y-101227000D01*
X186114500Y-101227000D01*
X186114500Y-101247000D01*
X185860500Y-101247000D01*
X185860500Y-101227000D01*
X185840500Y-101227000D01*
X185840500Y-100973000D01*
X185860500Y-100973000D01*
X185860500Y-100148750D01*
X185701750Y-99990000D01*
X185550000Y-99986928D01*
X185425518Y-99999188D01*
X185305820Y-100035498D01*
X185195506Y-100094463D01*
X185128930Y-100149100D01*
X185107275Y-100131329D01*
X184959142Y-100052150D01*
X184798408Y-100003392D01*
X184631250Y-99986928D01*
X184193750Y-99986928D01*
X184026592Y-100003392D01*
X183865858Y-100052150D01*
X183717725Y-100131329D01*
X183587885Y-100237885D01*
X183481329Y-100367725D01*
X183402150Y-100515858D01*
X183353392Y-100676592D01*
X183336928Y-100843750D01*
X183336928Y-101356250D01*
X183353392Y-101523408D01*
X183402150Y-101684142D01*
X183481329Y-101832275D01*
X183587885Y-101962115D01*
X183602501Y-101974110D01*
X183602500Y-102425891D01*
X183587885Y-102437885D01*
X183481329Y-102567725D01*
X183402150Y-102715858D01*
X183353392Y-102876592D01*
X183336928Y-103043750D01*
X183336928Y-103556250D01*
X183353392Y-103723408D01*
X183359906Y-103744882D01*
X183030283Y-104074505D01*
X182999373Y-104099872D01*
X182957249Y-104151201D01*
X182898151Y-104223211D01*
X182851662Y-104310188D01*
X182822938Y-104363927D01*
X182792923Y-104462874D01*
X182776621Y-104516613D01*
X182760981Y-104675400D01*
X182764901Y-104715198D01*
X182764900Y-105637811D01*
X182760981Y-105677600D01*
X182764900Y-105717388D01*
X182764900Y-105717390D01*
X182776620Y-105836387D01*
X182822937Y-105989072D01*
X182844543Y-106029494D01*
X182898151Y-106129789D01*
X182915764Y-106151250D01*
X182999372Y-106253128D01*
X183030287Y-106278499D01*
X183897805Y-107146018D01*
X183923172Y-107176928D01*
X183930128Y-107182636D01*
X183797476Y-107404932D01*
X183707780Y-107656930D01*
X183830280Y-107873000D01*
X185073000Y-107873000D01*
X185073000Y-107853000D01*
X185327000Y-107853000D01*
X185327000Y-107873000D01*
X186569720Y-107873000D01*
X186692220Y-107656930D01*
X186604826Y-107411400D01*
X187628388Y-107411400D01*
X188761928Y-108544941D01*
X188761928Y-108981250D01*
X188778872Y-109153285D01*
X188829053Y-109318709D01*
X188910542Y-109471164D01*
X189020208Y-109604792D01*
X189153836Y-109714458D01*
X189248833Y-109765235D01*
X189245409Y-109800000D01*
X189239428Y-109860715D01*
X189194463Y-109915506D01*
X189135498Y-110025820D01*
X189099188Y-110145518D01*
X189086928Y-110270000D01*
X189086928Y-111330000D01*
X189099188Y-111454482D01*
X189135498Y-111574180D01*
X189194463Y-111684494D01*
X189273815Y-111781185D01*
X189370506Y-111860537D01*
X189444335Y-111900000D01*
X189370506Y-111939463D01*
X189273815Y-112018815D01*
X189194463Y-112115506D01*
X189135498Y-112225820D01*
X189099188Y-112345518D01*
X189086928Y-112470000D01*
X189086928Y-112624600D01*
X188970113Y-112624600D01*
X186692579Y-110347067D01*
X186714786Y-110273860D01*
X186741759Y-110000000D01*
X186714786Y-109726140D01*
X186634904Y-109462805D01*
X186505183Y-109220113D01*
X186330608Y-109007392D01*
X186314337Y-108994039D01*
X186462135Y-108830330D01*
X186602524Y-108595068D01*
X186692220Y-108343070D01*
X186569720Y-108127000D01*
X185327000Y-108127000D01*
X185327000Y-108147000D01*
X185073000Y-108147000D01*
X185073000Y-108127000D01*
X183830280Y-108127000D01*
X183707780Y-108343070D01*
X183797476Y-108595068D01*
X183937865Y-108830330D01*
X184085663Y-108994039D01*
X184069392Y-109007392D01*
X183894817Y-109220113D01*
X183765096Y-109462805D01*
X183685214Y-109726140D01*
X183658241Y-110000000D01*
X183685214Y-110273860D01*
X183707421Y-110347066D01*
X182773887Y-111280601D01*
X182742972Y-111305972D01*
X182674281Y-111389673D01*
X182641751Y-111429311D01*
X182616395Y-111476749D01*
X182566537Y-111570028D01*
X182520220Y-111722713D01*
X182509161Y-111835000D01*
X182504581Y-111881500D01*
X182508500Y-111921288D01*
X182508501Y-117455802D01*
X182504581Y-117495600D01*
X182517170Y-117623408D01*
X182520221Y-117654388D01*
X182552900Y-117762115D01*
X182566538Y-117807073D01*
X182641751Y-117947789D01*
X182677528Y-117991383D01*
X182742973Y-118071128D01*
X182773883Y-118096495D01*
X183281805Y-118604417D01*
X183307172Y-118635328D01*
X183362605Y-118680820D01*
X183430510Y-118736549D01*
X183475904Y-118760812D01*
X183571227Y-118811763D01*
X183723912Y-118858080D01*
X183842909Y-118869800D01*
X183842911Y-118869800D01*
X183882699Y-118873719D01*
X183922487Y-118869800D01*
X184792188Y-118869800D01*
X184837698Y-118915311D01*
X184798408Y-118903392D01*
X184631250Y-118886928D01*
X184193750Y-118886928D01*
X184026592Y-118903392D01*
X183865858Y-118952150D01*
X183717725Y-119031329D01*
X183587885Y-119137885D01*
X183481329Y-119267725D01*
X183402150Y-119415858D01*
X183353392Y-119576592D01*
X183336928Y-119743750D01*
X183336928Y-120256250D01*
X183353392Y-120423408D01*
X183402150Y-120584142D01*
X183481329Y-120732275D01*
X183587885Y-120862115D01*
X183717725Y-120968671D01*
X183865858Y-121047850D01*
X184026592Y-121096608D01*
X184193750Y-121113072D01*
X184380059Y-121113072D01*
X184670105Y-121403118D01*
X184695472Y-121434028D01*
X184760208Y-121487155D01*
X184818810Y-121535249D01*
X184883233Y-121569683D01*
X184959527Y-121610463D01*
X185112212Y-121656780D01*
X185231209Y-121668500D01*
X185231211Y-121668500D01*
X185270999Y-121672419D01*
X185310787Y-121668500D01*
X188316612Y-121668500D01*
X188356400Y-121672419D01*
X188396188Y-121668500D01*
X188396191Y-121668500D01*
X188515188Y-121656780D01*
X188667873Y-121610463D01*
X188764184Y-121558984D01*
X188802150Y-121684142D01*
X188881329Y-121832275D01*
X188987885Y-121962115D01*
X189117725Y-122068671D01*
X189265858Y-122147850D01*
X189426592Y-122196608D01*
X189593750Y-122213072D01*
X190031250Y-122213072D01*
X190198408Y-122196608D01*
X190359142Y-122147850D01*
X190507275Y-122068671D01*
X190600000Y-121992574D01*
X190692725Y-122068671D01*
X190840858Y-122147850D01*
X191001592Y-122196608D01*
X191168750Y-122213072D01*
X191606250Y-122213072D01*
X191773408Y-122196608D01*
X191934142Y-122147850D01*
X192082275Y-122068671D01*
X192212115Y-121962115D01*
X192250000Y-121915952D01*
X192287885Y-121962115D01*
X192417725Y-122068671D01*
X192565858Y-122147850D01*
X192726592Y-122196608D01*
X192893750Y-122213072D01*
X193331250Y-122213072D01*
X193498408Y-122196608D01*
X193659142Y-122147850D01*
X193807275Y-122068671D01*
X193900000Y-121992574D01*
X193992725Y-122068671D01*
X194140858Y-122147850D01*
X194301592Y-122196608D01*
X194468750Y-122213072D01*
X194659774Y-122213072D01*
X194686493Y-122235000D01*
X194725910Y-122267349D01*
X194768288Y-122290000D01*
X178034721Y-122290000D01*
X177944336Y-122281138D01*
X177890786Y-122264970D01*
X177841403Y-122238712D01*
X177798053Y-122203357D01*
X177762401Y-122160261D01*
X177735799Y-122111063D01*
X177719258Y-122057625D01*
X177710000Y-121969545D01*
X177710000Y-119779872D01*
X177765000Y-119779872D01*
X177765000Y-120220128D01*
X177850890Y-120651925D01*
X178019369Y-121058669D01*
X178263962Y-121424729D01*
X178575271Y-121736038D01*
X178941331Y-121980631D01*
X179348075Y-122149110D01*
X179779872Y-122235000D01*
X180220128Y-122235000D01*
X180651925Y-122149110D01*
X181058669Y-121980631D01*
X181424729Y-121736038D01*
X181736038Y-121424729D01*
X181980631Y-121058669D01*
X182149110Y-120651925D01*
X182235000Y-120220128D01*
X182235000Y-119779872D01*
X182149110Y-119348075D01*
X181980631Y-118941331D01*
X181736038Y-118575271D01*
X181424729Y-118263962D01*
X181058669Y-118019369D01*
X180651925Y-117850890D01*
X180220128Y-117765000D01*
X179779872Y-117765000D01*
X179348075Y-117850890D01*
X178941331Y-118019369D01*
X178575271Y-118263962D01*
X178263962Y-118575271D01*
X178019369Y-118941331D01*
X177850890Y-119348075D01*
X177765000Y-119779872D01*
X177710000Y-119779872D01*
X177710000Y-101779872D01*
X177765000Y-101779872D01*
X177765000Y-102220128D01*
X177850890Y-102651925D01*
X178019369Y-103058669D01*
X178263962Y-103424729D01*
X178575271Y-103736038D01*
X178941331Y-103980631D01*
X179348075Y-104149110D01*
X179779872Y-104235000D01*
X180220128Y-104235000D01*
X180651925Y-104149110D01*
X181058669Y-103980631D01*
X181424729Y-103736038D01*
X181736038Y-103424729D01*
X181980631Y-103058669D01*
X182149110Y-102651925D01*
X182235000Y-102220128D01*
X182235000Y-101779872D01*
X182149110Y-101348075D01*
X181980631Y-100941331D01*
X181736038Y-100575271D01*
X181424729Y-100263962D01*
X181058669Y-100019369D01*
X180651925Y-99850890D01*
X180220128Y-99765000D01*
X179779872Y-99765000D01*
X179348075Y-99850890D01*
X178941331Y-100019369D01*
X178575271Y-100263962D01*
X178263962Y-100575271D01*
X178019369Y-100941331D01*
X177850890Y-101348075D01*
X177765000Y-101779872D01*
X177710000Y-101779872D01*
X177710000Y-100034722D01*
X177718863Y-99944335D01*
X177735030Y-99890786D01*
X177761288Y-99841403D01*
X177796641Y-99798055D01*
X177839740Y-99762400D01*
X177888937Y-99735799D01*
X177942375Y-99719258D01*
X178030455Y-99710000D01*
X208965278Y-99710000D01*
X209055665Y-99718863D01*
G36*
X201239500Y-120973000D02*
G01*
X201259500Y-120973000D01*
X201259500Y-121167200D01*
X200965500Y-121167200D01*
X200965500Y-120973000D01*
X200985500Y-120973000D01*
X200985500Y-120953000D01*
X201239500Y-120953000D01*
X201239500Y-120973000D01*
X201239500Y-120973000D01*
G37*
X201239500Y-120973000D02*
X201259500Y-120973000D01*
X201259500Y-121167200D01*
X200965500Y-121167200D01*
X200965500Y-120973000D01*
X200985500Y-120973000D01*
X200985500Y-120953000D01*
X201239500Y-120953000D01*
X201239500Y-120973000D01*
G36*
X200181329Y-120132275D02*
G01*
X200219617Y-120178930D01*
X200144463Y-120270506D01*
X200096099Y-120360987D01*
X199857113Y-120122000D01*
X200175837Y-120122000D01*
X200181329Y-120132275D01*
X200181329Y-120132275D01*
G37*
X200181329Y-120132275D02*
X200219617Y-120178930D01*
X200144463Y-120270506D01*
X200096099Y-120360987D01*
X199857113Y-120122000D01*
X200175837Y-120122000D01*
X200181329Y-120132275D01*
G36*
X188033705Y-113979218D02*
G01*
X188059072Y-114010128D01*
X188089980Y-114035493D01*
X188182410Y-114111349D01*
X188257624Y-114151551D01*
X188323127Y-114186563D01*
X188475812Y-114232880D01*
X188594809Y-114244600D01*
X188594812Y-114244600D01*
X188634600Y-114248519D01*
X188674388Y-114244600D01*
X188992432Y-114244600D01*
X188953872Y-114371715D01*
X188936928Y-114543750D01*
X188936928Y-115456250D01*
X188953872Y-115628285D01*
X189004053Y-115793709D01*
X189085542Y-115946164D01*
X189195208Y-116079792D01*
X189328836Y-116189458D01*
X189481291Y-116270947D01*
X189646715Y-116321128D01*
X189818750Y-116338072D01*
X190306250Y-116338072D01*
X190478285Y-116321128D01*
X190643709Y-116270947D01*
X190709601Y-116235727D01*
X190685498Y-116280820D01*
X190649188Y-116400518D01*
X190636928Y-116525000D01*
X190640000Y-116714250D01*
X190798750Y-116873000D01*
X191585500Y-116873000D01*
X191585500Y-116853000D01*
X191839500Y-116853000D01*
X191839500Y-116873000D01*
X191859500Y-116873000D01*
X191859500Y-117127000D01*
X191839500Y-117127000D01*
X191839500Y-117951250D01*
X191998250Y-118110000D01*
X192150000Y-118113072D01*
X192274482Y-118100812D01*
X192394180Y-118064502D01*
X192504494Y-118005537D01*
X192571070Y-117950900D01*
X192592725Y-117968671D01*
X192740858Y-118047850D01*
X192901592Y-118096608D01*
X193068750Y-118113072D01*
X193253916Y-118113072D01*
X193080060Y-118286928D01*
X192893750Y-118286928D01*
X192726592Y-118303392D01*
X192565858Y-118352150D01*
X192417725Y-118431329D01*
X192287885Y-118537885D01*
X192250000Y-118584048D01*
X192212115Y-118537885D01*
X192082275Y-118431329D01*
X191934142Y-118352150D01*
X191773408Y-118303392D01*
X191606250Y-118286928D01*
X191168750Y-118286928D01*
X191001592Y-118303392D01*
X190840858Y-118352150D01*
X190692725Y-118431329D01*
X190671070Y-118449100D01*
X190604494Y-118394463D01*
X190494180Y-118335498D01*
X190374482Y-118299188D01*
X190250000Y-118286928D01*
X190098250Y-118290000D01*
X189939500Y-118448750D01*
X189939500Y-119273000D01*
X189959500Y-119273000D01*
X189959500Y-119527000D01*
X189939500Y-119527000D01*
X189939500Y-119547000D01*
X189773700Y-119547000D01*
X189773700Y-118869687D01*
X189777619Y-118829899D01*
X189771461Y-118767379D01*
X189761980Y-118671112D01*
X189715663Y-118518427D01*
X189685500Y-118461996D01*
X189685500Y-118448750D01*
X189670290Y-118433540D01*
X189667462Y-118428249D01*
X189640449Y-118377710D01*
X189594819Y-118322110D01*
X189539228Y-118254372D01*
X189508319Y-118229006D01*
X188754313Y-117475000D01*
X190636928Y-117475000D01*
X190649188Y-117599482D01*
X190685498Y-117719180D01*
X190744463Y-117829494D01*
X190823815Y-117926185D01*
X190920506Y-118005537D01*
X191030820Y-118064502D01*
X191150518Y-118100812D01*
X191275000Y-118113072D01*
X191426750Y-118110000D01*
X191585500Y-117951250D01*
X191585500Y-117127000D01*
X190798750Y-117127000D01*
X190640000Y-117285750D01*
X190636928Y-117475000D01*
X188754313Y-117475000D01*
X186298374Y-115019062D01*
X186330608Y-114992608D01*
X186505183Y-114779887D01*
X186634904Y-114537195D01*
X186714786Y-114273860D01*
X186741759Y-114000000D01*
X186714786Y-113726140D01*
X186634904Y-113462805D01*
X186505183Y-113220113D01*
X186330608Y-113007392D01*
X186321601Y-113000000D01*
X186330608Y-112992608D01*
X186505183Y-112779887D01*
X186619849Y-112565361D01*
X188033705Y-113979218D01*
X188033705Y-113979218D01*
G37*
X188033705Y-113979218D02*
X188059072Y-114010128D01*
X188089980Y-114035493D01*
X188182410Y-114111349D01*
X188257624Y-114151551D01*
X188323127Y-114186563D01*
X188475812Y-114232880D01*
X188594809Y-114244600D01*
X188594812Y-114244600D01*
X188634600Y-114248519D01*
X188674388Y-114244600D01*
X188992432Y-114244600D01*
X188953872Y-114371715D01*
X188936928Y-114543750D01*
X188936928Y-115456250D01*
X188953872Y-115628285D01*
X189004053Y-115793709D01*
X189085542Y-115946164D01*
X189195208Y-116079792D01*
X189328836Y-116189458D01*
X189481291Y-116270947D01*
X189646715Y-116321128D01*
X189818750Y-116338072D01*
X190306250Y-116338072D01*
X190478285Y-116321128D01*
X190643709Y-116270947D01*
X190709601Y-116235727D01*
X190685498Y-116280820D01*
X190649188Y-116400518D01*
X190636928Y-116525000D01*
X190640000Y-116714250D01*
X190798750Y-116873000D01*
X191585500Y-116873000D01*
X191585500Y-116853000D01*
X191839500Y-116853000D01*
X191839500Y-116873000D01*
X191859500Y-116873000D01*
X191859500Y-117127000D01*
X191839500Y-117127000D01*
X191839500Y-117951250D01*
X191998250Y-118110000D01*
X192150000Y-118113072D01*
X192274482Y-118100812D01*
X192394180Y-118064502D01*
X192504494Y-118005537D01*
X192571070Y-117950900D01*
X192592725Y-117968671D01*
X192740858Y-118047850D01*
X192901592Y-118096608D01*
X193068750Y-118113072D01*
X193253916Y-118113072D01*
X193080060Y-118286928D01*
X192893750Y-118286928D01*
X192726592Y-118303392D01*
X192565858Y-118352150D01*
X192417725Y-118431329D01*
X192287885Y-118537885D01*
X192250000Y-118584048D01*
X192212115Y-118537885D01*
X192082275Y-118431329D01*
X191934142Y-118352150D01*
X191773408Y-118303392D01*
X191606250Y-118286928D01*
X191168750Y-118286928D01*
X191001592Y-118303392D01*
X190840858Y-118352150D01*
X190692725Y-118431329D01*
X190671070Y-118449100D01*
X190604494Y-118394463D01*
X190494180Y-118335498D01*
X190374482Y-118299188D01*
X190250000Y-118286928D01*
X190098250Y-118290000D01*
X189939500Y-118448750D01*
X189939500Y-119273000D01*
X189959500Y-119273000D01*
X189959500Y-119527000D01*
X189939500Y-119527000D01*
X189939500Y-119547000D01*
X189773700Y-119547000D01*
X189773700Y-118869687D01*
X189777619Y-118829899D01*
X189771461Y-118767379D01*
X189761980Y-118671112D01*
X189715663Y-118518427D01*
X189685500Y-118461996D01*
X189685500Y-118448750D01*
X189670290Y-118433540D01*
X189667462Y-118428249D01*
X189640449Y-118377710D01*
X189594819Y-118322110D01*
X189539228Y-118254372D01*
X189508319Y-118229006D01*
X188754313Y-117475000D01*
X190636928Y-117475000D01*
X190649188Y-117599482D01*
X190685498Y-117719180D01*
X190744463Y-117829494D01*
X190823815Y-117926185D01*
X190920506Y-118005537D01*
X191030820Y-118064502D01*
X191150518Y-118100812D01*
X191275000Y-118113072D01*
X191426750Y-118110000D01*
X191585500Y-117951250D01*
X191585500Y-117127000D01*
X190798750Y-117127000D01*
X190640000Y-117285750D01*
X190636928Y-117475000D01*
X188754313Y-117475000D01*
X186298374Y-115019062D01*
X186330608Y-114992608D01*
X186505183Y-114779887D01*
X186634904Y-114537195D01*
X186714786Y-114273860D01*
X186741759Y-114000000D01*
X186714786Y-113726140D01*
X186634904Y-113462805D01*
X186505183Y-113220113D01*
X186330608Y-113007392D01*
X186321601Y-113000000D01*
X186330608Y-112992608D01*
X186505183Y-112779887D01*
X186619849Y-112565361D01*
X188033705Y-113979218D01*
G36*
X201069392Y-112992608D02*
G01*
X201085663Y-113005961D01*
X200937865Y-113169670D01*
X200797476Y-113404932D01*
X200707780Y-113656930D01*
X200830280Y-113873000D01*
X202073000Y-113873000D01*
X202073000Y-113853000D01*
X202327000Y-113853000D01*
X202327000Y-113873000D01*
X202347000Y-113873000D01*
X202347000Y-114127000D01*
X202327000Y-114127000D01*
X202327000Y-114147000D01*
X202073000Y-114147000D01*
X202073000Y-114127000D01*
X200830280Y-114127000D01*
X200707780Y-114343070D01*
X200797476Y-114595068D01*
X200937865Y-114830330D01*
X201121454Y-115033683D01*
X201341188Y-115197312D01*
X201574481Y-115308207D01*
X201374988Y-115507700D01*
X200278213Y-115507700D01*
X199438072Y-114667560D01*
X199438072Y-114200000D01*
X199425812Y-114075518D01*
X199389502Y-113955820D01*
X199385000Y-113947397D01*
X199385000Y-113864491D01*
X199388919Y-113824700D01*
X199373280Y-113665912D01*
X199326963Y-113513227D01*
X199251749Y-113372511D01*
X199150528Y-113249172D01*
X199027189Y-113147951D01*
X198886473Y-113072737D01*
X198733788Y-113026420D01*
X198614791Y-113014700D01*
X198575000Y-113010781D01*
X198535209Y-113014700D01*
X194064791Y-113014700D01*
X194025000Y-113010781D01*
X193985209Y-113014700D01*
X193866212Y-113026420D01*
X193713527Y-113072737D01*
X193572811Y-113147951D01*
X193449472Y-113249172D01*
X193348251Y-113372511D01*
X193273037Y-113513227D01*
X193226720Y-113665912D01*
X193211081Y-113824700D01*
X193215001Y-113864500D01*
X193215001Y-113947396D01*
X193210498Y-113955820D01*
X193174188Y-114075518D01*
X193161928Y-114200000D01*
X193161928Y-115700000D01*
X193170254Y-115784534D01*
X193067762Y-115887025D01*
X193030733Y-115890672D01*
X193050812Y-115824482D01*
X193063072Y-115700000D01*
X193060000Y-115285750D01*
X192901250Y-115127000D01*
X192064500Y-115127000D01*
X192064500Y-115147000D01*
X191810500Y-115147000D01*
X191810500Y-115127000D01*
X191790500Y-115127000D01*
X191790500Y-114873000D01*
X191810500Y-114873000D01*
X191810500Y-114853000D01*
X192064500Y-114853000D01*
X192064500Y-114873000D01*
X192901250Y-114873000D01*
X193060000Y-114714250D01*
X193063072Y-114300000D01*
X193050812Y-114175518D01*
X193014502Y-114055820D01*
X192955537Y-113945506D01*
X192876185Y-113848815D01*
X192840335Y-113819393D01*
X192864502Y-113774180D01*
X192900812Y-113654482D01*
X192913072Y-113530000D01*
X192913072Y-113182440D01*
X193285513Y-112810000D01*
X200919530Y-112810000D01*
X201069392Y-112992608D01*
X201069392Y-112992608D01*
G37*
X201069392Y-112992608D02*
X201085663Y-113005961D01*
X200937865Y-113169670D01*
X200797476Y-113404932D01*
X200707780Y-113656930D01*
X200830280Y-113873000D01*
X202073000Y-113873000D01*
X202073000Y-113853000D01*
X202327000Y-113853000D01*
X202327000Y-113873000D01*
X202347000Y-113873000D01*
X202347000Y-114127000D01*
X202327000Y-114127000D01*
X202327000Y-114147000D01*
X202073000Y-114147000D01*
X202073000Y-114127000D01*
X200830280Y-114127000D01*
X200707780Y-114343070D01*
X200797476Y-114595068D01*
X200937865Y-114830330D01*
X201121454Y-115033683D01*
X201341188Y-115197312D01*
X201574481Y-115308207D01*
X201374988Y-115507700D01*
X200278213Y-115507700D01*
X199438072Y-114667560D01*
X199438072Y-114200000D01*
X199425812Y-114075518D01*
X199389502Y-113955820D01*
X199385000Y-113947397D01*
X199385000Y-113864491D01*
X199388919Y-113824700D01*
X199373280Y-113665912D01*
X199326963Y-113513227D01*
X199251749Y-113372511D01*
X199150528Y-113249172D01*
X199027189Y-113147951D01*
X198886473Y-113072737D01*
X198733788Y-113026420D01*
X198614791Y-113014700D01*
X198575000Y-113010781D01*
X198535209Y-113014700D01*
X194064791Y-113014700D01*
X194025000Y-113010781D01*
X193985209Y-113014700D01*
X193866212Y-113026420D01*
X193713527Y-113072737D01*
X193572811Y-113147951D01*
X193449472Y-113249172D01*
X193348251Y-113372511D01*
X193273037Y-113513227D01*
X193226720Y-113665912D01*
X193211081Y-113824700D01*
X193215001Y-113864500D01*
X193215001Y-113947396D01*
X193210498Y-113955820D01*
X193174188Y-114075518D01*
X193161928Y-114200000D01*
X193161928Y-115700000D01*
X193170254Y-115784534D01*
X193067762Y-115887025D01*
X193030733Y-115890672D01*
X193050812Y-115824482D01*
X193063072Y-115700000D01*
X193060000Y-115285750D01*
X192901250Y-115127000D01*
X192064500Y-115127000D01*
X192064500Y-115147000D01*
X191810500Y-115147000D01*
X191810500Y-115127000D01*
X191790500Y-115127000D01*
X191790500Y-114873000D01*
X191810500Y-114873000D01*
X191810500Y-114853000D01*
X192064500Y-114853000D01*
X192064500Y-114873000D01*
X192901250Y-114873000D01*
X193060000Y-114714250D01*
X193063072Y-114300000D01*
X193050812Y-114175518D01*
X193014502Y-114055820D01*
X192955537Y-113945506D01*
X192876185Y-113848815D01*
X192840335Y-113819393D01*
X192864502Y-113774180D01*
X192900812Y-113654482D01*
X192913072Y-113530000D01*
X192913072Y-113182440D01*
X193285513Y-112810000D01*
X200919530Y-112810000D01*
X201069392Y-112992608D01*
G36*
X191035498Y-111574180D02*
G01*
X191094463Y-111684494D01*
X191173815Y-111781185D01*
X191264853Y-111855897D01*
X191127000Y-111993750D01*
X191127000Y-112075859D01*
X191094463Y-112115506D01*
X191035498Y-112225820D01*
X191000000Y-112342841D01*
X190964502Y-112225820D01*
X190905537Y-112115506D01*
X190873000Y-112075859D01*
X190873000Y-111993750D01*
X190735147Y-111855897D01*
X190826185Y-111781185D01*
X190905537Y-111684494D01*
X190964502Y-111574180D01*
X191000000Y-111457159D01*
X191035498Y-111574180D01*
X191035498Y-111574180D01*
G37*
X191035498Y-111574180D02*
X191094463Y-111684494D01*
X191173815Y-111781185D01*
X191264853Y-111855897D01*
X191127000Y-111993750D01*
X191127000Y-112075859D01*
X191094463Y-112115506D01*
X191035498Y-112225820D01*
X191000000Y-112342841D01*
X190964502Y-112225820D01*
X190905537Y-112115506D01*
X190873000Y-112075859D01*
X190873000Y-111993750D01*
X190735147Y-111855897D01*
X190826185Y-111781185D01*
X190905537Y-111684494D01*
X190964502Y-111574180D01*
X191000000Y-111457159D01*
X191035498Y-111574180D01*
G36*
X193173750Y-108179963D02*
G01*
X193161928Y-108300000D01*
X193161928Y-109800000D01*
X193174188Y-109924482D01*
X193210498Y-110044180D01*
X193269463Y-110154494D01*
X193348815Y-110251185D01*
X193445506Y-110330537D01*
X193555820Y-110389502D01*
X193675518Y-110425812D01*
X193800000Y-110438072D01*
X194250000Y-110438072D01*
X194350000Y-110428223D01*
X194450000Y-110438072D01*
X194558264Y-110438072D01*
X194573037Y-110486773D01*
X194648251Y-110627489D01*
X194741339Y-110740918D01*
X194745174Y-110760198D01*
X194823195Y-110948556D01*
X194936463Y-111118074D01*
X195008389Y-111190000D01*
X192989791Y-111190000D01*
X192950000Y-111186081D01*
X192913072Y-111189718D01*
X192913072Y-110270000D01*
X192900812Y-110145518D01*
X192864502Y-110025820D01*
X192806726Y-109917731D01*
X192810000Y-109884491D01*
X192810000Y-109884488D01*
X192813919Y-109844700D01*
X192810000Y-109804912D01*
X192810000Y-109654884D01*
X192862115Y-109612115D01*
X192968671Y-109482275D01*
X193047850Y-109334142D01*
X193096608Y-109173408D01*
X193113072Y-109006250D01*
X193113072Y-108568750D01*
X193096608Y-108401592D01*
X193047850Y-108240858D01*
X192968671Y-108092725D01*
X192950900Y-108071070D01*
X193002266Y-108008479D01*
X193173750Y-108179963D01*
X193173750Y-108179963D01*
G37*
X193173750Y-108179963D02*
X193161928Y-108300000D01*
X193161928Y-109800000D01*
X193174188Y-109924482D01*
X193210498Y-110044180D01*
X193269463Y-110154494D01*
X193348815Y-110251185D01*
X193445506Y-110330537D01*
X193555820Y-110389502D01*
X193675518Y-110425812D01*
X193800000Y-110438072D01*
X194250000Y-110438072D01*
X194350000Y-110428223D01*
X194450000Y-110438072D01*
X194558264Y-110438072D01*
X194573037Y-110486773D01*
X194648251Y-110627489D01*
X194741339Y-110740918D01*
X194745174Y-110760198D01*
X194823195Y-110948556D01*
X194936463Y-111118074D01*
X195008389Y-111190000D01*
X192989791Y-111190000D01*
X192950000Y-111186081D01*
X192913072Y-111189718D01*
X192913072Y-110270000D01*
X192900812Y-110145518D01*
X192864502Y-110025820D01*
X192806726Y-109917731D01*
X192810000Y-109884491D01*
X192810000Y-109884488D01*
X192813919Y-109844700D01*
X192810000Y-109804912D01*
X192810000Y-109654884D01*
X192862115Y-109612115D01*
X192968671Y-109482275D01*
X193047850Y-109334142D01*
X193096608Y-109173408D01*
X193113072Y-109006250D01*
X193113072Y-108568750D01*
X193096608Y-108401592D01*
X193047850Y-108240858D01*
X192968671Y-108092725D01*
X192950900Y-108071070D01*
X193002266Y-108008479D01*
X193173750Y-108179963D01*
G36*
X199451774Y-109537498D02*
G01*
X199512349Y-109683738D01*
X199486988Y-109709100D01*
X199437464Y-109709100D01*
X199435801Y-109457198D01*
X199451774Y-109537498D01*
X199451774Y-109537498D01*
G37*
X199451774Y-109537498D02*
X199512349Y-109683738D01*
X199486988Y-109709100D01*
X199437464Y-109709100D01*
X199435801Y-109457198D01*
X199451774Y-109537498D01*
G36*
X192147000Y-107153213D02*
G01*
X192147000Y-107339500D01*
X192127000Y-107339500D01*
X192127000Y-107359500D01*
X191873000Y-107359500D01*
X191873000Y-107339500D01*
X191853000Y-107339500D01*
X191853000Y-107085500D01*
X191873000Y-107085500D01*
X191873000Y-107065500D01*
X192059287Y-107065500D01*
X192147000Y-107153213D01*
X192147000Y-107153213D01*
G37*
X192147000Y-107153213D02*
X192147000Y-107339500D01*
X192127000Y-107339500D01*
X192127000Y-107359500D01*
X191873000Y-107359500D01*
X191873000Y-107339500D01*
X191853000Y-107339500D01*
X191853000Y-107085500D01*
X191873000Y-107085500D01*
X191873000Y-107065500D01*
X192059287Y-107065500D01*
X192147000Y-107153213D01*
G36*
X189550000Y-104965119D02*
G01*
X189589791Y-104961200D01*
X189954988Y-104961200D01*
X190731226Y-105737438D01*
X190385750Y-105740000D01*
X190227000Y-105898750D01*
X190227000Y-106735500D01*
X190247000Y-106735500D01*
X190247000Y-106989500D01*
X190227000Y-106989500D01*
X190227000Y-107009500D01*
X189973000Y-107009500D01*
X189973000Y-106989500D01*
X189953000Y-106989500D01*
X189953000Y-106735500D01*
X189973000Y-106735500D01*
X189973000Y-105898750D01*
X189814250Y-105740000D01*
X189400000Y-105736928D01*
X189275518Y-105749188D01*
X189155820Y-105785498D01*
X189045506Y-105844463D01*
X188948815Y-105923815D01*
X188869463Y-106020506D01*
X188810498Y-106130820D01*
X188774188Y-106250518D01*
X188772784Y-106264772D01*
X188564799Y-106056787D01*
X188539428Y-106025872D01*
X188416089Y-105924651D01*
X188275373Y-105849437D01*
X188122688Y-105803120D01*
X188003691Y-105791400D01*
X188003688Y-105791400D01*
X187963900Y-105787481D01*
X187924112Y-105791400D01*
X186993971Y-105791400D01*
X186997850Y-105784142D01*
X187046608Y-105623408D01*
X187063072Y-105456250D01*
X187063072Y-105269940D01*
X187371813Y-104961200D01*
X189510209Y-104961200D01*
X189550000Y-104965119D01*
X189550000Y-104965119D01*
G37*
X189550000Y-104965119D02*
X189589791Y-104961200D01*
X189954988Y-104961200D01*
X190731226Y-105737438D01*
X190385750Y-105740000D01*
X190227000Y-105898750D01*
X190227000Y-106735500D01*
X190247000Y-106735500D01*
X190247000Y-106989500D01*
X190227000Y-106989500D01*
X190227000Y-107009500D01*
X189973000Y-107009500D01*
X189973000Y-106989500D01*
X189953000Y-106989500D01*
X189953000Y-106735500D01*
X189973000Y-106735500D01*
X189973000Y-105898750D01*
X189814250Y-105740000D01*
X189400000Y-105736928D01*
X189275518Y-105749188D01*
X189155820Y-105785498D01*
X189045506Y-105844463D01*
X188948815Y-105923815D01*
X188869463Y-106020506D01*
X188810498Y-106130820D01*
X188774188Y-106250518D01*
X188772784Y-106264772D01*
X188564799Y-106056787D01*
X188539428Y-106025872D01*
X188416089Y-105924651D01*
X188275373Y-105849437D01*
X188122688Y-105803120D01*
X188003691Y-105791400D01*
X188003688Y-105791400D01*
X187963900Y-105787481D01*
X187924112Y-105791400D01*
X186993971Y-105791400D01*
X186997850Y-105784142D01*
X187046608Y-105623408D01*
X187063072Y-105456250D01*
X187063072Y-105269940D01*
X187371813Y-104961200D01*
X189510209Y-104961200D01*
X189550000Y-104965119D01*
G36*
X203214500Y-104573000D02*
G01*
X203234500Y-104573000D01*
X203234500Y-104827000D01*
X203214500Y-104827000D01*
X203214500Y-105651250D01*
X203278100Y-105714850D01*
X203278100Y-106964300D01*
X203117887Y-106832817D01*
X202875195Y-106703096D01*
X202611860Y-106623214D01*
X202406625Y-106603000D01*
X201993375Y-106603000D01*
X201788140Y-106623214D01*
X201524805Y-106703096D01*
X201282113Y-106832817D01*
X201073903Y-107003690D01*
X200883899Y-106813687D01*
X200858528Y-106782772D01*
X200735189Y-106681551D01*
X200594473Y-106606337D01*
X200441788Y-106560020D01*
X200322791Y-106548300D01*
X200322788Y-106548300D01*
X200283000Y-106544381D01*
X200243212Y-106548300D01*
X197196913Y-106548300D01*
X198235213Y-105510000D01*
X200645116Y-105510000D01*
X200687885Y-105562115D01*
X200817725Y-105668671D01*
X200965858Y-105747850D01*
X201126592Y-105796608D01*
X201293750Y-105813072D01*
X201731250Y-105813072D01*
X201898408Y-105796608D01*
X202059142Y-105747850D01*
X202207275Y-105668671D01*
X202228930Y-105650900D01*
X202295506Y-105705537D01*
X202405820Y-105764502D01*
X202525518Y-105800812D01*
X202650000Y-105813072D01*
X202801750Y-105810000D01*
X202960500Y-105651250D01*
X202960500Y-104827000D01*
X202940500Y-104827000D01*
X202940500Y-104573000D01*
X202960500Y-104573000D01*
X202960500Y-104553000D01*
X203214500Y-104553000D01*
X203214500Y-104573000D01*
X203214500Y-104573000D01*
G37*
X203214500Y-104573000D02*
X203234500Y-104573000D01*
X203234500Y-104827000D01*
X203214500Y-104827000D01*
X203214500Y-105651250D01*
X203278100Y-105714850D01*
X203278100Y-106964300D01*
X203117887Y-106832817D01*
X202875195Y-106703096D01*
X202611860Y-106623214D01*
X202406625Y-106603000D01*
X201993375Y-106603000D01*
X201788140Y-106623214D01*
X201524805Y-106703096D01*
X201282113Y-106832817D01*
X201073903Y-107003690D01*
X200883899Y-106813687D01*
X200858528Y-106782772D01*
X200735189Y-106681551D01*
X200594473Y-106606337D01*
X200441788Y-106560020D01*
X200322791Y-106548300D01*
X200322788Y-106548300D01*
X200283000Y-106544381D01*
X200243212Y-106548300D01*
X197196913Y-106548300D01*
X198235213Y-105510000D01*
X200645116Y-105510000D01*
X200687885Y-105562115D01*
X200817725Y-105668671D01*
X200965858Y-105747850D01*
X201126592Y-105796608D01*
X201293750Y-105813072D01*
X201731250Y-105813072D01*
X201898408Y-105796608D01*
X202059142Y-105747850D01*
X202207275Y-105668671D01*
X202228930Y-105650900D01*
X202295506Y-105705537D01*
X202405820Y-105764502D01*
X202525518Y-105800812D01*
X202650000Y-105813072D01*
X202801750Y-105810000D01*
X202960500Y-105651250D01*
X202960500Y-104827000D01*
X202940500Y-104827000D01*
X202940500Y-104573000D01*
X202960500Y-104573000D01*
X202960500Y-104553000D01*
X203214500Y-104553000D01*
X203214500Y-104573000D01*
G36*
X184539500Y-105073000D02*
G01*
X184559500Y-105073000D01*
X184559500Y-105327000D01*
X184539500Y-105327000D01*
X184539500Y-105347000D01*
X184389812Y-105347000D01*
X184384900Y-105342088D01*
X184384900Y-105053000D01*
X184539500Y-105053000D01*
X184539500Y-105073000D01*
X184539500Y-105073000D01*
G37*
X184539500Y-105073000D02*
X184559500Y-105073000D01*
X184559500Y-105327000D01*
X184539500Y-105327000D01*
X184539500Y-105347000D01*
X184389812Y-105347000D01*
X184384900Y-105342088D01*
X184384900Y-105053000D01*
X184539500Y-105053000D01*
X184539500Y-105073000D01*
M02*
