G04 #@! TF.GenerationSoftware,KiCad,Pcbnew,(5.1.2)-1*
G04 #@! TF.CreationDate,2019-11-04T01:51:56+09:00*
G04 #@! TF.ProjectId,IR,49522e6b-6963-4616-945f-706362585858,v1.1*
G04 #@! TF.SameCoordinates,Original*
G04 #@! TF.FileFunction,Soldermask,Top*
G04 #@! TF.FilePolarity,Negative*
%FSLAX46Y46*%
G04 Gerber Fmt 4.6, Leading zero omitted, Abs format (unit mm)*
G04 Created by KiCad (PCBNEW (5.1.2)-1) date 2019-11-04 01:51:56*
%MOMM*%
%LPD*%
G04 APERTURE LIST*
%ADD10C,3.600000*%
%ADD11O,2.200000X1.924000*%
%ADD12C,0.050000*%
%ADD13C,1.275000*%
%ADD14C,1.375000*%
%ADD15R,1.050000X1.460000*%
%ADD16R,4.900000X2.400000*%
%ADD17C,1.400000*%
%ADD18R,0.850000X1.900000*%
G04 APERTURE END LIST*
D10*
X180000000Y-120000000D03*
D11*
X185200000Y-114000000D03*
X185200000Y-112000000D03*
X185200000Y-110000000D03*
X185200000Y-108000000D03*
X202200000Y-108000000D03*
X202200000Y-110000000D03*
X202200000Y-112000000D03*
X202200000Y-114000000D03*
D12*
G36*
X193637493Y-116326535D02*
G01*
X193668435Y-116331125D01*
X193698778Y-116338725D01*
X193728230Y-116349263D01*
X193756508Y-116362638D01*
X193783338Y-116378719D01*
X193808463Y-116397353D01*
X193831640Y-116418360D01*
X193852647Y-116441537D01*
X193871281Y-116466662D01*
X193887362Y-116493492D01*
X193900737Y-116521770D01*
X193911275Y-116551222D01*
X193918875Y-116581565D01*
X193923465Y-116612507D01*
X193925000Y-116643750D01*
X193925000Y-117356250D01*
X193923465Y-117387493D01*
X193918875Y-117418435D01*
X193911275Y-117448778D01*
X193900737Y-117478230D01*
X193887362Y-117506508D01*
X193871281Y-117533338D01*
X193852647Y-117558463D01*
X193831640Y-117581640D01*
X193808463Y-117602647D01*
X193783338Y-117621281D01*
X193756508Y-117637362D01*
X193728230Y-117650737D01*
X193698778Y-117661275D01*
X193668435Y-117668875D01*
X193637493Y-117673465D01*
X193606250Y-117675000D01*
X192968750Y-117675000D01*
X192937507Y-117673465D01*
X192906565Y-117668875D01*
X192876222Y-117661275D01*
X192846770Y-117650737D01*
X192818492Y-117637362D01*
X192791662Y-117621281D01*
X192766537Y-117602647D01*
X192743360Y-117581640D01*
X192722353Y-117558463D01*
X192703719Y-117533338D01*
X192687638Y-117506508D01*
X192674263Y-117478230D01*
X192663725Y-117448778D01*
X192656125Y-117418435D01*
X192651535Y-117387493D01*
X192650000Y-117356250D01*
X192650000Y-116643750D01*
X192651535Y-116612507D01*
X192656125Y-116581565D01*
X192663725Y-116551222D01*
X192674263Y-116521770D01*
X192687638Y-116493492D01*
X192703719Y-116466662D01*
X192722353Y-116441537D01*
X192743360Y-116418360D01*
X192766537Y-116397353D01*
X192791662Y-116378719D01*
X192818492Y-116362638D01*
X192846770Y-116349263D01*
X192876222Y-116338725D01*
X192906565Y-116331125D01*
X192937507Y-116326535D01*
X192968750Y-116325000D01*
X193606250Y-116325000D01*
X193637493Y-116326535D01*
X193637493Y-116326535D01*
G37*
D13*
X193287500Y-117000000D03*
D12*
G36*
X192062493Y-116326535D02*
G01*
X192093435Y-116331125D01*
X192123778Y-116338725D01*
X192153230Y-116349263D01*
X192181508Y-116362638D01*
X192208338Y-116378719D01*
X192233463Y-116397353D01*
X192256640Y-116418360D01*
X192277647Y-116441537D01*
X192296281Y-116466662D01*
X192312362Y-116493492D01*
X192325737Y-116521770D01*
X192336275Y-116551222D01*
X192343875Y-116581565D01*
X192348465Y-116612507D01*
X192350000Y-116643750D01*
X192350000Y-117356250D01*
X192348465Y-117387493D01*
X192343875Y-117418435D01*
X192336275Y-117448778D01*
X192325737Y-117478230D01*
X192312362Y-117506508D01*
X192296281Y-117533338D01*
X192277647Y-117558463D01*
X192256640Y-117581640D01*
X192233463Y-117602647D01*
X192208338Y-117621281D01*
X192181508Y-117637362D01*
X192153230Y-117650737D01*
X192123778Y-117661275D01*
X192093435Y-117668875D01*
X192062493Y-117673465D01*
X192031250Y-117675000D01*
X191393750Y-117675000D01*
X191362507Y-117673465D01*
X191331565Y-117668875D01*
X191301222Y-117661275D01*
X191271770Y-117650737D01*
X191243492Y-117637362D01*
X191216662Y-117621281D01*
X191191537Y-117602647D01*
X191168360Y-117581640D01*
X191147353Y-117558463D01*
X191128719Y-117533338D01*
X191112638Y-117506508D01*
X191099263Y-117478230D01*
X191088725Y-117448778D01*
X191081125Y-117418435D01*
X191076535Y-117387493D01*
X191075000Y-117356250D01*
X191075000Y-116643750D01*
X191076535Y-116612507D01*
X191081125Y-116581565D01*
X191088725Y-116551222D01*
X191099263Y-116521770D01*
X191112638Y-116493492D01*
X191128719Y-116466662D01*
X191147353Y-116441537D01*
X191168360Y-116418360D01*
X191191537Y-116397353D01*
X191216662Y-116378719D01*
X191243492Y-116362638D01*
X191271770Y-116349263D01*
X191301222Y-116338725D01*
X191331565Y-116331125D01*
X191362507Y-116326535D01*
X191393750Y-116325000D01*
X192031250Y-116325000D01*
X192062493Y-116326535D01*
X192062493Y-116326535D01*
G37*
D13*
X191712500Y-117000000D03*
D12*
G36*
X192314943Y-114101655D02*
G01*
X192348312Y-114106605D01*
X192381035Y-114114802D01*
X192412797Y-114126166D01*
X192443293Y-114140590D01*
X192472227Y-114157932D01*
X192499323Y-114178028D01*
X192524318Y-114200682D01*
X192546972Y-114225677D01*
X192567068Y-114252773D01*
X192584410Y-114281707D01*
X192598834Y-114312203D01*
X192610198Y-114343965D01*
X192618395Y-114376688D01*
X192623345Y-114410057D01*
X192625000Y-114443750D01*
X192625000Y-115556250D01*
X192623345Y-115589943D01*
X192618395Y-115623312D01*
X192610198Y-115656035D01*
X192598834Y-115687797D01*
X192584410Y-115718293D01*
X192567068Y-115747227D01*
X192546972Y-115774323D01*
X192524318Y-115799318D01*
X192499323Y-115821972D01*
X192472227Y-115842068D01*
X192443293Y-115859410D01*
X192412797Y-115873834D01*
X192381035Y-115885198D01*
X192348312Y-115893395D01*
X192314943Y-115898345D01*
X192281250Y-115900000D01*
X191593750Y-115900000D01*
X191560057Y-115898345D01*
X191526688Y-115893395D01*
X191493965Y-115885198D01*
X191462203Y-115873834D01*
X191431707Y-115859410D01*
X191402773Y-115842068D01*
X191375677Y-115821972D01*
X191350682Y-115799318D01*
X191328028Y-115774323D01*
X191307932Y-115747227D01*
X191290590Y-115718293D01*
X191276166Y-115687797D01*
X191264802Y-115656035D01*
X191256605Y-115623312D01*
X191251655Y-115589943D01*
X191250000Y-115556250D01*
X191250000Y-114443750D01*
X191251655Y-114410057D01*
X191256605Y-114376688D01*
X191264802Y-114343965D01*
X191276166Y-114312203D01*
X191290590Y-114281707D01*
X191307932Y-114252773D01*
X191328028Y-114225677D01*
X191350682Y-114200682D01*
X191375677Y-114178028D01*
X191402773Y-114157932D01*
X191431707Y-114140590D01*
X191462203Y-114126166D01*
X191493965Y-114114802D01*
X191526688Y-114106605D01*
X191560057Y-114101655D01*
X191593750Y-114100000D01*
X192281250Y-114100000D01*
X192314943Y-114101655D01*
X192314943Y-114101655D01*
G37*
D14*
X191937500Y-115000000D03*
D12*
G36*
X190439943Y-114101655D02*
G01*
X190473312Y-114106605D01*
X190506035Y-114114802D01*
X190537797Y-114126166D01*
X190568293Y-114140590D01*
X190597227Y-114157932D01*
X190624323Y-114178028D01*
X190649318Y-114200682D01*
X190671972Y-114225677D01*
X190692068Y-114252773D01*
X190709410Y-114281707D01*
X190723834Y-114312203D01*
X190735198Y-114343965D01*
X190743395Y-114376688D01*
X190748345Y-114410057D01*
X190750000Y-114443750D01*
X190750000Y-115556250D01*
X190748345Y-115589943D01*
X190743395Y-115623312D01*
X190735198Y-115656035D01*
X190723834Y-115687797D01*
X190709410Y-115718293D01*
X190692068Y-115747227D01*
X190671972Y-115774323D01*
X190649318Y-115799318D01*
X190624323Y-115821972D01*
X190597227Y-115842068D01*
X190568293Y-115859410D01*
X190537797Y-115873834D01*
X190506035Y-115885198D01*
X190473312Y-115893395D01*
X190439943Y-115898345D01*
X190406250Y-115900000D01*
X189718750Y-115900000D01*
X189685057Y-115898345D01*
X189651688Y-115893395D01*
X189618965Y-115885198D01*
X189587203Y-115873834D01*
X189556707Y-115859410D01*
X189527773Y-115842068D01*
X189500677Y-115821972D01*
X189475682Y-115799318D01*
X189453028Y-115774323D01*
X189432932Y-115747227D01*
X189415590Y-115718293D01*
X189401166Y-115687797D01*
X189389802Y-115656035D01*
X189381605Y-115623312D01*
X189376655Y-115589943D01*
X189375000Y-115556250D01*
X189375000Y-114443750D01*
X189376655Y-114410057D01*
X189381605Y-114376688D01*
X189389802Y-114343965D01*
X189401166Y-114312203D01*
X189415590Y-114281707D01*
X189432932Y-114252773D01*
X189453028Y-114225677D01*
X189475682Y-114200682D01*
X189500677Y-114178028D01*
X189527773Y-114157932D01*
X189556707Y-114140590D01*
X189587203Y-114126166D01*
X189618965Y-114114802D01*
X189651688Y-114106605D01*
X189685057Y-114101655D01*
X189718750Y-114100000D01*
X190406250Y-114100000D01*
X190439943Y-114101655D01*
X190439943Y-114101655D01*
G37*
D14*
X190062500Y-115000000D03*
D12*
G36*
X192387493Y-106576535D02*
G01*
X192418435Y-106581125D01*
X192448778Y-106588725D01*
X192478230Y-106599263D01*
X192506508Y-106612638D01*
X192533338Y-106628719D01*
X192558463Y-106647353D01*
X192581640Y-106668360D01*
X192602647Y-106691537D01*
X192621281Y-106716662D01*
X192637362Y-106743492D01*
X192650737Y-106771770D01*
X192661275Y-106801222D01*
X192668875Y-106831565D01*
X192673465Y-106862507D01*
X192675000Y-106893750D01*
X192675000Y-107531250D01*
X192673465Y-107562493D01*
X192668875Y-107593435D01*
X192661275Y-107623778D01*
X192650737Y-107653230D01*
X192637362Y-107681508D01*
X192621281Y-107708338D01*
X192602647Y-107733463D01*
X192581640Y-107756640D01*
X192558463Y-107777647D01*
X192533338Y-107796281D01*
X192506508Y-107812362D01*
X192478230Y-107825737D01*
X192448778Y-107836275D01*
X192418435Y-107843875D01*
X192387493Y-107848465D01*
X192356250Y-107850000D01*
X191643750Y-107850000D01*
X191612507Y-107848465D01*
X191581565Y-107843875D01*
X191551222Y-107836275D01*
X191521770Y-107825737D01*
X191493492Y-107812362D01*
X191466662Y-107796281D01*
X191441537Y-107777647D01*
X191418360Y-107756640D01*
X191397353Y-107733463D01*
X191378719Y-107708338D01*
X191362638Y-107681508D01*
X191349263Y-107653230D01*
X191338725Y-107623778D01*
X191331125Y-107593435D01*
X191326535Y-107562493D01*
X191325000Y-107531250D01*
X191325000Y-106893750D01*
X191326535Y-106862507D01*
X191331125Y-106831565D01*
X191338725Y-106801222D01*
X191349263Y-106771770D01*
X191362638Y-106743492D01*
X191378719Y-106716662D01*
X191397353Y-106691537D01*
X191418360Y-106668360D01*
X191441537Y-106647353D01*
X191466662Y-106628719D01*
X191493492Y-106612638D01*
X191521770Y-106599263D01*
X191551222Y-106588725D01*
X191581565Y-106581125D01*
X191612507Y-106576535D01*
X191643750Y-106575000D01*
X192356250Y-106575000D01*
X192387493Y-106576535D01*
X192387493Y-106576535D01*
G37*
D13*
X192000000Y-107212500D03*
D12*
G36*
X192387493Y-108151535D02*
G01*
X192418435Y-108156125D01*
X192448778Y-108163725D01*
X192478230Y-108174263D01*
X192506508Y-108187638D01*
X192533338Y-108203719D01*
X192558463Y-108222353D01*
X192581640Y-108243360D01*
X192602647Y-108266537D01*
X192621281Y-108291662D01*
X192637362Y-108318492D01*
X192650737Y-108346770D01*
X192661275Y-108376222D01*
X192668875Y-108406565D01*
X192673465Y-108437507D01*
X192675000Y-108468750D01*
X192675000Y-109106250D01*
X192673465Y-109137493D01*
X192668875Y-109168435D01*
X192661275Y-109198778D01*
X192650737Y-109228230D01*
X192637362Y-109256508D01*
X192621281Y-109283338D01*
X192602647Y-109308463D01*
X192581640Y-109331640D01*
X192558463Y-109352647D01*
X192533338Y-109371281D01*
X192506508Y-109387362D01*
X192478230Y-109400737D01*
X192448778Y-109411275D01*
X192418435Y-109418875D01*
X192387493Y-109423465D01*
X192356250Y-109425000D01*
X191643750Y-109425000D01*
X191612507Y-109423465D01*
X191581565Y-109418875D01*
X191551222Y-109411275D01*
X191521770Y-109400737D01*
X191493492Y-109387362D01*
X191466662Y-109371281D01*
X191441537Y-109352647D01*
X191418360Y-109331640D01*
X191397353Y-109308463D01*
X191378719Y-109283338D01*
X191362638Y-109256508D01*
X191349263Y-109228230D01*
X191338725Y-109198778D01*
X191331125Y-109168435D01*
X191326535Y-109137493D01*
X191325000Y-109106250D01*
X191325000Y-108468750D01*
X191326535Y-108437507D01*
X191331125Y-108406565D01*
X191338725Y-108376222D01*
X191349263Y-108346770D01*
X191362638Y-108318492D01*
X191378719Y-108291662D01*
X191397353Y-108266537D01*
X191418360Y-108243360D01*
X191441537Y-108222353D01*
X191466662Y-108203719D01*
X191493492Y-108187638D01*
X191521770Y-108174263D01*
X191551222Y-108163725D01*
X191581565Y-108156125D01*
X191612507Y-108151535D01*
X191643750Y-108150000D01*
X192356250Y-108150000D01*
X192387493Y-108151535D01*
X192387493Y-108151535D01*
G37*
D13*
X192000000Y-108787500D03*
D12*
G36*
X190689943Y-108051655D02*
G01*
X190723312Y-108056605D01*
X190756035Y-108064802D01*
X190787797Y-108076166D01*
X190818293Y-108090590D01*
X190847227Y-108107932D01*
X190874323Y-108128028D01*
X190899318Y-108150682D01*
X190921972Y-108175677D01*
X190942068Y-108202773D01*
X190959410Y-108231707D01*
X190973834Y-108262203D01*
X190985198Y-108293965D01*
X190993395Y-108326688D01*
X190998345Y-108360057D01*
X191000000Y-108393750D01*
X191000000Y-109081250D01*
X190998345Y-109114943D01*
X190993395Y-109148312D01*
X190985198Y-109181035D01*
X190973834Y-109212797D01*
X190959410Y-109243293D01*
X190942068Y-109272227D01*
X190921972Y-109299323D01*
X190899318Y-109324318D01*
X190874323Y-109346972D01*
X190847227Y-109367068D01*
X190818293Y-109384410D01*
X190787797Y-109398834D01*
X190756035Y-109410198D01*
X190723312Y-109418395D01*
X190689943Y-109423345D01*
X190656250Y-109425000D01*
X189543750Y-109425000D01*
X189510057Y-109423345D01*
X189476688Y-109418395D01*
X189443965Y-109410198D01*
X189412203Y-109398834D01*
X189381707Y-109384410D01*
X189352773Y-109367068D01*
X189325677Y-109346972D01*
X189300682Y-109324318D01*
X189278028Y-109299323D01*
X189257932Y-109272227D01*
X189240590Y-109243293D01*
X189226166Y-109212797D01*
X189214802Y-109181035D01*
X189206605Y-109148312D01*
X189201655Y-109114943D01*
X189200000Y-109081250D01*
X189200000Y-108393750D01*
X189201655Y-108360057D01*
X189206605Y-108326688D01*
X189214802Y-108293965D01*
X189226166Y-108262203D01*
X189240590Y-108231707D01*
X189257932Y-108202773D01*
X189278028Y-108175677D01*
X189300682Y-108150682D01*
X189325677Y-108128028D01*
X189352773Y-108107932D01*
X189381707Y-108090590D01*
X189412203Y-108076166D01*
X189443965Y-108064802D01*
X189476688Y-108056605D01*
X189510057Y-108051655D01*
X189543750Y-108050000D01*
X190656250Y-108050000D01*
X190689943Y-108051655D01*
X190689943Y-108051655D01*
G37*
D14*
X190100000Y-108737500D03*
D12*
G36*
X190689943Y-106176655D02*
G01*
X190723312Y-106181605D01*
X190756035Y-106189802D01*
X190787797Y-106201166D01*
X190818293Y-106215590D01*
X190847227Y-106232932D01*
X190874323Y-106253028D01*
X190899318Y-106275682D01*
X190921972Y-106300677D01*
X190942068Y-106327773D01*
X190959410Y-106356707D01*
X190973834Y-106387203D01*
X190985198Y-106418965D01*
X190993395Y-106451688D01*
X190998345Y-106485057D01*
X191000000Y-106518750D01*
X191000000Y-107206250D01*
X190998345Y-107239943D01*
X190993395Y-107273312D01*
X190985198Y-107306035D01*
X190973834Y-107337797D01*
X190959410Y-107368293D01*
X190942068Y-107397227D01*
X190921972Y-107424323D01*
X190899318Y-107449318D01*
X190874323Y-107471972D01*
X190847227Y-107492068D01*
X190818293Y-107509410D01*
X190787797Y-107523834D01*
X190756035Y-107535198D01*
X190723312Y-107543395D01*
X190689943Y-107548345D01*
X190656250Y-107550000D01*
X189543750Y-107550000D01*
X189510057Y-107548345D01*
X189476688Y-107543395D01*
X189443965Y-107535198D01*
X189412203Y-107523834D01*
X189381707Y-107509410D01*
X189352773Y-107492068D01*
X189325677Y-107471972D01*
X189300682Y-107449318D01*
X189278028Y-107424323D01*
X189257932Y-107397227D01*
X189240590Y-107368293D01*
X189226166Y-107337797D01*
X189214802Y-107306035D01*
X189206605Y-107273312D01*
X189201655Y-107239943D01*
X189200000Y-107206250D01*
X189200000Y-106518750D01*
X189201655Y-106485057D01*
X189206605Y-106451688D01*
X189214802Y-106418965D01*
X189226166Y-106387203D01*
X189240590Y-106356707D01*
X189257932Y-106327773D01*
X189278028Y-106300677D01*
X189300682Y-106275682D01*
X189325677Y-106253028D01*
X189352773Y-106232932D01*
X189381707Y-106215590D01*
X189412203Y-106201166D01*
X189443965Y-106189802D01*
X189476688Y-106181605D01*
X189510057Y-106176655D01*
X189543750Y-106175000D01*
X190656250Y-106175000D01*
X190689943Y-106176655D01*
X190689943Y-106176655D01*
G37*
D14*
X190100000Y-106862500D03*
D12*
G36*
X203437493Y-104026535D02*
G01*
X203468435Y-104031125D01*
X203498778Y-104038725D01*
X203528230Y-104049263D01*
X203556508Y-104062638D01*
X203583338Y-104078719D01*
X203608463Y-104097353D01*
X203631640Y-104118360D01*
X203652647Y-104141537D01*
X203671281Y-104166662D01*
X203687362Y-104193492D01*
X203700737Y-104221770D01*
X203711275Y-104251222D01*
X203718875Y-104281565D01*
X203723465Y-104312507D01*
X203725000Y-104343750D01*
X203725000Y-105056250D01*
X203723465Y-105087493D01*
X203718875Y-105118435D01*
X203711275Y-105148778D01*
X203700737Y-105178230D01*
X203687362Y-105206508D01*
X203671281Y-105233338D01*
X203652647Y-105258463D01*
X203631640Y-105281640D01*
X203608463Y-105302647D01*
X203583338Y-105321281D01*
X203556508Y-105337362D01*
X203528230Y-105350737D01*
X203498778Y-105361275D01*
X203468435Y-105368875D01*
X203437493Y-105373465D01*
X203406250Y-105375000D01*
X202768750Y-105375000D01*
X202737507Y-105373465D01*
X202706565Y-105368875D01*
X202676222Y-105361275D01*
X202646770Y-105350737D01*
X202618492Y-105337362D01*
X202591662Y-105321281D01*
X202566537Y-105302647D01*
X202543360Y-105281640D01*
X202522353Y-105258463D01*
X202503719Y-105233338D01*
X202487638Y-105206508D01*
X202474263Y-105178230D01*
X202463725Y-105148778D01*
X202456125Y-105118435D01*
X202451535Y-105087493D01*
X202450000Y-105056250D01*
X202450000Y-104343750D01*
X202451535Y-104312507D01*
X202456125Y-104281565D01*
X202463725Y-104251222D01*
X202474263Y-104221770D01*
X202487638Y-104193492D01*
X202503719Y-104166662D01*
X202522353Y-104141537D01*
X202543360Y-104118360D01*
X202566537Y-104097353D01*
X202591662Y-104078719D01*
X202618492Y-104062638D01*
X202646770Y-104049263D01*
X202676222Y-104038725D01*
X202706565Y-104031125D01*
X202737507Y-104026535D01*
X202768750Y-104025000D01*
X203406250Y-104025000D01*
X203437493Y-104026535D01*
X203437493Y-104026535D01*
G37*
D13*
X203087500Y-104700000D03*
D12*
G36*
X201862493Y-104026535D02*
G01*
X201893435Y-104031125D01*
X201923778Y-104038725D01*
X201953230Y-104049263D01*
X201981508Y-104062638D01*
X202008338Y-104078719D01*
X202033463Y-104097353D01*
X202056640Y-104118360D01*
X202077647Y-104141537D01*
X202096281Y-104166662D01*
X202112362Y-104193492D01*
X202125737Y-104221770D01*
X202136275Y-104251222D01*
X202143875Y-104281565D01*
X202148465Y-104312507D01*
X202150000Y-104343750D01*
X202150000Y-105056250D01*
X202148465Y-105087493D01*
X202143875Y-105118435D01*
X202136275Y-105148778D01*
X202125737Y-105178230D01*
X202112362Y-105206508D01*
X202096281Y-105233338D01*
X202077647Y-105258463D01*
X202056640Y-105281640D01*
X202033463Y-105302647D01*
X202008338Y-105321281D01*
X201981508Y-105337362D01*
X201953230Y-105350737D01*
X201923778Y-105361275D01*
X201893435Y-105368875D01*
X201862493Y-105373465D01*
X201831250Y-105375000D01*
X201193750Y-105375000D01*
X201162507Y-105373465D01*
X201131565Y-105368875D01*
X201101222Y-105361275D01*
X201071770Y-105350737D01*
X201043492Y-105337362D01*
X201016662Y-105321281D01*
X200991537Y-105302647D01*
X200968360Y-105281640D01*
X200947353Y-105258463D01*
X200928719Y-105233338D01*
X200912638Y-105206508D01*
X200899263Y-105178230D01*
X200888725Y-105148778D01*
X200881125Y-105118435D01*
X200876535Y-105087493D01*
X200875000Y-105056250D01*
X200875000Y-104343750D01*
X200876535Y-104312507D01*
X200881125Y-104281565D01*
X200888725Y-104251222D01*
X200899263Y-104221770D01*
X200912638Y-104193492D01*
X200928719Y-104166662D01*
X200947353Y-104141537D01*
X200968360Y-104118360D01*
X200991537Y-104097353D01*
X201016662Y-104078719D01*
X201043492Y-104062638D01*
X201071770Y-104049263D01*
X201101222Y-104038725D01*
X201131565Y-104031125D01*
X201162507Y-104026535D01*
X201193750Y-104025000D01*
X201831250Y-104025000D01*
X201862493Y-104026535D01*
X201862493Y-104026535D01*
G37*
D13*
X201512500Y-104700000D03*
D12*
G36*
X186337493Y-104526535D02*
G01*
X186368435Y-104531125D01*
X186398778Y-104538725D01*
X186428230Y-104549263D01*
X186456508Y-104562638D01*
X186483338Y-104578719D01*
X186508463Y-104597353D01*
X186531640Y-104618360D01*
X186552647Y-104641537D01*
X186571281Y-104666662D01*
X186587362Y-104693492D01*
X186600737Y-104721770D01*
X186611275Y-104751222D01*
X186618875Y-104781565D01*
X186623465Y-104812507D01*
X186625000Y-104843750D01*
X186625000Y-105556250D01*
X186623465Y-105587493D01*
X186618875Y-105618435D01*
X186611275Y-105648778D01*
X186600737Y-105678230D01*
X186587362Y-105706508D01*
X186571281Y-105733338D01*
X186552647Y-105758463D01*
X186531640Y-105781640D01*
X186508463Y-105802647D01*
X186483338Y-105821281D01*
X186456508Y-105837362D01*
X186428230Y-105850737D01*
X186398778Y-105861275D01*
X186368435Y-105868875D01*
X186337493Y-105873465D01*
X186306250Y-105875000D01*
X185668750Y-105875000D01*
X185637507Y-105873465D01*
X185606565Y-105868875D01*
X185576222Y-105861275D01*
X185546770Y-105850737D01*
X185518492Y-105837362D01*
X185491662Y-105821281D01*
X185466537Y-105802647D01*
X185443360Y-105781640D01*
X185422353Y-105758463D01*
X185403719Y-105733338D01*
X185387638Y-105706508D01*
X185374263Y-105678230D01*
X185363725Y-105648778D01*
X185356125Y-105618435D01*
X185351535Y-105587493D01*
X185350000Y-105556250D01*
X185350000Y-104843750D01*
X185351535Y-104812507D01*
X185356125Y-104781565D01*
X185363725Y-104751222D01*
X185374263Y-104721770D01*
X185387638Y-104693492D01*
X185403719Y-104666662D01*
X185422353Y-104641537D01*
X185443360Y-104618360D01*
X185466537Y-104597353D01*
X185491662Y-104578719D01*
X185518492Y-104562638D01*
X185546770Y-104549263D01*
X185576222Y-104538725D01*
X185606565Y-104531125D01*
X185637507Y-104526535D01*
X185668750Y-104525000D01*
X186306250Y-104525000D01*
X186337493Y-104526535D01*
X186337493Y-104526535D01*
G37*
D13*
X185987500Y-105200000D03*
D12*
G36*
X184762493Y-104526535D02*
G01*
X184793435Y-104531125D01*
X184823778Y-104538725D01*
X184853230Y-104549263D01*
X184881508Y-104562638D01*
X184908338Y-104578719D01*
X184933463Y-104597353D01*
X184956640Y-104618360D01*
X184977647Y-104641537D01*
X184996281Y-104666662D01*
X185012362Y-104693492D01*
X185025737Y-104721770D01*
X185036275Y-104751222D01*
X185043875Y-104781565D01*
X185048465Y-104812507D01*
X185050000Y-104843750D01*
X185050000Y-105556250D01*
X185048465Y-105587493D01*
X185043875Y-105618435D01*
X185036275Y-105648778D01*
X185025737Y-105678230D01*
X185012362Y-105706508D01*
X184996281Y-105733338D01*
X184977647Y-105758463D01*
X184956640Y-105781640D01*
X184933463Y-105802647D01*
X184908338Y-105821281D01*
X184881508Y-105837362D01*
X184853230Y-105850737D01*
X184823778Y-105861275D01*
X184793435Y-105868875D01*
X184762493Y-105873465D01*
X184731250Y-105875000D01*
X184093750Y-105875000D01*
X184062507Y-105873465D01*
X184031565Y-105868875D01*
X184001222Y-105861275D01*
X183971770Y-105850737D01*
X183943492Y-105837362D01*
X183916662Y-105821281D01*
X183891537Y-105802647D01*
X183868360Y-105781640D01*
X183847353Y-105758463D01*
X183828719Y-105733338D01*
X183812638Y-105706508D01*
X183799263Y-105678230D01*
X183788725Y-105648778D01*
X183781125Y-105618435D01*
X183776535Y-105587493D01*
X183775000Y-105556250D01*
X183775000Y-104843750D01*
X183776535Y-104812507D01*
X183781125Y-104781565D01*
X183788725Y-104751222D01*
X183799263Y-104721770D01*
X183812638Y-104693492D01*
X183828719Y-104666662D01*
X183847353Y-104641537D01*
X183868360Y-104618360D01*
X183891537Y-104597353D01*
X183916662Y-104578719D01*
X183943492Y-104562638D01*
X183971770Y-104549263D01*
X184001222Y-104538725D01*
X184031565Y-104531125D01*
X184062507Y-104526535D01*
X184093750Y-104525000D01*
X184731250Y-104525000D01*
X184762493Y-104526535D01*
X184762493Y-104526535D01*
G37*
D13*
X184412500Y-105200000D03*
D12*
G36*
X184762493Y-102626535D02*
G01*
X184793435Y-102631125D01*
X184823778Y-102638725D01*
X184853230Y-102649263D01*
X184881508Y-102662638D01*
X184908338Y-102678719D01*
X184933463Y-102697353D01*
X184956640Y-102718360D01*
X184977647Y-102741537D01*
X184996281Y-102766662D01*
X185012362Y-102793492D01*
X185025737Y-102821770D01*
X185036275Y-102851222D01*
X185043875Y-102881565D01*
X185048465Y-102912507D01*
X185050000Y-102943750D01*
X185050000Y-103656250D01*
X185048465Y-103687493D01*
X185043875Y-103718435D01*
X185036275Y-103748778D01*
X185025737Y-103778230D01*
X185012362Y-103806508D01*
X184996281Y-103833338D01*
X184977647Y-103858463D01*
X184956640Y-103881640D01*
X184933463Y-103902647D01*
X184908338Y-103921281D01*
X184881508Y-103937362D01*
X184853230Y-103950737D01*
X184823778Y-103961275D01*
X184793435Y-103968875D01*
X184762493Y-103973465D01*
X184731250Y-103975000D01*
X184093750Y-103975000D01*
X184062507Y-103973465D01*
X184031565Y-103968875D01*
X184001222Y-103961275D01*
X183971770Y-103950737D01*
X183943492Y-103937362D01*
X183916662Y-103921281D01*
X183891537Y-103902647D01*
X183868360Y-103881640D01*
X183847353Y-103858463D01*
X183828719Y-103833338D01*
X183812638Y-103806508D01*
X183799263Y-103778230D01*
X183788725Y-103748778D01*
X183781125Y-103718435D01*
X183776535Y-103687493D01*
X183775000Y-103656250D01*
X183775000Y-102943750D01*
X183776535Y-102912507D01*
X183781125Y-102881565D01*
X183788725Y-102851222D01*
X183799263Y-102821770D01*
X183812638Y-102793492D01*
X183828719Y-102766662D01*
X183847353Y-102741537D01*
X183868360Y-102718360D01*
X183891537Y-102697353D01*
X183916662Y-102678719D01*
X183943492Y-102662638D01*
X183971770Y-102649263D01*
X184001222Y-102638725D01*
X184031565Y-102631125D01*
X184062507Y-102626535D01*
X184093750Y-102625000D01*
X184731250Y-102625000D01*
X184762493Y-102626535D01*
X184762493Y-102626535D01*
G37*
D13*
X184412500Y-103300000D03*
D12*
G36*
X186337493Y-102626535D02*
G01*
X186368435Y-102631125D01*
X186398778Y-102638725D01*
X186428230Y-102649263D01*
X186456508Y-102662638D01*
X186483338Y-102678719D01*
X186508463Y-102697353D01*
X186531640Y-102718360D01*
X186552647Y-102741537D01*
X186571281Y-102766662D01*
X186587362Y-102793492D01*
X186600737Y-102821770D01*
X186611275Y-102851222D01*
X186618875Y-102881565D01*
X186623465Y-102912507D01*
X186625000Y-102943750D01*
X186625000Y-103656250D01*
X186623465Y-103687493D01*
X186618875Y-103718435D01*
X186611275Y-103748778D01*
X186600737Y-103778230D01*
X186587362Y-103806508D01*
X186571281Y-103833338D01*
X186552647Y-103858463D01*
X186531640Y-103881640D01*
X186508463Y-103902647D01*
X186483338Y-103921281D01*
X186456508Y-103937362D01*
X186428230Y-103950737D01*
X186398778Y-103961275D01*
X186368435Y-103968875D01*
X186337493Y-103973465D01*
X186306250Y-103975000D01*
X185668750Y-103975000D01*
X185637507Y-103973465D01*
X185606565Y-103968875D01*
X185576222Y-103961275D01*
X185546770Y-103950737D01*
X185518492Y-103937362D01*
X185491662Y-103921281D01*
X185466537Y-103902647D01*
X185443360Y-103881640D01*
X185422353Y-103858463D01*
X185403719Y-103833338D01*
X185387638Y-103806508D01*
X185374263Y-103778230D01*
X185363725Y-103748778D01*
X185356125Y-103718435D01*
X185351535Y-103687493D01*
X185350000Y-103656250D01*
X185350000Y-102943750D01*
X185351535Y-102912507D01*
X185356125Y-102881565D01*
X185363725Y-102851222D01*
X185374263Y-102821770D01*
X185387638Y-102793492D01*
X185403719Y-102766662D01*
X185422353Y-102741537D01*
X185443360Y-102718360D01*
X185466537Y-102697353D01*
X185491662Y-102678719D01*
X185518492Y-102662638D01*
X185546770Y-102649263D01*
X185576222Y-102638725D01*
X185606565Y-102631125D01*
X185637507Y-102626535D01*
X185668750Y-102625000D01*
X186306250Y-102625000D01*
X186337493Y-102626535D01*
X186337493Y-102626535D01*
G37*
D13*
X185987500Y-103300000D03*
D12*
G36*
X193462493Y-120426535D02*
G01*
X193493435Y-120431125D01*
X193523778Y-120438725D01*
X193553230Y-120449263D01*
X193581508Y-120462638D01*
X193608338Y-120478719D01*
X193633463Y-120497353D01*
X193656640Y-120518360D01*
X193677647Y-120541537D01*
X193696281Y-120566662D01*
X193712362Y-120593492D01*
X193725737Y-120621770D01*
X193736275Y-120651222D01*
X193743875Y-120681565D01*
X193748465Y-120712507D01*
X193750000Y-120743750D01*
X193750000Y-121456250D01*
X193748465Y-121487493D01*
X193743875Y-121518435D01*
X193736275Y-121548778D01*
X193725737Y-121578230D01*
X193712362Y-121606508D01*
X193696281Y-121633338D01*
X193677647Y-121658463D01*
X193656640Y-121681640D01*
X193633463Y-121702647D01*
X193608338Y-121721281D01*
X193581508Y-121737362D01*
X193553230Y-121750737D01*
X193523778Y-121761275D01*
X193493435Y-121768875D01*
X193462493Y-121773465D01*
X193431250Y-121775000D01*
X192793750Y-121775000D01*
X192762507Y-121773465D01*
X192731565Y-121768875D01*
X192701222Y-121761275D01*
X192671770Y-121750737D01*
X192643492Y-121737362D01*
X192616662Y-121721281D01*
X192591537Y-121702647D01*
X192568360Y-121681640D01*
X192547353Y-121658463D01*
X192528719Y-121633338D01*
X192512638Y-121606508D01*
X192499263Y-121578230D01*
X192488725Y-121548778D01*
X192481125Y-121518435D01*
X192476535Y-121487493D01*
X192475000Y-121456250D01*
X192475000Y-120743750D01*
X192476535Y-120712507D01*
X192481125Y-120681565D01*
X192488725Y-120651222D01*
X192499263Y-120621770D01*
X192512638Y-120593492D01*
X192528719Y-120566662D01*
X192547353Y-120541537D01*
X192568360Y-120518360D01*
X192591537Y-120497353D01*
X192616662Y-120478719D01*
X192643492Y-120462638D01*
X192671770Y-120449263D01*
X192701222Y-120438725D01*
X192731565Y-120431125D01*
X192762507Y-120426535D01*
X192793750Y-120425000D01*
X193431250Y-120425000D01*
X193462493Y-120426535D01*
X193462493Y-120426535D01*
G37*
D13*
X193112500Y-121100000D03*
D12*
G36*
X195037493Y-120426535D02*
G01*
X195068435Y-120431125D01*
X195098778Y-120438725D01*
X195128230Y-120449263D01*
X195156508Y-120462638D01*
X195183338Y-120478719D01*
X195208463Y-120497353D01*
X195231640Y-120518360D01*
X195252647Y-120541537D01*
X195271281Y-120566662D01*
X195287362Y-120593492D01*
X195300737Y-120621770D01*
X195311275Y-120651222D01*
X195318875Y-120681565D01*
X195323465Y-120712507D01*
X195325000Y-120743750D01*
X195325000Y-121456250D01*
X195323465Y-121487493D01*
X195318875Y-121518435D01*
X195311275Y-121548778D01*
X195300737Y-121578230D01*
X195287362Y-121606508D01*
X195271281Y-121633338D01*
X195252647Y-121658463D01*
X195231640Y-121681640D01*
X195208463Y-121702647D01*
X195183338Y-121721281D01*
X195156508Y-121737362D01*
X195128230Y-121750737D01*
X195098778Y-121761275D01*
X195068435Y-121768875D01*
X195037493Y-121773465D01*
X195006250Y-121775000D01*
X194368750Y-121775000D01*
X194337507Y-121773465D01*
X194306565Y-121768875D01*
X194276222Y-121761275D01*
X194246770Y-121750737D01*
X194218492Y-121737362D01*
X194191662Y-121721281D01*
X194166537Y-121702647D01*
X194143360Y-121681640D01*
X194122353Y-121658463D01*
X194103719Y-121633338D01*
X194087638Y-121606508D01*
X194074263Y-121578230D01*
X194063725Y-121548778D01*
X194056125Y-121518435D01*
X194051535Y-121487493D01*
X194050000Y-121456250D01*
X194050000Y-120743750D01*
X194051535Y-120712507D01*
X194056125Y-120681565D01*
X194063725Y-120651222D01*
X194074263Y-120621770D01*
X194087638Y-120593492D01*
X194103719Y-120566662D01*
X194122353Y-120541537D01*
X194143360Y-120518360D01*
X194166537Y-120497353D01*
X194191662Y-120478719D01*
X194218492Y-120462638D01*
X194246770Y-120449263D01*
X194276222Y-120438725D01*
X194306565Y-120431125D01*
X194337507Y-120426535D01*
X194368750Y-120425000D01*
X195006250Y-120425000D01*
X195037493Y-120426535D01*
X195037493Y-120426535D01*
G37*
D13*
X194687500Y-121100000D03*
D12*
G36*
X191737493Y-120426535D02*
G01*
X191768435Y-120431125D01*
X191798778Y-120438725D01*
X191828230Y-120449263D01*
X191856508Y-120462638D01*
X191883338Y-120478719D01*
X191908463Y-120497353D01*
X191931640Y-120518360D01*
X191952647Y-120541537D01*
X191971281Y-120566662D01*
X191987362Y-120593492D01*
X192000737Y-120621770D01*
X192011275Y-120651222D01*
X192018875Y-120681565D01*
X192023465Y-120712507D01*
X192025000Y-120743750D01*
X192025000Y-121456250D01*
X192023465Y-121487493D01*
X192018875Y-121518435D01*
X192011275Y-121548778D01*
X192000737Y-121578230D01*
X191987362Y-121606508D01*
X191971281Y-121633338D01*
X191952647Y-121658463D01*
X191931640Y-121681640D01*
X191908463Y-121702647D01*
X191883338Y-121721281D01*
X191856508Y-121737362D01*
X191828230Y-121750737D01*
X191798778Y-121761275D01*
X191768435Y-121768875D01*
X191737493Y-121773465D01*
X191706250Y-121775000D01*
X191068750Y-121775000D01*
X191037507Y-121773465D01*
X191006565Y-121768875D01*
X190976222Y-121761275D01*
X190946770Y-121750737D01*
X190918492Y-121737362D01*
X190891662Y-121721281D01*
X190866537Y-121702647D01*
X190843360Y-121681640D01*
X190822353Y-121658463D01*
X190803719Y-121633338D01*
X190787638Y-121606508D01*
X190774263Y-121578230D01*
X190763725Y-121548778D01*
X190756125Y-121518435D01*
X190751535Y-121487493D01*
X190750000Y-121456250D01*
X190750000Y-120743750D01*
X190751535Y-120712507D01*
X190756125Y-120681565D01*
X190763725Y-120651222D01*
X190774263Y-120621770D01*
X190787638Y-120593492D01*
X190803719Y-120566662D01*
X190822353Y-120541537D01*
X190843360Y-120518360D01*
X190866537Y-120497353D01*
X190891662Y-120478719D01*
X190918492Y-120462638D01*
X190946770Y-120449263D01*
X190976222Y-120438725D01*
X191006565Y-120431125D01*
X191037507Y-120426535D01*
X191068750Y-120425000D01*
X191706250Y-120425000D01*
X191737493Y-120426535D01*
X191737493Y-120426535D01*
G37*
D13*
X191387500Y-121100000D03*
D12*
G36*
X190162493Y-120426535D02*
G01*
X190193435Y-120431125D01*
X190223778Y-120438725D01*
X190253230Y-120449263D01*
X190281508Y-120462638D01*
X190308338Y-120478719D01*
X190333463Y-120497353D01*
X190356640Y-120518360D01*
X190377647Y-120541537D01*
X190396281Y-120566662D01*
X190412362Y-120593492D01*
X190425737Y-120621770D01*
X190436275Y-120651222D01*
X190443875Y-120681565D01*
X190448465Y-120712507D01*
X190450000Y-120743750D01*
X190450000Y-121456250D01*
X190448465Y-121487493D01*
X190443875Y-121518435D01*
X190436275Y-121548778D01*
X190425737Y-121578230D01*
X190412362Y-121606508D01*
X190396281Y-121633338D01*
X190377647Y-121658463D01*
X190356640Y-121681640D01*
X190333463Y-121702647D01*
X190308338Y-121721281D01*
X190281508Y-121737362D01*
X190253230Y-121750737D01*
X190223778Y-121761275D01*
X190193435Y-121768875D01*
X190162493Y-121773465D01*
X190131250Y-121775000D01*
X189493750Y-121775000D01*
X189462507Y-121773465D01*
X189431565Y-121768875D01*
X189401222Y-121761275D01*
X189371770Y-121750737D01*
X189343492Y-121737362D01*
X189316662Y-121721281D01*
X189291537Y-121702647D01*
X189268360Y-121681640D01*
X189247353Y-121658463D01*
X189228719Y-121633338D01*
X189212638Y-121606508D01*
X189199263Y-121578230D01*
X189188725Y-121548778D01*
X189181125Y-121518435D01*
X189176535Y-121487493D01*
X189175000Y-121456250D01*
X189175000Y-120743750D01*
X189176535Y-120712507D01*
X189181125Y-120681565D01*
X189188725Y-120651222D01*
X189199263Y-120621770D01*
X189212638Y-120593492D01*
X189228719Y-120566662D01*
X189247353Y-120541537D01*
X189268360Y-120518360D01*
X189291537Y-120497353D01*
X189316662Y-120478719D01*
X189343492Y-120462638D01*
X189371770Y-120449263D01*
X189401222Y-120438725D01*
X189431565Y-120431125D01*
X189462507Y-120426535D01*
X189493750Y-120425000D01*
X190131250Y-120425000D01*
X190162493Y-120426535D01*
X190162493Y-120426535D01*
G37*
D13*
X189812500Y-121100000D03*
D12*
G36*
X206337493Y-118726535D02*
G01*
X206368435Y-118731125D01*
X206398778Y-118738725D01*
X206428230Y-118749263D01*
X206456508Y-118762638D01*
X206483338Y-118778719D01*
X206508463Y-118797353D01*
X206531640Y-118818360D01*
X206552647Y-118841537D01*
X206571281Y-118866662D01*
X206587362Y-118893492D01*
X206600737Y-118921770D01*
X206611275Y-118951222D01*
X206618875Y-118981565D01*
X206623465Y-119012507D01*
X206625000Y-119043750D01*
X206625000Y-119756250D01*
X206623465Y-119787493D01*
X206618875Y-119818435D01*
X206611275Y-119848778D01*
X206600737Y-119878230D01*
X206587362Y-119906508D01*
X206571281Y-119933338D01*
X206552647Y-119958463D01*
X206531640Y-119981640D01*
X206508463Y-120002647D01*
X206483338Y-120021281D01*
X206456508Y-120037362D01*
X206428230Y-120050737D01*
X206398778Y-120061275D01*
X206368435Y-120068875D01*
X206337493Y-120073465D01*
X206306250Y-120075000D01*
X205668750Y-120075000D01*
X205637507Y-120073465D01*
X205606565Y-120068875D01*
X205576222Y-120061275D01*
X205546770Y-120050737D01*
X205518492Y-120037362D01*
X205491662Y-120021281D01*
X205466537Y-120002647D01*
X205443360Y-119981640D01*
X205422353Y-119958463D01*
X205403719Y-119933338D01*
X205387638Y-119906508D01*
X205374263Y-119878230D01*
X205363725Y-119848778D01*
X205356125Y-119818435D01*
X205351535Y-119787493D01*
X205350000Y-119756250D01*
X205350000Y-119043750D01*
X205351535Y-119012507D01*
X205356125Y-118981565D01*
X205363725Y-118951222D01*
X205374263Y-118921770D01*
X205387638Y-118893492D01*
X205403719Y-118866662D01*
X205422353Y-118841537D01*
X205443360Y-118818360D01*
X205466537Y-118797353D01*
X205491662Y-118778719D01*
X205518492Y-118762638D01*
X205546770Y-118749263D01*
X205576222Y-118738725D01*
X205606565Y-118731125D01*
X205637507Y-118726535D01*
X205668750Y-118725000D01*
X206306250Y-118725000D01*
X206337493Y-118726535D01*
X206337493Y-118726535D01*
G37*
D13*
X205987500Y-119400000D03*
D12*
G36*
X204762493Y-118726535D02*
G01*
X204793435Y-118731125D01*
X204823778Y-118738725D01*
X204853230Y-118749263D01*
X204881508Y-118762638D01*
X204908338Y-118778719D01*
X204933463Y-118797353D01*
X204956640Y-118818360D01*
X204977647Y-118841537D01*
X204996281Y-118866662D01*
X205012362Y-118893492D01*
X205025737Y-118921770D01*
X205036275Y-118951222D01*
X205043875Y-118981565D01*
X205048465Y-119012507D01*
X205050000Y-119043750D01*
X205050000Y-119756250D01*
X205048465Y-119787493D01*
X205043875Y-119818435D01*
X205036275Y-119848778D01*
X205025737Y-119878230D01*
X205012362Y-119906508D01*
X204996281Y-119933338D01*
X204977647Y-119958463D01*
X204956640Y-119981640D01*
X204933463Y-120002647D01*
X204908338Y-120021281D01*
X204881508Y-120037362D01*
X204853230Y-120050737D01*
X204823778Y-120061275D01*
X204793435Y-120068875D01*
X204762493Y-120073465D01*
X204731250Y-120075000D01*
X204093750Y-120075000D01*
X204062507Y-120073465D01*
X204031565Y-120068875D01*
X204001222Y-120061275D01*
X203971770Y-120050737D01*
X203943492Y-120037362D01*
X203916662Y-120021281D01*
X203891537Y-120002647D01*
X203868360Y-119981640D01*
X203847353Y-119958463D01*
X203828719Y-119933338D01*
X203812638Y-119906508D01*
X203799263Y-119878230D01*
X203788725Y-119848778D01*
X203781125Y-119818435D01*
X203776535Y-119787493D01*
X203775000Y-119756250D01*
X203775000Y-119043750D01*
X203776535Y-119012507D01*
X203781125Y-118981565D01*
X203788725Y-118951222D01*
X203799263Y-118921770D01*
X203812638Y-118893492D01*
X203828719Y-118866662D01*
X203847353Y-118841537D01*
X203868360Y-118818360D01*
X203891537Y-118797353D01*
X203916662Y-118778719D01*
X203943492Y-118762638D01*
X203971770Y-118749263D01*
X204001222Y-118738725D01*
X204031565Y-118731125D01*
X204062507Y-118726535D01*
X204093750Y-118725000D01*
X204731250Y-118725000D01*
X204762493Y-118726535D01*
X204762493Y-118726535D01*
G37*
D13*
X204412500Y-119400000D03*
D12*
G36*
X201462493Y-118726535D02*
G01*
X201493435Y-118731125D01*
X201523778Y-118738725D01*
X201553230Y-118749263D01*
X201581508Y-118762638D01*
X201608338Y-118778719D01*
X201633463Y-118797353D01*
X201656640Y-118818360D01*
X201677647Y-118841537D01*
X201696281Y-118866662D01*
X201712362Y-118893492D01*
X201725737Y-118921770D01*
X201736275Y-118951222D01*
X201743875Y-118981565D01*
X201748465Y-119012507D01*
X201750000Y-119043750D01*
X201750000Y-119756250D01*
X201748465Y-119787493D01*
X201743875Y-119818435D01*
X201736275Y-119848778D01*
X201725737Y-119878230D01*
X201712362Y-119906508D01*
X201696281Y-119933338D01*
X201677647Y-119958463D01*
X201656640Y-119981640D01*
X201633463Y-120002647D01*
X201608338Y-120021281D01*
X201581508Y-120037362D01*
X201553230Y-120050737D01*
X201523778Y-120061275D01*
X201493435Y-120068875D01*
X201462493Y-120073465D01*
X201431250Y-120075000D01*
X200793750Y-120075000D01*
X200762507Y-120073465D01*
X200731565Y-120068875D01*
X200701222Y-120061275D01*
X200671770Y-120050737D01*
X200643492Y-120037362D01*
X200616662Y-120021281D01*
X200591537Y-120002647D01*
X200568360Y-119981640D01*
X200547353Y-119958463D01*
X200528719Y-119933338D01*
X200512638Y-119906508D01*
X200499263Y-119878230D01*
X200488725Y-119848778D01*
X200481125Y-119818435D01*
X200476535Y-119787493D01*
X200475000Y-119756250D01*
X200475000Y-119043750D01*
X200476535Y-119012507D01*
X200481125Y-118981565D01*
X200488725Y-118951222D01*
X200499263Y-118921770D01*
X200512638Y-118893492D01*
X200528719Y-118866662D01*
X200547353Y-118841537D01*
X200568360Y-118818360D01*
X200591537Y-118797353D01*
X200616662Y-118778719D01*
X200643492Y-118762638D01*
X200671770Y-118749263D01*
X200701222Y-118738725D01*
X200731565Y-118731125D01*
X200762507Y-118726535D01*
X200793750Y-118725000D01*
X201431250Y-118725000D01*
X201462493Y-118726535D01*
X201462493Y-118726535D01*
G37*
D13*
X201112500Y-119400000D03*
D12*
G36*
X203037493Y-118726535D02*
G01*
X203068435Y-118731125D01*
X203098778Y-118738725D01*
X203128230Y-118749263D01*
X203156508Y-118762638D01*
X203183338Y-118778719D01*
X203208463Y-118797353D01*
X203231640Y-118818360D01*
X203252647Y-118841537D01*
X203271281Y-118866662D01*
X203287362Y-118893492D01*
X203300737Y-118921770D01*
X203311275Y-118951222D01*
X203318875Y-118981565D01*
X203323465Y-119012507D01*
X203325000Y-119043750D01*
X203325000Y-119756250D01*
X203323465Y-119787493D01*
X203318875Y-119818435D01*
X203311275Y-119848778D01*
X203300737Y-119878230D01*
X203287362Y-119906508D01*
X203271281Y-119933338D01*
X203252647Y-119958463D01*
X203231640Y-119981640D01*
X203208463Y-120002647D01*
X203183338Y-120021281D01*
X203156508Y-120037362D01*
X203128230Y-120050737D01*
X203098778Y-120061275D01*
X203068435Y-120068875D01*
X203037493Y-120073465D01*
X203006250Y-120075000D01*
X202368750Y-120075000D01*
X202337507Y-120073465D01*
X202306565Y-120068875D01*
X202276222Y-120061275D01*
X202246770Y-120050737D01*
X202218492Y-120037362D01*
X202191662Y-120021281D01*
X202166537Y-120002647D01*
X202143360Y-119981640D01*
X202122353Y-119958463D01*
X202103719Y-119933338D01*
X202087638Y-119906508D01*
X202074263Y-119878230D01*
X202063725Y-119848778D01*
X202056125Y-119818435D01*
X202051535Y-119787493D01*
X202050000Y-119756250D01*
X202050000Y-119043750D01*
X202051535Y-119012507D01*
X202056125Y-118981565D01*
X202063725Y-118951222D01*
X202074263Y-118921770D01*
X202087638Y-118893492D01*
X202103719Y-118866662D01*
X202122353Y-118841537D01*
X202143360Y-118818360D01*
X202166537Y-118797353D01*
X202191662Y-118778719D01*
X202218492Y-118762638D01*
X202246770Y-118749263D01*
X202276222Y-118738725D01*
X202306565Y-118731125D01*
X202337507Y-118726535D01*
X202368750Y-118725000D01*
X203006250Y-118725000D01*
X203037493Y-118726535D01*
X203037493Y-118726535D01*
G37*
D13*
X202687500Y-119400000D03*
D12*
G36*
X186337493Y-116526535D02*
G01*
X186368435Y-116531125D01*
X186398778Y-116538725D01*
X186428230Y-116549263D01*
X186456508Y-116562638D01*
X186483338Y-116578719D01*
X186508463Y-116597353D01*
X186531640Y-116618360D01*
X186552647Y-116641537D01*
X186571281Y-116666662D01*
X186587362Y-116693492D01*
X186600737Y-116721770D01*
X186611275Y-116751222D01*
X186618875Y-116781565D01*
X186623465Y-116812507D01*
X186625000Y-116843750D01*
X186625000Y-117556250D01*
X186623465Y-117587493D01*
X186618875Y-117618435D01*
X186611275Y-117648778D01*
X186600737Y-117678230D01*
X186587362Y-117706508D01*
X186571281Y-117733338D01*
X186552647Y-117758463D01*
X186531640Y-117781640D01*
X186508463Y-117802647D01*
X186483338Y-117821281D01*
X186456508Y-117837362D01*
X186428230Y-117850737D01*
X186398778Y-117861275D01*
X186368435Y-117868875D01*
X186337493Y-117873465D01*
X186306250Y-117875000D01*
X185668750Y-117875000D01*
X185637507Y-117873465D01*
X185606565Y-117868875D01*
X185576222Y-117861275D01*
X185546770Y-117850737D01*
X185518492Y-117837362D01*
X185491662Y-117821281D01*
X185466537Y-117802647D01*
X185443360Y-117781640D01*
X185422353Y-117758463D01*
X185403719Y-117733338D01*
X185387638Y-117706508D01*
X185374263Y-117678230D01*
X185363725Y-117648778D01*
X185356125Y-117618435D01*
X185351535Y-117587493D01*
X185350000Y-117556250D01*
X185350000Y-116843750D01*
X185351535Y-116812507D01*
X185356125Y-116781565D01*
X185363725Y-116751222D01*
X185374263Y-116721770D01*
X185387638Y-116693492D01*
X185403719Y-116666662D01*
X185422353Y-116641537D01*
X185443360Y-116618360D01*
X185466537Y-116597353D01*
X185491662Y-116578719D01*
X185518492Y-116562638D01*
X185546770Y-116549263D01*
X185576222Y-116538725D01*
X185606565Y-116531125D01*
X185637507Y-116526535D01*
X185668750Y-116525000D01*
X186306250Y-116525000D01*
X186337493Y-116526535D01*
X186337493Y-116526535D01*
G37*
D13*
X185987500Y-117200000D03*
D12*
G36*
X184762493Y-116526535D02*
G01*
X184793435Y-116531125D01*
X184823778Y-116538725D01*
X184853230Y-116549263D01*
X184881508Y-116562638D01*
X184908338Y-116578719D01*
X184933463Y-116597353D01*
X184956640Y-116618360D01*
X184977647Y-116641537D01*
X184996281Y-116666662D01*
X185012362Y-116693492D01*
X185025737Y-116721770D01*
X185036275Y-116751222D01*
X185043875Y-116781565D01*
X185048465Y-116812507D01*
X185050000Y-116843750D01*
X185050000Y-117556250D01*
X185048465Y-117587493D01*
X185043875Y-117618435D01*
X185036275Y-117648778D01*
X185025737Y-117678230D01*
X185012362Y-117706508D01*
X184996281Y-117733338D01*
X184977647Y-117758463D01*
X184956640Y-117781640D01*
X184933463Y-117802647D01*
X184908338Y-117821281D01*
X184881508Y-117837362D01*
X184853230Y-117850737D01*
X184823778Y-117861275D01*
X184793435Y-117868875D01*
X184762493Y-117873465D01*
X184731250Y-117875000D01*
X184093750Y-117875000D01*
X184062507Y-117873465D01*
X184031565Y-117868875D01*
X184001222Y-117861275D01*
X183971770Y-117850737D01*
X183943492Y-117837362D01*
X183916662Y-117821281D01*
X183891537Y-117802647D01*
X183868360Y-117781640D01*
X183847353Y-117758463D01*
X183828719Y-117733338D01*
X183812638Y-117706508D01*
X183799263Y-117678230D01*
X183788725Y-117648778D01*
X183781125Y-117618435D01*
X183776535Y-117587493D01*
X183775000Y-117556250D01*
X183775000Y-116843750D01*
X183776535Y-116812507D01*
X183781125Y-116781565D01*
X183788725Y-116751222D01*
X183799263Y-116721770D01*
X183812638Y-116693492D01*
X183828719Y-116666662D01*
X183847353Y-116641537D01*
X183868360Y-116618360D01*
X183891537Y-116597353D01*
X183916662Y-116578719D01*
X183943492Y-116562638D01*
X183971770Y-116549263D01*
X184001222Y-116538725D01*
X184031565Y-116531125D01*
X184062507Y-116526535D01*
X184093750Y-116525000D01*
X184731250Y-116525000D01*
X184762493Y-116526535D01*
X184762493Y-116526535D01*
G37*
D13*
X184412500Y-117200000D03*
D12*
G36*
X193462493Y-118726535D02*
G01*
X193493435Y-118731125D01*
X193523778Y-118738725D01*
X193553230Y-118749263D01*
X193581508Y-118762638D01*
X193608338Y-118778719D01*
X193633463Y-118797353D01*
X193656640Y-118818360D01*
X193677647Y-118841537D01*
X193696281Y-118866662D01*
X193712362Y-118893492D01*
X193725737Y-118921770D01*
X193736275Y-118951222D01*
X193743875Y-118981565D01*
X193748465Y-119012507D01*
X193750000Y-119043750D01*
X193750000Y-119756250D01*
X193748465Y-119787493D01*
X193743875Y-119818435D01*
X193736275Y-119848778D01*
X193725737Y-119878230D01*
X193712362Y-119906508D01*
X193696281Y-119933338D01*
X193677647Y-119958463D01*
X193656640Y-119981640D01*
X193633463Y-120002647D01*
X193608338Y-120021281D01*
X193581508Y-120037362D01*
X193553230Y-120050737D01*
X193523778Y-120061275D01*
X193493435Y-120068875D01*
X193462493Y-120073465D01*
X193431250Y-120075000D01*
X192793750Y-120075000D01*
X192762507Y-120073465D01*
X192731565Y-120068875D01*
X192701222Y-120061275D01*
X192671770Y-120050737D01*
X192643492Y-120037362D01*
X192616662Y-120021281D01*
X192591537Y-120002647D01*
X192568360Y-119981640D01*
X192547353Y-119958463D01*
X192528719Y-119933338D01*
X192512638Y-119906508D01*
X192499263Y-119878230D01*
X192488725Y-119848778D01*
X192481125Y-119818435D01*
X192476535Y-119787493D01*
X192475000Y-119756250D01*
X192475000Y-119043750D01*
X192476535Y-119012507D01*
X192481125Y-118981565D01*
X192488725Y-118951222D01*
X192499263Y-118921770D01*
X192512638Y-118893492D01*
X192528719Y-118866662D01*
X192547353Y-118841537D01*
X192568360Y-118818360D01*
X192591537Y-118797353D01*
X192616662Y-118778719D01*
X192643492Y-118762638D01*
X192671770Y-118749263D01*
X192701222Y-118738725D01*
X192731565Y-118731125D01*
X192762507Y-118726535D01*
X192793750Y-118725000D01*
X193431250Y-118725000D01*
X193462493Y-118726535D01*
X193462493Y-118726535D01*
G37*
D13*
X193112500Y-119400000D03*
D12*
G36*
X195037493Y-118726535D02*
G01*
X195068435Y-118731125D01*
X195098778Y-118738725D01*
X195128230Y-118749263D01*
X195156508Y-118762638D01*
X195183338Y-118778719D01*
X195208463Y-118797353D01*
X195231640Y-118818360D01*
X195252647Y-118841537D01*
X195271281Y-118866662D01*
X195287362Y-118893492D01*
X195300737Y-118921770D01*
X195311275Y-118951222D01*
X195318875Y-118981565D01*
X195323465Y-119012507D01*
X195325000Y-119043750D01*
X195325000Y-119756250D01*
X195323465Y-119787493D01*
X195318875Y-119818435D01*
X195311275Y-119848778D01*
X195300737Y-119878230D01*
X195287362Y-119906508D01*
X195271281Y-119933338D01*
X195252647Y-119958463D01*
X195231640Y-119981640D01*
X195208463Y-120002647D01*
X195183338Y-120021281D01*
X195156508Y-120037362D01*
X195128230Y-120050737D01*
X195098778Y-120061275D01*
X195068435Y-120068875D01*
X195037493Y-120073465D01*
X195006250Y-120075000D01*
X194368750Y-120075000D01*
X194337507Y-120073465D01*
X194306565Y-120068875D01*
X194276222Y-120061275D01*
X194246770Y-120050737D01*
X194218492Y-120037362D01*
X194191662Y-120021281D01*
X194166537Y-120002647D01*
X194143360Y-119981640D01*
X194122353Y-119958463D01*
X194103719Y-119933338D01*
X194087638Y-119906508D01*
X194074263Y-119878230D01*
X194063725Y-119848778D01*
X194056125Y-119818435D01*
X194051535Y-119787493D01*
X194050000Y-119756250D01*
X194050000Y-119043750D01*
X194051535Y-119012507D01*
X194056125Y-118981565D01*
X194063725Y-118951222D01*
X194074263Y-118921770D01*
X194087638Y-118893492D01*
X194103719Y-118866662D01*
X194122353Y-118841537D01*
X194143360Y-118818360D01*
X194166537Y-118797353D01*
X194191662Y-118778719D01*
X194218492Y-118762638D01*
X194246770Y-118749263D01*
X194276222Y-118738725D01*
X194306565Y-118731125D01*
X194337507Y-118726535D01*
X194368750Y-118725000D01*
X195006250Y-118725000D01*
X195037493Y-118726535D01*
X195037493Y-118726535D01*
G37*
D13*
X194687500Y-119400000D03*
D12*
G36*
X191737493Y-118726535D02*
G01*
X191768435Y-118731125D01*
X191798778Y-118738725D01*
X191828230Y-118749263D01*
X191856508Y-118762638D01*
X191883338Y-118778719D01*
X191908463Y-118797353D01*
X191931640Y-118818360D01*
X191952647Y-118841537D01*
X191971281Y-118866662D01*
X191987362Y-118893492D01*
X192000737Y-118921770D01*
X192011275Y-118951222D01*
X192018875Y-118981565D01*
X192023465Y-119012507D01*
X192025000Y-119043750D01*
X192025000Y-119756250D01*
X192023465Y-119787493D01*
X192018875Y-119818435D01*
X192011275Y-119848778D01*
X192000737Y-119878230D01*
X191987362Y-119906508D01*
X191971281Y-119933338D01*
X191952647Y-119958463D01*
X191931640Y-119981640D01*
X191908463Y-120002647D01*
X191883338Y-120021281D01*
X191856508Y-120037362D01*
X191828230Y-120050737D01*
X191798778Y-120061275D01*
X191768435Y-120068875D01*
X191737493Y-120073465D01*
X191706250Y-120075000D01*
X191068750Y-120075000D01*
X191037507Y-120073465D01*
X191006565Y-120068875D01*
X190976222Y-120061275D01*
X190946770Y-120050737D01*
X190918492Y-120037362D01*
X190891662Y-120021281D01*
X190866537Y-120002647D01*
X190843360Y-119981640D01*
X190822353Y-119958463D01*
X190803719Y-119933338D01*
X190787638Y-119906508D01*
X190774263Y-119878230D01*
X190763725Y-119848778D01*
X190756125Y-119818435D01*
X190751535Y-119787493D01*
X190750000Y-119756250D01*
X190750000Y-119043750D01*
X190751535Y-119012507D01*
X190756125Y-118981565D01*
X190763725Y-118951222D01*
X190774263Y-118921770D01*
X190787638Y-118893492D01*
X190803719Y-118866662D01*
X190822353Y-118841537D01*
X190843360Y-118818360D01*
X190866537Y-118797353D01*
X190891662Y-118778719D01*
X190918492Y-118762638D01*
X190946770Y-118749263D01*
X190976222Y-118738725D01*
X191006565Y-118731125D01*
X191037507Y-118726535D01*
X191068750Y-118725000D01*
X191706250Y-118725000D01*
X191737493Y-118726535D01*
X191737493Y-118726535D01*
G37*
D13*
X191387500Y-119400000D03*
D12*
G36*
X190162493Y-118726535D02*
G01*
X190193435Y-118731125D01*
X190223778Y-118738725D01*
X190253230Y-118749263D01*
X190281508Y-118762638D01*
X190308338Y-118778719D01*
X190333463Y-118797353D01*
X190356640Y-118818360D01*
X190377647Y-118841537D01*
X190396281Y-118866662D01*
X190412362Y-118893492D01*
X190425737Y-118921770D01*
X190436275Y-118951222D01*
X190443875Y-118981565D01*
X190448465Y-119012507D01*
X190450000Y-119043750D01*
X190450000Y-119756250D01*
X190448465Y-119787493D01*
X190443875Y-119818435D01*
X190436275Y-119848778D01*
X190425737Y-119878230D01*
X190412362Y-119906508D01*
X190396281Y-119933338D01*
X190377647Y-119958463D01*
X190356640Y-119981640D01*
X190333463Y-120002647D01*
X190308338Y-120021281D01*
X190281508Y-120037362D01*
X190253230Y-120050737D01*
X190223778Y-120061275D01*
X190193435Y-120068875D01*
X190162493Y-120073465D01*
X190131250Y-120075000D01*
X189493750Y-120075000D01*
X189462507Y-120073465D01*
X189431565Y-120068875D01*
X189401222Y-120061275D01*
X189371770Y-120050737D01*
X189343492Y-120037362D01*
X189316662Y-120021281D01*
X189291537Y-120002647D01*
X189268360Y-119981640D01*
X189247353Y-119958463D01*
X189228719Y-119933338D01*
X189212638Y-119906508D01*
X189199263Y-119878230D01*
X189188725Y-119848778D01*
X189181125Y-119818435D01*
X189176535Y-119787493D01*
X189175000Y-119756250D01*
X189175000Y-119043750D01*
X189176535Y-119012507D01*
X189181125Y-118981565D01*
X189188725Y-118951222D01*
X189199263Y-118921770D01*
X189212638Y-118893492D01*
X189228719Y-118866662D01*
X189247353Y-118841537D01*
X189268360Y-118818360D01*
X189291537Y-118797353D01*
X189316662Y-118778719D01*
X189343492Y-118762638D01*
X189371770Y-118749263D01*
X189401222Y-118738725D01*
X189431565Y-118731125D01*
X189462507Y-118726535D01*
X189493750Y-118725000D01*
X190131250Y-118725000D01*
X190162493Y-118726535D01*
X190162493Y-118726535D01*
G37*
D13*
X189812500Y-119400000D03*
D12*
G36*
X184762493Y-119326535D02*
G01*
X184793435Y-119331125D01*
X184823778Y-119338725D01*
X184853230Y-119349263D01*
X184881508Y-119362638D01*
X184908338Y-119378719D01*
X184933463Y-119397353D01*
X184956640Y-119418360D01*
X184977647Y-119441537D01*
X184996281Y-119466662D01*
X185012362Y-119493492D01*
X185025737Y-119521770D01*
X185036275Y-119551222D01*
X185043875Y-119581565D01*
X185048465Y-119612507D01*
X185050000Y-119643750D01*
X185050000Y-120356250D01*
X185048465Y-120387493D01*
X185043875Y-120418435D01*
X185036275Y-120448778D01*
X185025737Y-120478230D01*
X185012362Y-120506508D01*
X184996281Y-120533338D01*
X184977647Y-120558463D01*
X184956640Y-120581640D01*
X184933463Y-120602647D01*
X184908338Y-120621281D01*
X184881508Y-120637362D01*
X184853230Y-120650737D01*
X184823778Y-120661275D01*
X184793435Y-120668875D01*
X184762493Y-120673465D01*
X184731250Y-120675000D01*
X184093750Y-120675000D01*
X184062507Y-120673465D01*
X184031565Y-120668875D01*
X184001222Y-120661275D01*
X183971770Y-120650737D01*
X183943492Y-120637362D01*
X183916662Y-120621281D01*
X183891537Y-120602647D01*
X183868360Y-120581640D01*
X183847353Y-120558463D01*
X183828719Y-120533338D01*
X183812638Y-120506508D01*
X183799263Y-120478230D01*
X183788725Y-120448778D01*
X183781125Y-120418435D01*
X183776535Y-120387493D01*
X183775000Y-120356250D01*
X183775000Y-119643750D01*
X183776535Y-119612507D01*
X183781125Y-119581565D01*
X183788725Y-119551222D01*
X183799263Y-119521770D01*
X183812638Y-119493492D01*
X183828719Y-119466662D01*
X183847353Y-119441537D01*
X183868360Y-119418360D01*
X183891537Y-119397353D01*
X183916662Y-119378719D01*
X183943492Y-119362638D01*
X183971770Y-119349263D01*
X184001222Y-119338725D01*
X184031565Y-119331125D01*
X184062507Y-119326535D01*
X184093750Y-119325000D01*
X184731250Y-119325000D01*
X184762493Y-119326535D01*
X184762493Y-119326535D01*
G37*
D13*
X184412500Y-120000000D03*
D12*
G36*
X186337493Y-119326535D02*
G01*
X186368435Y-119331125D01*
X186398778Y-119338725D01*
X186428230Y-119349263D01*
X186456508Y-119362638D01*
X186483338Y-119378719D01*
X186508463Y-119397353D01*
X186531640Y-119418360D01*
X186552647Y-119441537D01*
X186571281Y-119466662D01*
X186587362Y-119493492D01*
X186600737Y-119521770D01*
X186611275Y-119551222D01*
X186618875Y-119581565D01*
X186623465Y-119612507D01*
X186625000Y-119643750D01*
X186625000Y-120356250D01*
X186623465Y-120387493D01*
X186618875Y-120418435D01*
X186611275Y-120448778D01*
X186600737Y-120478230D01*
X186587362Y-120506508D01*
X186571281Y-120533338D01*
X186552647Y-120558463D01*
X186531640Y-120581640D01*
X186508463Y-120602647D01*
X186483338Y-120621281D01*
X186456508Y-120637362D01*
X186428230Y-120650737D01*
X186398778Y-120661275D01*
X186368435Y-120668875D01*
X186337493Y-120673465D01*
X186306250Y-120675000D01*
X185668750Y-120675000D01*
X185637507Y-120673465D01*
X185606565Y-120668875D01*
X185576222Y-120661275D01*
X185546770Y-120650737D01*
X185518492Y-120637362D01*
X185491662Y-120621281D01*
X185466537Y-120602647D01*
X185443360Y-120581640D01*
X185422353Y-120558463D01*
X185403719Y-120533338D01*
X185387638Y-120506508D01*
X185374263Y-120478230D01*
X185363725Y-120448778D01*
X185356125Y-120418435D01*
X185351535Y-120387493D01*
X185350000Y-120356250D01*
X185350000Y-119643750D01*
X185351535Y-119612507D01*
X185356125Y-119581565D01*
X185363725Y-119551222D01*
X185374263Y-119521770D01*
X185387638Y-119493492D01*
X185403719Y-119466662D01*
X185422353Y-119441537D01*
X185443360Y-119418360D01*
X185466537Y-119397353D01*
X185491662Y-119378719D01*
X185518492Y-119362638D01*
X185546770Y-119349263D01*
X185576222Y-119338725D01*
X185606565Y-119331125D01*
X185637507Y-119326535D01*
X185668750Y-119325000D01*
X186306250Y-119325000D01*
X186337493Y-119326535D01*
X186337493Y-119326535D01*
G37*
D13*
X185987500Y-120000000D03*
D12*
G36*
X206337493Y-120426535D02*
G01*
X206368435Y-120431125D01*
X206398778Y-120438725D01*
X206428230Y-120449263D01*
X206456508Y-120462638D01*
X206483338Y-120478719D01*
X206508463Y-120497353D01*
X206531640Y-120518360D01*
X206552647Y-120541537D01*
X206571281Y-120566662D01*
X206587362Y-120593492D01*
X206600737Y-120621770D01*
X206611275Y-120651222D01*
X206618875Y-120681565D01*
X206623465Y-120712507D01*
X206625000Y-120743750D01*
X206625000Y-121456250D01*
X206623465Y-121487493D01*
X206618875Y-121518435D01*
X206611275Y-121548778D01*
X206600737Y-121578230D01*
X206587362Y-121606508D01*
X206571281Y-121633338D01*
X206552647Y-121658463D01*
X206531640Y-121681640D01*
X206508463Y-121702647D01*
X206483338Y-121721281D01*
X206456508Y-121737362D01*
X206428230Y-121750737D01*
X206398778Y-121761275D01*
X206368435Y-121768875D01*
X206337493Y-121773465D01*
X206306250Y-121775000D01*
X205668750Y-121775000D01*
X205637507Y-121773465D01*
X205606565Y-121768875D01*
X205576222Y-121761275D01*
X205546770Y-121750737D01*
X205518492Y-121737362D01*
X205491662Y-121721281D01*
X205466537Y-121702647D01*
X205443360Y-121681640D01*
X205422353Y-121658463D01*
X205403719Y-121633338D01*
X205387638Y-121606508D01*
X205374263Y-121578230D01*
X205363725Y-121548778D01*
X205356125Y-121518435D01*
X205351535Y-121487493D01*
X205350000Y-121456250D01*
X205350000Y-120743750D01*
X205351535Y-120712507D01*
X205356125Y-120681565D01*
X205363725Y-120651222D01*
X205374263Y-120621770D01*
X205387638Y-120593492D01*
X205403719Y-120566662D01*
X205422353Y-120541537D01*
X205443360Y-120518360D01*
X205466537Y-120497353D01*
X205491662Y-120478719D01*
X205518492Y-120462638D01*
X205546770Y-120449263D01*
X205576222Y-120438725D01*
X205606565Y-120431125D01*
X205637507Y-120426535D01*
X205668750Y-120425000D01*
X206306250Y-120425000D01*
X206337493Y-120426535D01*
X206337493Y-120426535D01*
G37*
D13*
X205987500Y-121100000D03*
D12*
G36*
X204762493Y-120426535D02*
G01*
X204793435Y-120431125D01*
X204823778Y-120438725D01*
X204853230Y-120449263D01*
X204881508Y-120462638D01*
X204908338Y-120478719D01*
X204933463Y-120497353D01*
X204956640Y-120518360D01*
X204977647Y-120541537D01*
X204996281Y-120566662D01*
X205012362Y-120593492D01*
X205025737Y-120621770D01*
X205036275Y-120651222D01*
X205043875Y-120681565D01*
X205048465Y-120712507D01*
X205050000Y-120743750D01*
X205050000Y-121456250D01*
X205048465Y-121487493D01*
X205043875Y-121518435D01*
X205036275Y-121548778D01*
X205025737Y-121578230D01*
X205012362Y-121606508D01*
X204996281Y-121633338D01*
X204977647Y-121658463D01*
X204956640Y-121681640D01*
X204933463Y-121702647D01*
X204908338Y-121721281D01*
X204881508Y-121737362D01*
X204853230Y-121750737D01*
X204823778Y-121761275D01*
X204793435Y-121768875D01*
X204762493Y-121773465D01*
X204731250Y-121775000D01*
X204093750Y-121775000D01*
X204062507Y-121773465D01*
X204031565Y-121768875D01*
X204001222Y-121761275D01*
X203971770Y-121750737D01*
X203943492Y-121737362D01*
X203916662Y-121721281D01*
X203891537Y-121702647D01*
X203868360Y-121681640D01*
X203847353Y-121658463D01*
X203828719Y-121633338D01*
X203812638Y-121606508D01*
X203799263Y-121578230D01*
X203788725Y-121548778D01*
X203781125Y-121518435D01*
X203776535Y-121487493D01*
X203775000Y-121456250D01*
X203775000Y-120743750D01*
X203776535Y-120712507D01*
X203781125Y-120681565D01*
X203788725Y-120651222D01*
X203799263Y-120621770D01*
X203812638Y-120593492D01*
X203828719Y-120566662D01*
X203847353Y-120541537D01*
X203868360Y-120518360D01*
X203891537Y-120497353D01*
X203916662Y-120478719D01*
X203943492Y-120462638D01*
X203971770Y-120449263D01*
X204001222Y-120438725D01*
X204031565Y-120431125D01*
X204062507Y-120426535D01*
X204093750Y-120425000D01*
X204731250Y-120425000D01*
X204762493Y-120426535D01*
X204762493Y-120426535D01*
G37*
D13*
X204412500Y-121100000D03*
D12*
G36*
X201462493Y-120426535D02*
G01*
X201493435Y-120431125D01*
X201523778Y-120438725D01*
X201553230Y-120449263D01*
X201581508Y-120462638D01*
X201608338Y-120478719D01*
X201633463Y-120497353D01*
X201656640Y-120518360D01*
X201677647Y-120541537D01*
X201696281Y-120566662D01*
X201712362Y-120593492D01*
X201725737Y-120621770D01*
X201736275Y-120651222D01*
X201743875Y-120681565D01*
X201748465Y-120712507D01*
X201750000Y-120743750D01*
X201750000Y-121456250D01*
X201748465Y-121487493D01*
X201743875Y-121518435D01*
X201736275Y-121548778D01*
X201725737Y-121578230D01*
X201712362Y-121606508D01*
X201696281Y-121633338D01*
X201677647Y-121658463D01*
X201656640Y-121681640D01*
X201633463Y-121702647D01*
X201608338Y-121721281D01*
X201581508Y-121737362D01*
X201553230Y-121750737D01*
X201523778Y-121761275D01*
X201493435Y-121768875D01*
X201462493Y-121773465D01*
X201431250Y-121775000D01*
X200793750Y-121775000D01*
X200762507Y-121773465D01*
X200731565Y-121768875D01*
X200701222Y-121761275D01*
X200671770Y-121750737D01*
X200643492Y-121737362D01*
X200616662Y-121721281D01*
X200591537Y-121702647D01*
X200568360Y-121681640D01*
X200547353Y-121658463D01*
X200528719Y-121633338D01*
X200512638Y-121606508D01*
X200499263Y-121578230D01*
X200488725Y-121548778D01*
X200481125Y-121518435D01*
X200476535Y-121487493D01*
X200475000Y-121456250D01*
X200475000Y-120743750D01*
X200476535Y-120712507D01*
X200481125Y-120681565D01*
X200488725Y-120651222D01*
X200499263Y-120621770D01*
X200512638Y-120593492D01*
X200528719Y-120566662D01*
X200547353Y-120541537D01*
X200568360Y-120518360D01*
X200591537Y-120497353D01*
X200616662Y-120478719D01*
X200643492Y-120462638D01*
X200671770Y-120449263D01*
X200701222Y-120438725D01*
X200731565Y-120431125D01*
X200762507Y-120426535D01*
X200793750Y-120425000D01*
X201431250Y-120425000D01*
X201462493Y-120426535D01*
X201462493Y-120426535D01*
G37*
D13*
X201112500Y-121100000D03*
D12*
G36*
X203037493Y-120426535D02*
G01*
X203068435Y-120431125D01*
X203098778Y-120438725D01*
X203128230Y-120449263D01*
X203156508Y-120462638D01*
X203183338Y-120478719D01*
X203208463Y-120497353D01*
X203231640Y-120518360D01*
X203252647Y-120541537D01*
X203271281Y-120566662D01*
X203287362Y-120593492D01*
X203300737Y-120621770D01*
X203311275Y-120651222D01*
X203318875Y-120681565D01*
X203323465Y-120712507D01*
X203325000Y-120743750D01*
X203325000Y-121456250D01*
X203323465Y-121487493D01*
X203318875Y-121518435D01*
X203311275Y-121548778D01*
X203300737Y-121578230D01*
X203287362Y-121606508D01*
X203271281Y-121633338D01*
X203252647Y-121658463D01*
X203231640Y-121681640D01*
X203208463Y-121702647D01*
X203183338Y-121721281D01*
X203156508Y-121737362D01*
X203128230Y-121750737D01*
X203098778Y-121761275D01*
X203068435Y-121768875D01*
X203037493Y-121773465D01*
X203006250Y-121775000D01*
X202368750Y-121775000D01*
X202337507Y-121773465D01*
X202306565Y-121768875D01*
X202276222Y-121761275D01*
X202246770Y-121750737D01*
X202218492Y-121737362D01*
X202191662Y-121721281D01*
X202166537Y-121702647D01*
X202143360Y-121681640D01*
X202122353Y-121658463D01*
X202103719Y-121633338D01*
X202087638Y-121606508D01*
X202074263Y-121578230D01*
X202063725Y-121548778D01*
X202056125Y-121518435D01*
X202051535Y-121487493D01*
X202050000Y-121456250D01*
X202050000Y-120743750D01*
X202051535Y-120712507D01*
X202056125Y-120681565D01*
X202063725Y-120651222D01*
X202074263Y-120621770D01*
X202087638Y-120593492D01*
X202103719Y-120566662D01*
X202122353Y-120541537D01*
X202143360Y-120518360D01*
X202166537Y-120497353D01*
X202191662Y-120478719D01*
X202218492Y-120462638D01*
X202246770Y-120449263D01*
X202276222Y-120438725D01*
X202306565Y-120431125D01*
X202337507Y-120426535D01*
X202368750Y-120425000D01*
X203006250Y-120425000D01*
X203037493Y-120426535D01*
X203037493Y-120426535D01*
G37*
D13*
X202687500Y-121100000D03*
D12*
G36*
X200337493Y-116226535D02*
G01*
X200368435Y-116231125D01*
X200398778Y-116238725D01*
X200428230Y-116249263D01*
X200456508Y-116262638D01*
X200483338Y-116278719D01*
X200508463Y-116297353D01*
X200531640Y-116318360D01*
X200552647Y-116341537D01*
X200571281Y-116366662D01*
X200587362Y-116393492D01*
X200600737Y-116421770D01*
X200611275Y-116451222D01*
X200618875Y-116481565D01*
X200623465Y-116512507D01*
X200625000Y-116543750D01*
X200625000Y-117256250D01*
X200623465Y-117287493D01*
X200618875Y-117318435D01*
X200611275Y-117348778D01*
X200600737Y-117378230D01*
X200587362Y-117406508D01*
X200571281Y-117433338D01*
X200552647Y-117458463D01*
X200531640Y-117481640D01*
X200508463Y-117502647D01*
X200483338Y-117521281D01*
X200456508Y-117537362D01*
X200428230Y-117550737D01*
X200398778Y-117561275D01*
X200368435Y-117568875D01*
X200337493Y-117573465D01*
X200306250Y-117575000D01*
X199668750Y-117575000D01*
X199637507Y-117573465D01*
X199606565Y-117568875D01*
X199576222Y-117561275D01*
X199546770Y-117550737D01*
X199518492Y-117537362D01*
X199491662Y-117521281D01*
X199466537Y-117502647D01*
X199443360Y-117481640D01*
X199422353Y-117458463D01*
X199403719Y-117433338D01*
X199387638Y-117406508D01*
X199374263Y-117378230D01*
X199363725Y-117348778D01*
X199356125Y-117318435D01*
X199351535Y-117287493D01*
X199350000Y-117256250D01*
X199350000Y-116543750D01*
X199351535Y-116512507D01*
X199356125Y-116481565D01*
X199363725Y-116451222D01*
X199374263Y-116421770D01*
X199387638Y-116393492D01*
X199403719Y-116366662D01*
X199422353Y-116341537D01*
X199443360Y-116318360D01*
X199466537Y-116297353D01*
X199491662Y-116278719D01*
X199518492Y-116262638D01*
X199546770Y-116249263D01*
X199576222Y-116238725D01*
X199606565Y-116231125D01*
X199637507Y-116226535D01*
X199668750Y-116225000D01*
X200306250Y-116225000D01*
X200337493Y-116226535D01*
X200337493Y-116226535D01*
G37*
D13*
X199987500Y-116900000D03*
D12*
G36*
X198762493Y-116226535D02*
G01*
X198793435Y-116231125D01*
X198823778Y-116238725D01*
X198853230Y-116249263D01*
X198881508Y-116262638D01*
X198908338Y-116278719D01*
X198933463Y-116297353D01*
X198956640Y-116318360D01*
X198977647Y-116341537D01*
X198996281Y-116366662D01*
X199012362Y-116393492D01*
X199025737Y-116421770D01*
X199036275Y-116451222D01*
X199043875Y-116481565D01*
X199048465Y-116512507D01*
X199050000Y-116543750D01*
X199050000Y-117256250D01*
X199048465Y-117287493D01*
X199043875Y-117318435D01*
X199036275Y-117348778D01*
X199025737Y-117378230D01*
X199012362Y-117406508D01*
X198996281Y-117433338D01*
X198977647Y-117458463D01*
X198956640Y-117481640D01*
X198933463Y-117502647D01*
X198908338Y-117521281D01*
X198881508Y-117537362D01*
X198853230Y-117550737D01*
X198823778Y-117561275D01*
X198793435Y-117568875D01*
X198762493Y-117573465D01*
X198731250Y-117575000D01*
X198093750Y-117575000D01*
X198062507Y-117573465D01*
X198031565Y-117568875D01*
X198001222Y-117561275D01*
X197971770Y-117550737D01*
X197943492Y-117537362D01*
X197916662Y-117521281D01*
X197891537Y-117502647D01*
X197868360Y-117481640D01*
X197847353Y-117458463D01*
X197828719Y-117433338D01*
X197812638Y-117406508D01*
X197799263Y-117378230D01*
X197788725Y-117348778D01*
X197781125Y-117318435D01*
X197776535Y-117287493D01*
X197775000Y-117256250D01*
X197775000Y-116543750D01*
X197776535Y-116512507D01*
X197781125Y-116481565D01*
X197788725Y-116451222D01*
X197799263Y-116421770D01*
X197812638Y-116393492D01*
X197828719Y-116366662D01*
X197847353Y-116341537D01*
X197868360Y-116318360D01*
X197891537Y-116297353D01*
X197916662Y-116278719D01*
X197943492Y-116262638D01*
X197971770Y-116249263D01*
X198001222Y-116238725D01*
X198031565Y-116231125D01*
X198062507Y-116226535D01*
X198093750Y-116225000D01*
X198731250Y-116225000D01*
X198762493Y-116226535D01*
X198762493Y-116226535D01*
G37*
D13*
X198412500Y-116900000D03*
D12*
G36*
X201862493Y-102326535D02*
G01*
X201893435Y-102331125D01*
X201923778Y-102338725D01*
X201953230Y-102349263D01*
X201981508Y-102362638D01*
X202008338Y-102378719D01*
X202033463Y-102397353D01*
X202056640Y-102418360D01*
X202077647Y-102441537D01*
X202096281Y-102466662D01*
X202112362Y-102493492D01*
X202125737Y-102521770D01*
X202136275Y-102551222D01*
X202143875Y-102581565D01*
X202148465Y-102612507D01*
X202150000Y-102643750D01*
X202150000Y-103356250D01*
X202148465Y-103387493D01*
X202143875Y-103418435D01*
X202136275Y-103448778D01*
X202125737Y-103478230D01*
X202112362Y-103506508D01*
X202096281Y-103533338D01*
X202077647Y-103558463D01*
X202056640Y-103581640D01*
X202033463Y-103602647D01*
X202008338Y-103621281D01*
X201981508Y-103637362D01*
X201953230Y-103650737D01*
X201923778Y-103661275D01*
X201893435Y-103668875D01*
X201862493Y-103673465D01*
X201831250Y-103675000D01*
X201193750Y-103675000D01*
X201162507Y-103673465D01*
X201131565Y-103668875D01*
X201101222Y-103661275D01*
X201071770Y-103650737D01*
X201043492Y-103637362D01*
X201016662Y-103621281D01*
X200991537Y-103602647D01*
X200968360Y-103581640D01*
X200947353Y-103558463D01*
X200928719Y-103533338D01*
X200912638Y-103506508D01*
X200899263Y-103478230D01*
X200888725Y-103448778D01*
X200881125Y-103418435D01*
X200876535Y-103387493D01*
X200875000Y-103356250D01*
X200875000Y-102643750D01*
X200876535Y-102612507D01*
X200881125Y-102581565D01*
X200888725Y-102551222D01*
X200899263Y-102521770D01*
X200912638Y-102493492D01*
X200928719Y-102466662D01*
X200947353Y-102441537D01*
X200968360Y-102418360D01*
X200991537Y-102397353D01*
X201016662Y-102378719D01*
X201043492Y-102362638D01*
X201071770Y-102349263D01*
X201101222Y-102338725D01*
X201131565Y-102331125D01*
X201162507Y-102326535D01*
X201193750Y-102325000D01*
X201831250Y-102325000D01*
X201862493Y-102326535D01*
X201862493Y-102326535D01*
G37*
D13*
X201512500Y-103000000D03*
D12*
G36*
X203437493Y-102326535D02*
G01*
X203468435Y-102331125D01*
X203498778Y-102338725D01*
X203528230Y-102349263D01*
X203556508Y-102362638D01*
X203583338Y-102378719D01*
X203608463Y-102397353D01*
X203631640Y-102418360D01*
X203652647Y-102441537D01*
X203671281Y-102466662D01*
X203687362Y-102493492D01*
X203700737Y-102521770D01*
X203711275Y-102551222D01*
X203718875Y-102581565D01*
X203723465Y-102612507D01*
X203725000Y-102643750D01*
X203725000Y-103356250D01*
X203723465Y-103387493D01*
X203718875Y-103418435D01*
X203711275Y-103448778D01*
X203700737Y-103478230D01*
X203687362Y-103506508D01*
X203671281Y-103533338D01*
X203652647Y-103558463D01*
X203631640Y-103581640D01*
X203608463Y-103602647D01*
X203583338Y-103621281D01*
X203556508Y-103637362D01*
X203528230Y-103650737D01*
X203498778Y-103661275D01*
X203468435Y-103668875D01*
X203437493Y-103673465D01*
X203406250Y-103675000D01*
X202768750Y-103675000D01*
X202737507Y-103673465D01*
X202706565Y-103668875D01*
X202676222Y-103661275D01*
X202646770Y-103650737D01*
X202618492Y-103637362D01*
X202591662Y-103621281D01*
X202566537Y-103602647D01*
X202543360Y-103581640D01*
X202522353Y-103558463D01*
X202503719Y-103533338D01*
X202487638Y-103506508D01*
X202474263Y-103478230D01*
X202463725Y-103448778D01*
X202456125Y-103418435D01*
X202451535Y-103387493D01*
X202450000Y-103356250D01*
X202450000Y-102643750D01*
X202451535Y-102612507D01*
X202456125Y-102581565D01*
X202463725Y-102551222D01*
X202474263Y-102521770D01*
X202487638Y-102493492D01*
X202503719Y-102466662D01*
X202522353Y-102441537D01*
X202543360Y-102418360D01*
X202566537Y-102397353D01*
X202591662Y-102378719D01*
X202618492Y-102362638D01*
X202646770Y-102349263D01*
X202676222Y-102338725D01*
X202706565Y-102331125D01*
X202737507Y-102326535D01*
X202768750Y-102325000D01*
X203406250Y-102325000D01*
X203437493Y-102326535D01*
X203437493Y-102326535D01*
G37*
D13*
X203087500Y-103000000D03*
D12*
G36*
X184762493Y-100426535D02*
G01*
X184793435Y-100431125D01*
X184823778Y-100438725D01*
X184853230Y-100449263D01*
X184881508Y-100462638D01*
X184908338Y-100478719D01*
X184933463Y-100497353D01*
X184956640Y-100518360D01*
X184977647Y-100541537D01*
X184996281Y-100566662D01*
X185012362Y-100593492D01*
X185025737Y-100621770D01*
X185036275Y-100651222D01*
X185043875Y-100681565D01*
X185048465Y-100712507D01*
X185050000Y-100743750D01*
X185050000Y-101456250D01*
X185048465Y-101487493D01*
X185043875Y-101518435D01*
X185036275Y-101548778D01*
X185025737Y-101578230D01*
X185012362Y-101606508D01*
X184996281Y-101633338D01*
X184977647Y-101658463D01*
X184956640Y-101681640D01*
X184933463Y-101702647D01*
X184908338Y-101721281D01*
X184881508Y-101737362D01*
X184853230Y-101750737D01*
X184823778Y-101761275D01*
X184793435Y-101768875D01*
X184762493Y-101773465D01*
X184731250Y-101775000D01*
X184093750Y-101775000D01*
X184062507Y-101773465D01*
X184031565Y-101768875D01*
X184001222Y-101761275D01*
X183971770Y-101750737D01*
X183943492Y-101737362D01*
X183916662Y-101721281D01*
X183891537Y-101702647D01*
X183868360Y-101681640D01*
X183847353Y-101658463D01*
X183828719Y-101633338D01*
X183812638Y-101606508D01*
X183799263Y-101578230D01*
X183788725Y-101548778D01*
X183781125Y-101518435D01*
X183776535Y-101487493D01*
X183775000Y-101456250D01*
X183775000Y-100743750D01*
X183776535Y-100712507D01*
X183781125Y-100681565D01*
X183788725Y-100651222D01*
X183799263Y-100621770D01*
X183812638Y-100593492D01*
X183828719Y-100566662D01*
X183847353Y-100541537D01*
X183868360Y-100518360D01*
X183891537Y-100497353D01*
X183916662Y-100478719D01*
X183943492Y-100462638D01*
X183971770Y-100449263D01*
X184001222Y-100438725D01*
X184031565Y-100431125D01*
X184062507Y-100426535D01*
X184093750Y-100425000D01*
X184731250Y-100425000D01*
X184762493Y-100426535D01*
X184762493Y-100426535D01*
G37*
D13*
X184412500Y-101100000D03*
D12*
G36*
X186337493Y-100426535D02*
G01*
X186368435Y-100431125D01*
X186398778Y-100438725D01*
X186428230Y-100449263D01*
X186456508Y-100462638D01*
X186483338Y-100478719D01*
X186508463Y-100497353D01*
X186531640Y-100518360D01*
X186552647Y-100541537D01*
X186571281Y-100566662D01*
X186587362Y-100593492D01*
X186600737Y-100621770D01*
X186611275Y-100651222D01*
X186618875Y-100681565D01*
X186623465Y-100712507D01*
X186625000Y-100743750D01*
X186625000Y-101456250D01*
X186623465Y-101487493D01*
X186618875Y-101518435D01*
X186611275Y-101548778D01*
X186600737Y-101578230D01*
X186587362Y-101606508D01*
X186571281Y-101633338D01*
X186552647Y-101658463D01*
X186531640Y-101681640D01*
X186508463Y-101702647D01*
X186483338Y-101721281D01*
X186456508Y-101737362D01*
X186428230Y-101750737D01*
X186398778Y-101761275D01*
X186368435Y-101768875D01*
X186337493Y-101773465D01*
X186306250Y-101775000D01*
X185668750Y-101775000D01*
X185637507Y-101773465D01*
X185606565Y-101768875D01*
X185576222Y-101761275D01*
X185546770Y-101750737D01*
X185518492Y-101737362D01*
X185491662Y-101721281D01*
X185466537Y-101702647D01*
X185443360Y-101681640D01*
X185422353Y-101658463D01*
X185403719Y-101633338D01*
X185387638Y-101606508D01*
X185374263Y-101578230D01*
X185363725Y-101548778D01*
X185356125Y-101518435D01*
X185351535Y-101487493D01*
X185350000Y-101456250D01*
X185350000Y-100743750D01*
X185351535Y-100712507D01*
X185356125Y-100681565D01*
X185363725Y-100651222D01*
X185374263Y-100621770D01*
X185387638Y-100593492D01*
X185403719Y-100566662D01*
X185422353Y-100541537D01*
X185443360Y-100518360D01*
X185466537Y-100497353D01*
X185491662Y-100478719D01*
X185518492Y-100462638D01*
X185546770Y-100449263D01*
X185576222Y-100438725D01*
X185606565Y-100431125D01*
X185637507Y-100426535D01*
X185668750Y-100425000D01*
X186306250Y-100425000D01*
X186337493Y-100426535D01*
X186337493Y-100426535D01*
G37*
D13*
X185987500Y-101100000D03*
D15*
X190050000Y-113000000D03*
X191000000Y-113000000D03*
X191950000Y-113000000D03*
X191950000Y-110800000D03*
X190050000Y-110800000D03*
D16*
X198050000Y-102800000D03*
X189550000Y-102800000D03*
D17*
X204200000Y-116900000D03*
X208200000Y-101400000D03*
X208200000Y-104600000D03*
D18*
X194025000Y-114950000D03*
X194675000Y-114950000D03*
X195325000Y-114950000D03*
X195975000Y-114950000D03*
X196625000Y-114950000D03*
X197275000Y-114950000D03*
X197925000Y-114950000D03*
X198575000Y-114950000D03*
X198575000Y-109050000D03*
X197925000Y-109050000D03*
X197275000Y-109050000D03*
X196625000Y-109050000D03*
X195975000Y-109050000D03*
X195325000Y-109050000D03*
X194675000Y-109050000D03*
X194025000Y-109050000D03*
D10*
X180000000Y-102000000D03*
M02*
