M48
; DRILL file {KiCad (5.1.2)-1} date 2019/11/04 1:51:57
; FORMAT={-:-/ absolute / metric / decimal}
; #@! TF.CreationDate,2019-11-04T01:51:57+09:00
; #@! TF.GenerationSoftware,Kicad,Pcbnew,(5.1.2)-1
FMAT,2
METRIC
T1C0.400
T2C0.500
T3C0.762
T4C3.200
%
G90
G05
T1
X189.3Y-117.5
X193.0Y-115.0
X195.74Y-110.458
X196.132Y-121.591
X196.3Y-116.386
X199.3Y-106.2
X199.436Y-108.171
X199.464Y-109.735
X200.143Y-120.131
X200.447Y-109.236
X201.143Y-101.924
X203.643Y-118.506
X207.0Y-113.0
T2
X208.2Y-101.4
X204.2Y-116.9
X208.2Y-104.6
T3
X202.2Y-108.0
X202.2Y-110.0
X202.2Y-112.0
X202.2Y-114.0
X185.2Y-108.0
X185.2Y-110.0
X185.2Y-112.0
X185.2Y-114.0
T4
X180.0Y-120.0
X180.0Y-102.0
T0
M30
