G04 #@! TF.GenerationSoftware,KiCad,Pcbnew,(5.1.2)-1*
G04 #@! TF.CreationDate,2019-10-13T00:02:13+09:00*
G04 #@! TF.ProjectId,IR,49522e6b-6963-4616-945f-706362585858,v1.1*
G04 #@! TF.SameCoordinates,Original*
G04 #@! TF.FileFunction,Paste,Top*
G04 #@! TF.FilePolarity,Positive*
%FSLAX46Y46*%
G04 Gerber Fmt 4.6, Leading zero omitted, Abs format (unit mm)*
G04 Created by KiCad (PCBNEW (5.1.2)-1) date 2019-10-13 00:02:13*
%MOMM*%
%LPD*%
G04 APERTURE LIST*
%ADD10O,1.800000X1.524000*%
%ADD11C,0.050000*%
%ADD12C,0.875000*%
%ADD13C,0.975000*%
%ADD14R,0.650000X1.060000*%
%ADD15R,4.500000X2.000000*%
%ADD16R,0.450000X1.500000*%
G04 APERTURE END LIST*
D10*
X185200000Y-114000000D03*
X185200000Y-112000000D03*
X185200000Y-110000000D03*
X185200000Y-108000000D03*
X202200000Y-108000000D03*
X202200000Y-110000000D03*
X202200000Y-112000000D03*
X202200000Y-114000000D03*
D11*
G36*
X193527691Y-116526053D02*
G01*
X193548926Y-116529203D01*
X193569750Y-116534419D01*
X193589962Y-116541651D01*
X193609368Y-116550830D01*
X193627781Y-116561866D01*
X193645024Y-116574654D01*
X193660930Y-116589070D01*
X193675346Y-116604976D01*
X193688134Y-116622219D01*
X193699170Y-116640632D01*
X193708349Y-116660038D01*
X193715581Y-116680250D01*
X193720797Y-116701074D01*
X193723947Y-116722309D01*
X193725000Y-116743750D01*
X193725000Y-117256250D01*
X193723947Y-117277691D01*
X193720797Y-117298926D01*
X193715581Y-117319750D01*
X193708349Y-117339962D01*
X193699170Y-117359368D01*
X193688134Y-117377781D01*
X193675346Y-117395024D01*
X193660930Y-117410930D01*
X193645024Y-117425346D01*
X193627781Y-117438134D01*
X193609368Y-117449170D01*
X193589962Y-117458349D01*
X193569750Y-117465581D01*
X193548926Y-117470797D01*
X193527691Y-117473947D01*
X193506250Y-117475000D01*
X193068750Y-117475000D01*
X193047309Y-117473947D01*
X193026074Y-117470797D01*
X193005250Y-117465581D01*
X192985038Y-117458349D01*
X192965632Y-117449170D01*
X192947219Y-117438134D01*
X192929976Y-117425346D01*
X192914070Y-117410930D01*
X192899654Y-117395024D01*
X192886866Y-117377781D01*
X192875830Y-117359368D01*
X192866651Y-117339962D01*
X192859419Y-117319750D01*
X192854203Y-117298926D01*
X192851053Y-117277691D01*
X192850000Y-117256250D01*
X192850000Y-116743750D01*
X192851053Y-116722309D01*
X192854203Y-116701074D01*
X192859419Y-116680250D01*
X192866651Y-116660038D01*
X192875830Y-116640632D01*
X192886866Y-116622219D01*
X192899654Y-116604976D01*
X192914070Y-116589070D01*
X192929976Y-116574654D01*
X192947219Y-116561866D01*
X192965632Y-116550830D01*
X192985038Y-116541651D01*
X193005250Y-116534419D01*
X193026074Y-116529203D01*
X193047309Y-116526053D01*
X193068750Y-116525000D01*
X193506250Y-116525000D01*
X193527691Y-116526053D01*
X193527691Y-116526053D01*
G37*
D12*
X193287500Y-117000000D03*
D11*
G36*
X191952691Y-116526053D02*
G01*
X191973926Y-116529203D01*
X191994750Y-116534419D01*
X192014962Y-116541651D01*
X192034368Y-116550830D01*
X192052781Y-116561866D01*
X192070024Y-116574654D01*
X192085930Y-116589070D01*
X192100346Y-116604976D01*
X192113134Y-116622219D01*
X192124170Y-116640632D01*
X192133349Y-116660038D01*
X192140581Y-116680250D01*
X192145797Y-116701074D01*
X192148947Y-116722309D01*
X192150000Y-116743750D01*
X192150000Y-117256250D01*
X192148947Y-117277691D01*
X192145797Y-117298926D01*
X192140581Y-117319750D01*
X192133349Y-117339962D01*
X192124170Y-117359368D01*
X192113134Y-117377781D01*
X192100346Y-117395024D01*
X192085930Y-117410930D01*
X192070024Y-117425346D01*
X192052781Y-117438134D01*
X192034368Y-117449170D01*
X192014962Y-117458349D01*
X191994750Y-117465581D01*
X191973926Y-117470797D01*
X191952691Y-117473947D01*
X191931250Y-117475000D01*
X191493750Y-117475000D01*
X191472309Y-117473947D01*
X191451074Y-117470797D01*
X191430250Y-117465581D01*
X191410038Y-117458349D01*
X191390632Y-117449170D01*
X191372219Y-117438134D01*
X191354976Y-117425346D01*
X191339070Y-117410930D01*
X191324654Y-117395024D01*
X191311866Y-117377781D01*
X191300830Y-117359368D01*
X191291651Y-117339962D01*
X191284419Y-117319750D01*
X191279203Y-117298926D01*
X191276053Y-117277691D01*
X191275000Y-117256250D01*
X191275000Y-116743750D01*
X191276053Y-116722309D01*
X191279203Y-116701074D01*
X191284419Y-116680250D01*
X191291651Y-116660038D01*
X191300830Y-116640632D01*
X191311866Y-116622219D01*
X191324654Y-116604976D01*
X191339070Y-116589070D01*
X191354976Y-116574654D01*
X191372219Y-116561866D01*
X191390632Y-116550830D01*
X191410038Y-116541651D01*
X191430250Y-116534419D01*
X191451074Y-116529203D01*
X191472309Y-116526053D01*
X191493750Y-116525000D01*
X191931250Y-116525000D01*
X191952691Y-116526053D01*
X191952691Y-116526053D01*
G37*
D12*
X191712500Y-117000000D03*
D11*
G36*
X192205142Y-114301174D02*
G01*
X192228803Y-114304684D01*
X192252007Y-114310496D01*
X192274529Y-114318554D01*
X192296153Y-114328782D01*
X192316670Y-114341079D01*
X192335883Y-114355329D01*
X192353607Y-114371393D01*
X192369671Y-114389117D01*
X192383921Y-114408330D01*
X192396218Y-114428847D01*
X192406446Y-114450471D01*
X192414504Y-114472993D01*
X192420316Y-114496197D01*
X192423826Y-114519858D01*
X192425000Y-114543750D01*
X192425000Y-115456250D01*
X192423826Y-115480142D01*
X192420316Y-115503803D01*
X192414504Y-115527007D01*
X192406446Y-115549529D01*
X192396218Y-115571153D01*
X192383921Y-115591670D01*
X192369671Y-115610883D01*
X192353607Y-115628607D01*
X192335883Y-115644671D01*
X192316670Y-115658921D01*
X192296153Y-115671218D01*
X192274529Y-115681446D01*
X192252007Y-115689504D01*
X192228803Y-115695316D01*
X192205142Y-115698826D01*
X192181250Y-115700000D01*
X191693750Y-115700000D01*
X191669858Y-115698826D01*
X191646197Y-115695316D01*
X191622993Y-115689504D01*
X191600471Y-115681446D01*
X191578847Y-115671218D01*
X191558330Y-115658921D01*
X191539117Y-115644671D01*
X191521393Y-115628607D01*
X191505329Y-115610883D01*
X191491079Y-115591670D01*
X191478782Y-115571153D01*
X191468554Y-115549529D01*
X191460496Y-115527007D01*
X191454684Y-115503803D01*
X191451174Y-115480142D01*
X191450000Y-115456250D01*
X191450000Y-114543750D01*
X191451174Y-114519858D01*
X191454684Y-114496197D01*
X191460496Y-114472993D01*
X191468554Y-114450471D01*
X191478782Y-114428847D01*
X191491079Y-114408330D01*
X191505329Y-114389117D01*
X191521393Y-114371393D01*
X191539117Y-114355329D01*
X191558330Y-114341079D01*
X191578847Y-114328782D01*
X191600471Y-114318554D01*
X191622993Y-114310496D01*
X191646197Y-114304684D01*
X191669858Y-114301174D01*
X191693750Y-114300000D01*
X192181250Y-114300000D01*
X192205142Y-114301174D01*
X192205142Y-114301174D01*
G37*
D13*
X191937500Y-115000000D03*
D11*
G36*
X190330142Y-114301174D02*
G01*
X190353803Y-114304684D01*
X190377007Y-114310496D01*
X190399529Y-114318554D01*
X190421153Y-114328782D01*
X190441670Y-114341079D01*
X190460883Y-114355329D01*
X190478607Y-114371393D01*
X190494671Y-114389117D01*
X190508921Y-114408330D01*
X190521218Y-114428847D01*
X190531446Y-114450471D01*
X190539504Y-114472993D01*
X190545316Y-114496197D01*
X190548826Y-114519858D01*
X190550000Y-114543750D01*
X190550000Y-115456250D01*
X190548826Y-115480142D01*
X190545316Y-115503803D01*
X190539504Y-115527007D01*
X190531446Y-115549529D01*
X190521218Y-115571153D01*
X190508921Y-115591670D01*
X190494671Y-115610883D01*
X190478607Y-115628607D01*
X190460883Y-115644671D01*
X190441670Y-115658921D01*
X190421153Y-115671218D01*
X190399529Y-115681446D01*
X190377007Y-115689504D01*
X190353803Y-115695316D01*
X190330142Y-115698826D01*
X190306250Y-115700000D01*
X189818750Y-115700000D01*
X189794858Y-115698826D01*
X189771197Y-115695316D01*
X189747993Y-115689504D01*
X189725471Y-115681446D01*
X189703847Y-115671218D01*
X189683330Y-115658921D01*
X189664117Y-115644671D01*
X189646393Y-115628607D01*
X189630329Y-115610883D01*
X189616079Y-115591670D01*
X189603782Y-115571153D01*
X189593554Y-115549529D01*
X189585496Y-115527007D01*
X189579684Y-115503803D01*
X189576174Y-115480142D01*
X189575000Y-115456250D01*
X189575000Y-114543750D01*
X189576174Y-114519858D01*
X189579684Y-114496197D01*
X189585496Y-114472993D01*
X189593554Y-114450471D01*
X189603782Y-114428847D01*
X189616079Y-114408330D01*
X189630329Y-114389117D01*
X189646393Y-114371393D01*
X189664117Y-114355329D01*
X189683330Y-114341079D01*
X189703847Y-114328782D01*
X189725471Y-114318554D01*
X189747993Y-114310496D01*
X189771197Y-114304684D01*
X189794858Y-114301174D01*
X189818750Y-114300000D01*
X190306250Y-114300000D01*
X190330142Y-114301174D01*
X190330142Y-114301174D01*
G37*
D13*
X190062500Y-115000000D03*
D11*
G36*
X192277691Y-106776053D02*
G01*
X192298926Y-106779203D01*
X192319750Y-106784419D01*
X192339962Y-106791651D01*
X192359368Y-106800830D01*
X192377781Y-106811866D01*
X192395024Y-106824654D01*
X192410930Y-106839070D01*
X192425346Y-106854976D01*
X192438134Y-106872219D01*
X192449170Y-106890632D01*
X192458349Y-106910038D01*
X192465581Y-106930250D01*
X192470797Y-106951074D01*
X192473947Y-106972309D01*
X192475000Y-106993750D01*
X192475000Y-107431250D01*
X192473947Y-107452691D01*
X192470797Y-107473926D01*
X192465581Y-107494750D01*
X192458349Y-107514962D01*
X192449170Y-107534368D01*
X192438134Y-107552781D01*
X192425346Y-107570024D01*
X192410930Y-107585930D01*
X192395024Y-107600346D01*
X192377781Y-107613134D01*
X192359368Y-107624170D01*
X192339962Y-107633349D01*
X192319750Y-107640581D01*
X192298926Y-107645797D01*
X192277691Y-107648947D01*
X192256250Y-107650000D01*
X191743750Y-107650000D01*
X191722309Y-107648947D01*
X191701074Y-107645797D01*
X191680250Y-107640581D01*
X191660038Y-107633349D01*
X191640632Y-107624170D01*
X191622219Y-107613134D01*
X191604976Y-107600346D01*
X191589070Y-107585930D01*
X191574654Y-107570024D01*
X191561866Y-107552781D01*
X191550830Y-107534368D01*
X191541651Y-107514962D01*
X191534419Y-107494750D01*
X191529203Y-107473926D01*
X191526053Y-107452691D01*
X191525000Y-107431250D01*
X191525000Y-106993750D01*
X191526053Y-106972309D01*
X191529203Y-106951074D01*
X191534419Y-106930250D01*
X191541651Y-106910038D01*
X191550830Y-106890632D01*
X191561866Y-106872219D01*
X191574654Y-106854976D01*
X191589070Y-106839070D01*
X191604976Y-106824654D01*
X191622219Y-106811866D01*
X191640632Y-106800830D01*
X191660038Y-106791651D01*
X191680250Y-106784419D01*
X191701074Y-106779203D01*
X191722309Y-106776053D01*
X191743750Y-106775000D01*
X192256250Y-106775000D01*
X192277691Y-106776053D01*
X192277691Y-106776053D01*
G37*
D12*
X192000000Y-107212500D03*
D11*
G36*
X192277691Y-108351053D02*
G01*
X192298926Y-108354203D01*
X192319750Y-108359419D01*
X192339962Y-108366651D01*
X192359368Y-108375830D01*
X192377781Y-108386866D01*
X192395024Y-108399654D01*
X192410930Y-108414070D01*
X192425346Y-108429976D01*
X192438134Y-108447219D01*
X192449170Y-108465632D01*
X192458349Y-108485038D01*
X192465581Y-108505250D01*
X192470797Y-108526074D01*
X192473947Y-108547309D01*
X192475000Y-108568750D01*
X192475000Y-109006250D01*
X192473947Y-109027691D01*
X192470797Y-109048926D01*
X192465581Y-109069750D01*
X192458349Y-109089962D01*
X192449170Y-109109368D01*
X192438134Y-109127781D01*
X192425346Y-109145024D01*
X192410930Y-109160930D01*
X192395024Y-109175346D01*
X192377781Y-109188134D01*
X192359368Y-109199170D01*
X192339962Y-109208349D01*
X192319750Y-109215581D01*
X192298926Y-109220797D01*
X192277691Y-109223947D01*
X192256250Y-109225000D01*
X191743750Y-109225000D01*
X191722309Y-109223947D01*
X191701074Y-109220797D01*
X191680250Y-109215581D01*
X191660038Y-109208349D01*
X191640632Y-109199170D01*
X191622219Y-109188134D01*
X191604976Y-109175346D01*
X191589070Y-109160930D01*
X191574654Y-109145024D01*
X191561866Y-109127781D01*
X191550830Y-109109368D01*
X191541651Y-109089962D01*
X191534419Y-109069750D01*
X191529203Y-109048926D01*
X191526053Y-109027691D01*
X191525000Y-109006250D01*
X191525000Y-108568750D01*
X191526053Y-108547309D01*
X191529203Y-108526074D01*
X191534419Y-108505250D01*
X191541651Y-108485038D01*
X191550830Y-108465632D01*
X191561866Y-108447219D01*
X191574654Y-108429976D01*
X191589070Y-108414070D01*
X191604976Y-108399654D01*
X191622219Y-108386866D01*
X191640632Y-108375830D01*
X191660038Y-108366651D01*
X191680250Y-108359419D01*
X191701074Y-108354203D01*
X191722309Y-108351053D01*
X191743750Y-108350000D01*
X192256250Y-108350000D01*
X192277691Y-108351053D01*
X192277691Y-108351053D01*
G37*
D12*
X192000000Y-108787500D03*
D11*
G36*
X190580142Y-108251174D02*
G01*
X190603803Y-108254684D01*
X190627007Y-108260496D01*
X190649529Y-108268554D01*
X190671153Y-108278782D01*
X190691670Y-108291079D01*
X190710883Y-108305329D01*
X190728607Y-108321393D01*
X190744671Y-108339117D01*
X190758921Y-108358330D01*
X190771218Y-108378847D01*
X190781446Y-108400471D01*
X190789504Y-108422993D01*
X190795316Y-108446197D01*
X190798826Y-108469858D01*
X190800000Y-108493750D01*
X190800000Y-108981250D01*
X190798826Y-109005142D01*
X190795316Y-109028803D01*
X190789504Y-109052007D01*
X190781446Y-109074529D01*
X190771218Y-109096153D01*
X190758921Y-109116670D01*
X190744671Y-109135883D01*
X190728607Y-109153607D01*
X190710883Y-109169671D01*
X190691670Y-109183921D01*
X190671153Y-109196218D01*
X190649529Y-109206446D01*
X190627007Y-109214504D01*
X190603803Y-109220316D01*
X190580142Y-109223826D01*
X190556250Y-109225000D01*
X189643750Y-109225000D01*
X189619858Y-109223826D01*
X189596197Y-109220316D01*
X189572993Y-109214504D01*
X189550471Y-109206446D01*
X189528847Y-109196218D01*
X189508330Y-109183921D01*
X189489117Y-109169671D01*
X189471393Y-109153607D01*
X189455329Y-109135883D01*
X189441079Y-109116670D01*
X189428782Y-109096153D01*
X189418554Y-109074529D01*
X189410496Y-109052007D01*
X189404684Y-109028803D01*
X189401174Y-109005142D01*
X189400000Y-108981250D01*
X189400000Y-108493750D01*
X189401174Y-108469858D01*
X189404684Y-108446197D01*
X189410496Y-108422993D01*
X189418554Y-108400471D01*
X189428782Y-108378847D01*
X189441079Y-108358330D01*
X189455329Y-108339117D01*
X189471393Y-108321393D01*
X189489117Y-108305329D01*
X189508330Y-108291079D01*
X189528847Y-108278782D01*
X189550471Y-108268554D01*
X189572993Y-108260496D01*
X189596197Y-108254684D01*
X189619858Y-108251174D01*
X189643750Y-108250000D01*
X190556250Y-108250000D01*
X190580142Y-108251174D01*
X190580142Y-108251174D01*
G37*
D13*
X190100000Y-108737500D03*
D11*
G36*
X190580142Y-106376174D02*
G01*
X190603803Y-106379684D01*
X190627007Y-106385496D01*
X190649529Y-106393554D01*
X190671153Y-106403782D01*
X190691670Y-106416079D01*
X190710883Y-106430329D01*
X190728607Y-106446393D01*
X190744671Y-106464117D01*
X190758921Y-106483330D01*
X190771218Y-106503847D01*
X190781446Y-106525471D01*
X190789504Y-106547993D01*
X190795316Y-106571197D01*
X190798826Y-106594858D01*
X190800000Y-106618750D01*
X190800000Y-107106250D01*
X190798826Y-107130142D01*
X190795316Y-107153803D01*
X190789504Y-107177007D01*
X190781446Y-107199529D01*
X190771218Y-107221153D01*
X190758921Y-107241670D01*
X190744671Y-107260883D01*
X190728607Y-107278607D01*
X190710883Y-107294671D01*
X190691670Y-107308921D01*
X190671153Y-107321218D01*
X190649529Y-107331446D01*
X190627007Y-107339504D01*
X190603803Y-107345316D01*
X190580142Y-107348826D01*
X190556250Y-107350000D01*
X189643750Y-107350000D01*
X189619858Y-107348826D01*
X189596197Y-107345316D01*
X189572993Y-107339504D01*
X189550471Y-107331446D01*
X189528847Y-107321218D01*
X189508330Y-107308921D01*
X189489117Y-107294671D01*
X189471393Y-107278607D01*
X189455329Y-107260883D01*
X189441079Y-107241670D01*
X189428782Y-107221153D01*
X189418554Y-107199529D01*
X189410496Y-107177007D01*
X189404684Y-107153803D01*
X189401174Y-107130142D01*
X189400000Y-107106250D01*
X189400000Y-106618750D01*
X189401174Y-106594858D01*
X189404684Y-106571197D01*
X189410496Y-106547993D01*
X189418554Y-106525471D01*
X189428782Y-106503847D01*
X189441079Y-106483330D01*
X189455329Y-106464117D01*
X189471393Y-106446393D01*
X189489117Y-106430329D01*
X189508330Y-106416079D01*
X189528847Y-106403782D01*
X189550471Y-106393554D01*
X189572993Y-106385496D01*
X189596197Y-106379684D01*
X189619858Y-106376174D01*
X189643750Y-106375000D01*
X190556250Y-106375000D01*
X190580142Y-106376174D01*
X190580142Y-106376174D01*
G37*
D13*
X190100000Y-106862500D03*
D11*
G36*
X203327691Y-104226053D02*
G01*
X203348926Y-104229203D01*
X203369750Y-104234419D01*
X203389962Y-104241651D01*
X203409368Y-104250830D01*
X203427781Y-104261866D01*
X203445024Y-104274654D01*
X203460930Y-104289070D01*
X203475346Y-104304976D01*
X203488134Y-104322219D01*
X203499170Y-104340632D01*
X203508349Y-104360038D01*
X203515581Y-104380250D01*
X203520797Y-104401074D01*
X203523947Y-104422309D01*
X203525000Y-104443750D01*
X203525000Y-104956250D01*
X203523947Y-104977691D01*
X203520797Y-104998926D01*
X203515581Y-105019750D01*
X203508349Y-105039962D01*
X203499170Y-105059368D01*
X203488134Y-105077781D01*
X203475346Y-105095024D01*
X203460930Y-105110930D01*
X203445024Y-105125346D01*
X203427781Y-105138134D01*
X203409368Y-105149170D01*
X203389962Y-105158349D01*
X203369750Y-105165581D01*
X203348926Y-105170797D01*
X203327691Y-105173947D01*
X203306250Y-105175000D01*
X202868750Y-105175000D01*
X202847309Y-105173947D01*
X202826074Y-105170797D01*
X202805250Y-105165581D01*
X202785038Y-105158349D01*
X202765632Y-105149170D01*
X202747219Y-105138134D01*
X202729976Y-105125346D01*
X202714070Y-105110930D01*
X202699654Y-105095024D01*
X202686866Y-105077781D01*
X202675830Y-105059368D01*
X202666651Y-105039962D01*
X202659419Y-105019750D01*
X202654203Y-104998926D01*
X202651053Y-104977691D01*
X202650000Y-104956250D01*
X202650000Y-104443750D01*
X202651053Y-104422309D01*
X202654203Y-104401074D01*
X202659419Y-104380250D01*
X202666651Y-104360038D01*
X202675830Y-104340632D01*
X202686866Y-104322219D01*
X202699654Y-104304976D01*
X202714070Y-104289070D01*
X202729976Y-104274654D01*
X202747219Y-104261866D01*
X202765632Y-104250830D01*
X202785038Y-104241651D01*
X202805250Y-104234419D01*
X202826074Y-104229203D01*
X202847309Y-104226053D01*
X202868750Y-104225000D01*
X203306250Y-104225000D01*
X203327691Y-104226053D01*
X203327691Y-104226053D01*
G37*
D12*
X203087500Y-104700000D03*
D11*
G36*
X201752691Y-104226053D02*
G01*
X201773926Y-104229203D01*
X201794750Y-104234419D01*
X201814962Y-104241651D01*
X201834368Y-104250830D01*
X201852781Y-104261866D01*
X201870024Y-104274654D01*
X201885930Y-104289070D01*
X201900346Y-104304976D01*
X201913134Y-104322219D01*
X201924170Y-104340632D01*
X201933349Y-104360038D01*
X201940581Y-104380250D01*
X201945797Y-104401074D01*
X201948947Y-104422309D01*
X201950000Y-104443750D01*
X201950000Y-104956250D01*
X201948947Y-104977691D01*
X201945797Y-104998926D01*
X201940581Y-105019750D01*
X201933349Y-105039962D01*
X201924170Y-105059368D01*
X201913134Y-105077781D01*
X201900346Y-105095024D01*
X201885930Y-105110930D01*
X201870024Y-105125346D01*
X201852781Y-105138134D01*
X201834368Y-105149170D01*
X201814962Y-105158349D01*
X201794750Y-105165581D01*
X201773926Y-105170797D01*
X201752691Y-105173947D01*
X201731250Y-105175000D01*
X201293750Y-105175000D01*
X201272309Y-105173947D01*
X201251074Y-105170797D01*
X201230250Y-105165581D01*
X201210038Y-105158349D01*
X201190632Y-105149170D01*
X201172219Y-105138134D01*
X201154976Y-105125346D01*
X201139070Y-105110930D01*
X201124654Y-105095024D01*
X201111866Y-105077781D01*
X201100830Y-105059368D01*
X201091651Y-105039962D01*
X201084419Y-105019750D01*
X201079203Y-104998926D01*
X201076053Y-104977691D01*
X201075000Y-104956250D01*
X201075000Y-104443750D01*
X201076053Y-104422309D01*
X201079203Y-104401074D01*
X201084419Y-104380250D01*
X201091651Y-104360038D01*
X201100830Y-104340632D01*
X201111866Y-104322219D01*
X201124654Y-104304976D01*
X201139070Y-104289070D01*
X201154976Y-104274654D01*
X201172219Y-104261866D01*
X201190632Y-104250830D01*
X201210038Y-104241651D01*
X201230250Y-104234419D01*
X201251074Y-104229203D01*
X201272309Y-104226053D01*
X201293750Y-104225000D01*
X201731250Y-104225000D01*
X201752691Y-104226053D01*
X201752691Y-104226053D01*
G37*
D12*
X201512500Y-104700000D03*
D11*
G36*
X186227691Y-104726053D02*
G01*
X186248926Y-104729203D01*
X186269750Y-104734419D01*
X186289962Y-104741651D01*
X186309368Y-104750830D01*
X186327781Y-104761866D01*
X186345024Y-104774654D01*
X186360930Y-104789070D01*
X186375346Y-104804976D01*
X186388134Y-104822219D01*
X186399170Y-104840632D01*
X186408349Y-104860038D01*
X186415581Y-104880250D01*
X186420797Y-104901074D01*
X186423947Y-104922309D01*
X186425000Y-104943750D01*
X186425000Y-105456250D01*
X186423947Y-105477691D01*
X186420797Y-105498926D01*
X186415581Y-105519750D01*
X186408349Y-105539962D01*
X186399170Y-105559368D01*
X186388134Y-105577781D01*
X186375346Y-105595024D01*
X186360930Y-105610930D01*
X186345024Y-105625346D01*
X186327781Y-105638134D01*
X186309368Y-105649170D01*
X186289962Y-105658349D01*
X186269750Y-105665581D01*
X186248926Y-105670797D01*
X186227691Y-105673947D01*
X186206250Y-105675000D01*
X185768750Y-105675000D01*
X185747309Y-105673947D01*
X185726074Y-105670797D01*
X185705250Y-105665581D01*
X185685038Y-105658349D01*
X185665632Y-105649170D01*
X185647219Y-105638134D01*
X185629976Y-105625346D01*
X185614070Y-105610930D01*
X185599654Y-105595024D01*
X185586866Y-105577781D01*
X185575830Y-105559368D01*
X185566651Y-105539962D01*
X185559419Y-105519750D01*
X185554203Y-105498926D01*
X185551053Y-105477691D01*
X185550000Y-105456250D01*
X185550000Y-104943750D01*
X185551053Y-104922309D01*
X185554203Y-104901074D01*
X185559419Y-104880250D01*
X185566651Y-104860038D01*
X185575830Y-104840632D01*
X185586866Y-104822219D01*
X185599654Y-104804976D01*
X185614070Y-104789070D01*
X185629976Y-104774654D01*
X185647219Y-104761866D01*
X185665632Y-104750830D01*
X185685038Y-104741651D01*
X185705250Y-104734419D01*
X185726074Y-104729203D01*
X185747309Y-104726053D01*
X185768750Y-104725000D01*
X186206250Y-104725000D01*
X186227691Y-104726053D01*
X186227691Y-104726053D01*
G37*
D12*
X185987500Y-105200000D03*
D11*
G36*
X184652691Y-104726053D02*
G01*
X184673926Y-104729203D01*
X184694750Y-104734419D01*
X184714962Y-104741651D01*
X184734368Y-104750830D01*
X184752781Y-104761866D01*
X184770024Y-104774654D01*
X184785930Y-104789070D01*
X184800346Y-104804976D01*
X184813134Y-104822219D01*
X184824170Y-104840632D01*
X184833349Y-104860038D01*
X184840581Y-104880250D01*
X184845797Y-104901074D01*
X184848947Y-104922309D01*
X184850000Y-104943750D01*
X184850000Y-105456250D01*
X184848947Y-105477691D01*
X184845797Y-105498926D01*
X184840581Y-105519750D01*
X184833349Y-105539962D01*
X184824170Y-105559368D01*
X184813134Y-105577781D01*
X184800346Y-105595024D01*
X184785930Y-105610930D01*
X184770024Y-105625346D01*
X184752781Y-105638134D01*
X184734368Y-105649170D01*
X184714962Y-105658349D01*
X184694750Y-105665581D01*
X184673926Y-105670797D01*
X184652691Y-105673947D01*
X184631250Y-105675000D01*
X184193750Y-105675000D01*
X184172309Y-105673947D01*
X184151074Y-105670797D01*
X184130250Y-105665581D01*
X184110038Y-105658349D01*
X184090632Y-105649170D01*
X184072219Y-105638134D01*
X184054976Y-105625346D01*
X184039070Y-105610930D01*
X184024654Y-105595024D01*
X184011866Y-105577781D01*
X184000830Y-105559368D01*
X183991651Y-105539962D01*
X183984419Y-105519750D01*
X183979203Y-105498926D01*
X183976053Y-105477691D01*
X183975000Y-105456250D01*
X183975000Y-104943750D01*
X183976053Y-104922309D01*
X183979203Y-104901074D01*
X183984419Y-104880250D01*
X183991651Y-104860038D01*
X184000830Y-104840632D01*
X184011866Y-104822219D01*
X184024654Y-104804976D01*
X184039070Y-104789070D01*
X184054976Y-104774654D01*
X184072219Y-104761866D01*
X184090632Y-104750830D01*
X184110038Y-104741651D01*
X184130250Y-104734419D01*
X184151074Y-104729203D01*
X184172309Y-104726053D01*
X184193750Y-104725000D01*
X184631250Y-104725000D01*
X184652691Y-104726053D01*
X184652691Y-104726053D01*
G37*
D12*
X184412500Y-105200000D03*
D11*
G36*
X184652691Y-102826053D02*
G01*
X184673926Y-102829203D01*
X184694750Y-102834419D01*
X184714962Y-102841651D01*
X184734368Y-102850830D01*
X184752781Y-102861866D01*
X184770024Y-102874654D01*
X184785930Y-102889070D01*
X184800346Y-102904976D01*
X184813134Y-102922219D01*
X184824170Y-102940632D01*
X184833349Y-102960038D01*
X184840581Y-102980250D01*
X184845797Y-103001074D01*
X184848947Y-103022309D01*
X184850000Y-103043750D01*
X184850000Y-103556250D01*
X184848947Y-103577691D01*
X184845797Y-103598926D01*
X184840581Y-103619750D01*
X184833349Y-103639962D01*
X184824170Y-103659368D01*
X184813134Y-103677781D01*
X184800346Y-103695024D01*
X184785930Y-103710930D01*
X184770024Y-103725346D01*
X184752781Y-103738134D01*
X184734368Y-103749170D01*
X184714962Y-103758349D01*
X184694750Y-103765581D01*
X184673926Y-103770797D01*
X184652691Y-103773947D01*
X184631250Y-103775000D01*
X184193750Y-103775000D01*
X184172309Y-103773947D01*
X184151074Y-103770797D01*
X184130250Y-103765581D01*
X184110038Y-103758349D01*
X184090632Y-103749170D01*
X184072219Y-103738134D01*
X184054976Y-103725346D01*
X184039070Y-103710930D01*
X184024654Y-103695024D01*
X184011866Y-103677781D01*
X184000830Y-103659368D01*
X183991651Y-103639962D01*
X183984419Y-103619750D01*
X183979203Y-103598926D01*
X183976053Y-103577691D01*
X183975000Y-103556250D01*
X183975000Y-103043750D01*
X183976053Y-103022309D01*
X183979203Y-103001074D01*
X183984419Y-102980250D01*
X183991651Y-102960038D01*
X184000830Y-102940632D01*
X184011866Y-102922219D01*
X184024654Y-102904976D01*
X184039070Y-102889070D01*
X184054976Y-102874654D01*
X184072219Y-102861866D01*
X184090632Y-102850830D01*
X184110038Y-102841651D01*
X184130250Y-102834419D01*
X184151074Y-102829203D01*
X184172309Y-102826053D01*
X184193750Y-102825000D01*
X184631250Y-102825000D01*
X184652691Y-102826053D01*
X184652691Y-102826053D01*
G37*
D12*
X184412500Y-103300000D03*
D11*
G36*
X186227691Y-102826053D02*
G01*
X186248926Y-102829203D01*
X186269750Y-102834419D01*
X186289962Y-102841651D01*
X186309368Y-102850830D01*
X186327781Y-102861866D01*
X186345024Y-102874654D01*
X186360930Y-102889070D01*
X186375346Y-102904976D01*
X186388134Y-102922219D01*
X186399170Y-102940632D01*
X186408349Y-102960038D01*
X186415581Y-102980250D01*
X186420797Y-103001074D01*
X186423947Y-103022309D01*
X186425000Y-103043750D01*
X186425000Y-103556250D01*
X186423947Y-103577691D01*
X186420797Y-103598926D01*
X186415581Y-103619750D01*
X186408349Y-103639962D01*
X186399170Y-103659368D01*
X186388134Y-103677781D01*
X186375346Y-103695024D01*
X186360930Y-103710930D01*
X186345024Y-103725346D01*
X186327781Y-103738134D01*
X186309368Y-103749170D01*
X186289962Y-103758349D01*
X186269750Y-103765581D01*
X186248926Y-103770797D01*
X186227691Y-103773947D01*
X186206250Y-103775000D01*
X185768750Y-103775000D01*
X185747309Y-103773947D01*
X185726074Y-103770797D01*
X185705250Y-103765581D01*
X185685038Y-103758349D01*
X185665632Y-103749170D01*
X185647219Y-103738134D01*
X185629976Y-103725346D01*
X185614070Y-103710930D01*
X185599654Y-103695024D01*
X185586866Y-103677781D01*
X185575830Y-103659368D01*
X185566651Y-103639962D01*
X185559419Y-103619750D01*
X185554203Y-103598926D01*
X185551053Y-103577691D01*
X185550000Y-103556250D01*
X185550000Y-103043750D01*
X185551053Y-103022309D01*
X185554203Y-103001074D01*
X185559419Y-102980250D01*
X185566651Y-102960038D01*
X185575830Y-102940632D01*
X185586866Y-102922219D01*
X185599654Y-102904976D01*
X185614070Y-102889070D01*
X185629976Y-102874654D01*
X185647219Y-102861866D01*
X185665632Y-102850830D01*
X185685038Y-102841651D01*
X185705250Y-102834419D01*
X185726074Y-102829203D01*
X185747309Y-102826053D01*
X185768750Y-102825000D01*
X186206250Y-102825000D01*
X186227691Y-102826053D01*
X186227691Y-102826053D01*
G37*
D12*
X185987500Y-103300000D03*
D11*
G36*
X193352691Y-120626053D02*
G01*
X193373926Y-120629203D01*
X193394750Y-120634419D01*
X193414962Y-120641651D01*
X193434368Y-120650830D01*
X193452781Y-120661866D01*
X193470024Y-120674654D01*
X193485930Y-120689070D01*
X193500346Y-120704976D01*
X193513134Y-120722219D01*
X193524170Y-120740632D01*
X193533349Y-120760038D01*
X193540581Y-120780250D01*
X193545797Y-120801074D01*
X193548947Y-120822309D01*
X193550000Y-120843750D01*
X193550000Y-121356250D01*
X193548947Y-121377691D01*
X193545797Y-121398926D01*
X193540581Y-121419750D01*
X193533349Y-121439962D01*
X193524170Y-121459368D01*
X193513134Y-121477781D01*
X193500346Y-121495024D01*
X193485930Y-121510930D01*
X193470024Y-121525346D01*
X193452781Y-121538134D01*
X193434368Y-121549170D01*
X193414962Y-121558349D01*
X193394750Y-121565581D01*
X193373926Y-121570797D01*
X193352691Y-121573947D01*
X193331250Y-121575000D01*
X192893750Y-121575000D01*
X192872309Y-121573947D01*
X192851074Y-121570797D01*
X192830250Y-121565581D01*
X192810038Y-121558349D01*
X192790632Y-121549170D01*
X192772219Y-121538134D01*
X192754976Y-121525346D01*
X192739070Y-121510930D01*
X192724654Y-121495024D01*
X192711866Y-121477781D01*
X192700830Y-121459368D01*
X192691651Y-121439962D01*
X192684419Y-121419750D01*
X192679203Y-121398926D01*
X192676053Y-121377691D01*
X192675000Y-121356250D01*
X192675000Y-120843750D01*
X192676053Y-120822309D01*
X192679203Y-120801074D01*
X192684419Y-120780250D01*
X192691651Y-120760038D01*
X192700830Y-120740632D01*
X192711866Y-120722219D01*
X192724654Y-120704976D01*
X192739070Y-120689070D01*
X192754976Y-120674654D01*
X192772219Y-120661866D01*
X192790632Y-120650830D01*
X192810038Y-120641651D01*
X192830250Y-120634419D01*
X192851074Y-120629203D01*
X192872309Y-120626053D01*
X192893750Y-120625000D01*
X193331250Y-120625000D01*
X193352691Y-120626053D01*
X193352691Y-120626053D01*
G37*
D12*
X193112500Y-121100000D03*
D11*
G36*
X194927691Y-120626053D02*
G01*
X194948926Y-120629203D01*
X194969750Y-120634419D01*
X194989962Y-120641651D01*
X195009368Y-120650830D01*
X195027781Y-120661866D01*
X195045024Y-120674654D01*
X195060930Y-120689070D01*
X195075346Y-120704976D01*
X195088134Y-120722219D01*
X195099170Y-120740632D01*
X195108349Y-120760038D01*
X195115581Y-120780250D01*
X195120797Y-120801074D01*
X195123947Y-120822309D01*
X195125000Y-120843750D01*
X195125000Y-121356250D01*
X195123947Y-121377691D01*
X195120797Y-121398926D01*
X195115581Y-121419750D01*
X195108349Y-121439962D01*
X195099170Y-121459368D01*
X195088134Y-121477781D01*
X195075346Y-121495024D01*
X195060930Y-121510930D01*
X195045024Y-121525346D01*
X195027781Y-121538134D01*
X195009368Y-121549170D01*
X194989962Y-121558349D01*
X194969750Y-121565581D01*
X194948926Y-121570797D01*
X194927691Y-121573947D01*
X194906250Y-121575000D01*
X194468750Y-121575000D01*
X194447309Y-121573947D01*
X194426074Y-121570797D01*
X194405250Y-121565581D01*
X194385038Y-121558349D01*
X194365632Y-121549170D01*
X194347219Y-121538134D01*
X194329976Y-121525346D01*
X194314070Y-121510930D01*
X194299654Y-121495024D01*
X194286866Y-121477781D01*
X194275830Y-121459368D01*
X194266651Y-121439962D01*
X194259419Y-121419750D01*
X194254203Y-121398926D01*
X194251053Y-121377691D01*
X194250000Y-121356250D01*
X194250000Y-120843750D01*
X194251053Y-120822309D01*
X194254203Y-120801074D01*
X194259419Y-120780250D01*
X194266651Y-120760038D01*
X194275830Y-120740632D01*
X194286866Y-120722219D01*
X194299654Y-120704976D01*
X194314070Y-120689070D01*
X194329976Y-120674654D01*
X194347219Y-120661866D01*
X194365632Y-120650830D01*
X194385038Y-120641651D01*
X194405250Y-120634419D01*
X194426074Y-120629203D01*
X194447309Y-120626053D01*
X194468750Y-120625000D01*
X194906250Y-120625000D01*
X194927691Y-120626053D01*
X194927691Y-120626053D01*
G37*
D12*
X194687500Y-121100000D03*
D11*
G36*
X191627691Y-120626053D02*
G01*
X191648926Y-120629203D01*
X191669750Y-120634419D01*
X191689962Y-120641651D01*
X191709368Y-120650830D01*
X191727781Y-120661866D01*
X191745024Y-120674654D01*
X191760930Y-120689070D01*
X191775346Y-120704976D01*
X191788134Y-120722219D01*
X191799170Y-120740632D01*
X191808349Y-120760038D01*
X191815581Y-120780250D01*
X191820797Y-120801074D01*
X191823947Y-120822309D01*
X191825000Y-120843750D01*
X191825000Y-121356250D01*
X191823947Y-121377691D01*
X191820797Y-121398926D01*
X191815581Y-121419750D01*
X191808349Y-121439962D01*
X191799170Y-121459368D01*
X191788134Y-121477781D01*
X191775346Y-121495024D01*
X191760930Y-121510930D01*
X191745024Y-121525346D01*
X191727781Y-121538134D01*
X191709368Y-121549170D01*
X191689962Y-121558349D01*
X191669750Y-121565581D01*
X191648926Y-121570797D01*
X191627691Y-121573947D01*
X191606250Y-121575000D01*
X191168750Y-121575000D01*
X191147309Y-121573947D01*
X191126074Y-121570797D01*
X191105250Y-121565581D01*
X191085038Y-121558349D01*
X191065632Y-121549170D01*
X191047219Y-121538134D01*
X191029976Y-121525346D01*
X191014070Y-121510930D01*
X190999654Y-121495024D01*
X190986866Y-121477781D01*
X190975830Y-121459368D01*
X190966651Y-121439962D01*
X190959419Y-121419750D01*
X190954203Y-121398926D01*
X190951053Y-121377691D01*
X190950000Y-121356250D01*
X190950000Y-120843750D01*
X190951053Y-120822309D01*
X190954203Y-120801074D01*
X190959419Y-120780250D01*
X190966651Y-120760038D01*
X190975830Y-120740632D01*
X190986866Y-120722219D01*
X190999654Y-120704976D01*
X191014070Y-120689070D01*
X191029976Y-120674654D01*
X191047219Y-120661866D01*
X191065632Y-120650830D01*
X191085038Y-120641651D01*
X191105250Y-120634419D01*
X191126074Y-120629203D01*
X191147309Y-120626053D01*
X191168750Y-120625000D01*
X191606250Y-120625000D01*
X191627691Y-120626053D01*
X191627691Y-120626053D01*
G37*
D12*
X191387500Y-121100000D03*
D11*
G36*
X190052691Y-120626053D02*
G01*
X190073926Y-120629203D01*
X190094750Y-120634419D01*
X190114962Y-120641651D01*
X190134368Y-120650830D01*
X190152781Y-120661866D01*
X190170024Y-120674654D01*
X190185930Y-120689070D01*
X190200346Y-120704976D01*
X190213134Y-120722219D01*
X190224170Y-120740632D01*
X190233349Y-120760038D01*
X190240581Y-120780250D01*
X190245797Y-120801074D01*
X190248947Y-120822309D01*
X190250000Y-120843750D01*
X190250000Y-121356250D01*
X190248947Y-121377691D01*
X190245797Y-121398926D01*
X190240581Y-121419750D01*
X190233349Y-121439962D01*
X190224170Y-121459368D01*
X190213134Y-121477781D01*
X190200346Y-121495024D01*
X190185930Y-121510930D01*
X190170024Y-121525346D01*
X190152781Y-121538134D01*
X190134368Y-121549170D01*
X190114962Y-121558349D01*
X190094750Y-121565581D01*
X190073926Y-121570797D01*
X190052691Y-121573947D01*
X190031250Y-121575000D01*
X189593750Y-121575000D01*
X189572309Y-121573947D01*
X189551074Y-121570797D01*
X189530250Y-121565581D01*
X189510038Y-121558349D01*
X189490632Y-121549170D01*
X189472219Y-121538134D01*
X189454976Y-121525346D01*
X189439070Y-121510930D01*
X189424654Y-121495024D01*
X189411866Y-121477781D01*
X189400830Y-121459368D01*
X189391651Y-121439962D01*
X189384419Y-121419750D01*
X189379203Y-121398926D01*
X189376053Y-121377691D01*
X189375000Y-121356250D01*
X189375000Y-120843750D01*
X189376053Y-120822309D01*
X189379203Y-120801074D01*
X189384419Y-120780250D01*
X189391651Y-120760038D01*
X189400830Y-120740632D01*
X189411866Y-120722219D01*
X189424654Y-120704976D01*
X189439070Y-120689070D01*
X189454976Y-120674654D01*
X189472219Y-120661866D01*
X189490632Y-120650830D01*
X189510038Y-120641651D01*
X189530250Y-120634419D01*
X189551074Y-120629203D01*
X189572309Y-120626053D01*
X189593750Y-120625000D01*
X190031250Y-120625000D01*
X190052691Y-120626053D01*
X190052691Y-120626053D01*
G37*
D12*
X189812500Y-121100000D03*
D11*
G36*
X206227691Y-118926053D02*
G01*
X206248926Y-118929203D01*
X206269750Y-118934419D01*
X206289962Y-118941651D01*
X206309368Y-118950830D01*
X206327781Y-118961866D01*
X206345024Y-118974654D01*
X206360930Y-118989070D01*
X206375346Y-119004976D01*
X206388134Y-119022219D01*
X206399170Y-119040632D01*
X206408349Y-119060038D01*
X206415581Y-119080250D01*
X206420797Y-119101074D01*
X206423947Y-119122309D01*
X206425000Y-119143750D01*
X206425000Y-119656250D01*
X206423947Y-119677691D01*
X206420797Y-119698926D01*
X206415581Y-119719750D01*
X206408349Y-119739962D01*
X206399170Y-119759368D01*
X206388134Y-119777781D01*
X206375346Y-119795024D01*
X206360930Y-119810930D01*
X206345024Y-119825346D01*
X206327781Y-119838134D01*
X206309368Y-119849170D01*
X206289962Y-119858349D01*
X206269750Y-119865581D01*
X206248926Y-119870797D01*
X206227691Y-119873947D01*
X206206250Y-119875000D01*
X205768750Y-119875000D01*
X205747309Y-119873947D01*
X205726074Y-119870797D01*
X205705250Y-119865581D01*
X205685038Y-119858349D01*
X205665632Y-119849170D01*
X205647219Y-119838134D01*
X205629976Y-119825346D01*
X205614070Y-119810930D01*
X205599654Y-119795024D01*
X205586866Y-119777781D01*
X205575830Y-119759368D01*
X205566651Y-119739962D01*
X205559419Y-119719750D01*
X205554203Y-119698926D01*
X205551053Y-119677691D01*
X205550000Y-119656250D01*
X205550000Y-119143750D01*
X205551053Y-119122309D01*
X205554203Y-119101074D01*
X205559419Y-119080250D01*
X205566651Y-119060038D01*
X205575830Y-119040632D01*
X205586866Y-119022219D01*
X205599654Y-119004976D01*
X205614070Y-118989070D01*
X205629976Y-118974654D01*
X205647219Y-118961866D01*
X205665632Y-118950830D01*
X205685038Y-118941651D01*
X205705250Y-118934419D01*
X205726074Y-118929203D01*
X205747309Y-118926053D01*
X205768750Y-118925000D01*
X206206250Y-118925000D01*
X206227691Y-118926053D01*
X206227691Y-118926053D01*
G37*
D12*
X205987500Y-119400000D03*
D11*
G36*
X204652691Y-118926053D02*
G01*
X204673926Y-118929203D01*
X204694750Y-118934419D01*
X204714962Y-118941651D01*
X204734368Y-118950830D01*
X204752781Y-118961866D01*
X204770024Y-118974654D01*
X204785930Y-118989070D01*
X204800346Y-119004976D01*
X204813134Y-119022219D01*
X204824170Y-119040632D01*
X204833349Y-119060038D01*
X204840581Y-119080250D01*
X204845797Y-119101074D01*
X204848947Y-119122309D01*
X204850000Y-119143750D01*
X204850000Y-119656250D01*
X204848947Y-119677691D01*
X204845797Y-119698926D01*
X204840581Y-119719750D01*
X204833349Y-119739962D01*
X204824170Y-119759368D01*
X204813134Y-119777781D01*
X204800346Y-119795024D01*
X204785930Y-119810930D01*
X204770024Y-119825346D01*
X204752781Y-119838134D01*
X204734368Y-119849170D01*
X204714962Y-119858349D01*
X204694750Y-119865581D01*
X204673926Y-119870797D01*
X204652691Y-119873947D01*
X204631250Y-119875000D01*
X204193750Y-119875000D01*
X204172309Y-119873947D01*
X204151074Y-119870797D01*
X204130250Y-119865581D01*
X204110038Y-119858349D01*
X204090632Y-119849170D01*
X204072219Y-119838134D01*
X204054976Y-119825346D01*
X204039070Y-119810930D01*
X204024654Y-119795024D01*
X204011866Y-119777781D01*
X204000830Y-119759368D01*
X203991651Y-119739962D01*
X203984419Y-119719750D01*
X203979203Y-119698926D01*
X203976053Y-119677691D01*
X203975000Y-119656250D01*
X203975000Y-119143750D01*
X203976053Y-119122309D01*
X203979203Y-119101074D01*
X203984419Y-119080250D01*
X203991651Y-119060038D01*
X204000830Y-119040632D01*
X204011866Y-119022219D01*
X204024654Y-119004976D01*
X204039070Y-118989070D01*
X204054976Y-118974654D01*
X204072219Y-118961866D01*
X204090632Y-118950830D01*
X204110038Y-118941651D01*
X204130250Y-118934419D01*
X204151074Y-118929203D01*
X204172309Y-118926053D01*
X204193750Y-118925000D01*
X204631250Y-118925000D01*
X204652691Y-118926053D01*
X204652691Y-118926053D01*
G37*
D12*
X204412500Y-119400000D03*
D11*
G36*
X201352691Y-118926053D02*
G01*
X201373926Y-118929203D01*
X201394750Y-118934419D01*
X201414962Y-118941651D01*
X201434368Y-118950830D01*
X201452781Y-118961866D01*
X201470024Y-118974654D01*
X201485930Y-118989070D01*
X201500346Y-119004976D01*
X201513134Y-119022219D01*
X201524170Y-119040632D01*
X201533349Y-119060038D01*
X201540581Y-119080250D01*
X201545797Y-119101074D01*
X201548947Y-119122309D01*
X201550000Y-119143750D01*
X201550000Y-119656250D01*
X201548947Y-119677691D01*
X201545797Y-119698926D01*
X201540581Y-119719750D01*
X201533349Y-119739962D01*
X201524170Y-119759368D01*
X201513134Y-119777781D01*
X201500346Y-119795024D01*
X201485930Y-119810930D01*
X201470024Y-119825346D01*
X201452781Y-119838134D01*
X201434368Y-119849170D01*
X201414962Y-119858349D01*
X201394750Y-119865581D01*
X201373926Y-119870797D01*
X201352691Y-119873947D01*
X201331250Y-119875000D01*
X200893750Y-119875000D01*
X200872309Y-119873947D01*
X200851074Y-119870797D01*
X200830250Y-119865581D01*
X200810038Y-119858349D01*
X200790632Y-119849170D01*
X200772219Y-119838134D01*
X200754976Y-119825346D01*
X200739070Y-119810930D01*
X200724654Y-119795024D01*
X200711866Y-119777781D01*
X200700830Y-119759368D01*
X200691651Y-119739962D01*
X200684419Y-119719750D01*
X200679203Y-119698926D01*
X200676053Y-119677691D01*
X200675000Y-119656250D01*
X200675000Y-119143750D01*
X200676053Y-119122309D01*
X200679203Y-119101074D01*
X200684419Y-119080250D01*
X200691651Y-119060038D01*
X200700830Y-119040632D01*
X200711866Y-119022219D01*
X200724654Y-119004976D01*
X200739070Y-118989070D01*
X200754976Y-118974654D01*
X200772219Y-118961866D01*
X200790632Y-118950830D01*
X200810038Y-118941651D01*
X200830250Y-118934419D01*
X200851074Y-118929203D01*
X200872309Y-118926053D01*
X200893750Y-118925000D01*
X201331250Y-118925000D01*
X201352691Y-118926053D01*
X201352691Y-118926053D01*
G37*
D12*
X201112500Y-119400000D03*
D11*
G36*
X202927691Y-118926053D02*
G01*
X202948926Y-118929203D01*
X202969750Y-118934419D01*
X202989962Y-118941651D01*
X203009368Y-118950830D01*
X203027781Y-118961866D01*
X203045024Y-118974654D01*
X203060930Y-118989070D01*
X203075346Y-119004976D01*
X203088134Y-119022219D01*
X203099170Y-119040632D01*
X203108349Y-119060038D01*
X203115581Y-119080250D01*
X203120797Y-119101074D01*
X203123947Y-119122309D01*
X203125000Y-119143750D01*
X203125000Y-119656250D01*
X203123947Y-119677691D01*
X203120797Y-119698926D01*
X203115581Y-119719750D01*
X203108349Y-119739962D01*
X203099170Y-119759368D01*
X203088134Y-119777781D01*
X203075346Y-119795024D01*
X203060930Y-119810930D01*
X203045024Y-119825346D01*
X203027781Y-119838134D01*
X203009368Y-119849170D01*
X202989962Y-119858349D01*
X202969750Y-119865581D01*
X202948926Y-119870797D01*
X202927691Y-119873947D01*
X202906250Y-119875000D01*
X202468750Y-119875000D01*
X202447309Y-119873947D01*
X202426074Y-119870797D01*
X202405250Y-119865581D01*
X202385038Y-119858349D01*
X202365632Y-119849170D01*
X202347219Y-119838134D01*
X202329976Y-119825346D01*
X202314070Y-119810930D01*
X202299654Y-119795024D01*
X202286866Y-119777781D01*
X202275830Y-119759368D01*
X202266651Y-119739962D01*
X202259419Y-119719750D01*
X202254203Y-119698926D01*
X202251053Y-119677691D01*
X202250000Y-119656250D01*
X202250000Y-119143750D01*
X202251053Y-119122309D01*
X202254203Y-119101074D01*
X202259419Y-119080250D01*
X202266651Y-119060038D01*
X202275830Y-119040632D01*
X202286866Y-119022219D01*
X202299654Y-119004976D01*
X202314070Y-118989070D01*
X202329976Y-118974654D01*
X202347219Y-118961866D01*
X202365632Y-118950830D01*
X202385038Y-118941651D01*
X202405250Y-118934419D01*
X202426074Y-118929203D01*
X202447309Y-118926053D01*
X202468750Y-118925000D01*
X202906250Y-118925000D01*
X202927691Y-118926053D01*
X202927691Y-118926053D01*
G37*
D12*
X202687500Y-119400000D03*
D11*
G36*
X186227691Y-116726053D02*
G01*
X186248926Y-116729203D01*
X186269750Y-116734419D01*
X186289962Y-116741651D01*
X186309368Y-116750830D01*
X186327781Y-116761866D01*
X186345024Y-116774654D01*
X186360930Y-116789070D01*
X186375346Y-116804976D01*
X186388134Y-116822219D01*
X186399170Y-116840632D01*
X186408349Y-116860038D01*
X186415581Y-116880250D01*
X186420797Y-116901074D01*
X186423947Y-116922309D01*
X186425000Y-116943750D01*
X186425000Y-117456250D01*
X186423947Y-117477691D01*
X186420797Y-117498926D01*
X186415581Y-117519750D01*
X186408349Y-117539962D01*
X186399170Y-117559368D01*
X186388134Y-117577781D01*
X186375346Y-117595024D01*
X186360930Y-117610930D01*
X186345024Y-117625346D01*
X186327781Y-117638134D01*
X186309368Y-117649170D01*
X186289962Y-117658349D01*
X186269750Y-117665581D01*
X186248926Y-117670797D01*
X186227691Y-117673947D01*
X186206250Y-117675000D01*
X185768750Y-117675000D01*
X185747309Y-117673947D01*
X185726074Y-117670797D01*
X185705250Y-117665581D01*
X185685038Y-117658349D01*
X185665632Y-117649170D01*
X185647219Y-117638134D01*
X185629976Y-117625346D01*
X185614070Y-117610930D01*
X185599654Y-117595024D01*
X185586866Y-117577781D01*
X185575830Y-117559368D01*
X185566651Y-117539962D01*
X185559419Y-117519750D01*
X185554203Y-117498926D01*
X185551053Y-117477691D01*
X185550000Y-117456250D01*
X185550000Y-116943750D01*
X185551053Y-116922309D01*
X185554203Y-116901074D01*
X185559419Y-116880250D01*
X185566651Y-116860038D01*
X185575830Y-116840632D01*
X185586866Y-116822219D01*
X185599654Y-116804976D01*
X185614070Y-116789070D01*
X185629976Y-116774654D01*
X185647219Y-116761866D01*
X185665632Y-116750830D01*
X185685038Y-116741651D01*
X185705250Y-116734419D01*
X185726074Y-116729203D01*
X185747309Y-116726053D01*
X185768750Y-116725000D01*
X186206250Y-116725000D01*
X186227691Y-116726053D01*
X186227691Y-116726053D01*
G37*
D12*
X185987500Y-117200000D03*
D11*
G36*
X184652691Y-116726053D02*
G01*
X184673926Y-116729203D01*
X184694750Y-116734419D01*
X184714962Y-116741651D01*
X184734368Y-116750830D01*
X184752781Y-116761866D01*
X184770024Y-116774654D01*
X184785930Y-116789070D01*
X184800346Y-116804976D01*
X184813134Y-116822219D01*
X184824170Y-116840632D01*
X184833349Y-116860038D01*
X184840581Y-116880250D01*
X184845797Y-116901074D01*
X184848947Y-116922309D01*
X184850000Y-116943750D01*
X184850000Y-117456250D01*
X184848947Y-117477691D01*
X184845797Y-117498926D01*
X184840581Y-117519750D01*
X184833349Y-117539962D01*
X184824170Y-117559368D01*
X184813134Y-117577781D01*
X184800346Y-117595024D01*
X184785930Y-117610930D01*
X184770024Y-117625346D01*
X184752781Y-117638134D01*
X184734368Y-117649170D01*
X184714962Y-117658349D01*
X184694750Y-117665581D01*
X184673926Y-117670797D01*
X184652691Y-117673947D01*
X184631250Y-117675000D01*
X184193750Y-117675000D01*
X184172309Y-117673947D01*
X184151074Y-117670797D01*
X184130250Y-117665581D01*
X184110038Y-117658349D01*
X184090632Y-117649170D01*
X184072219Y-117638134D01*
X184054976Y-117625346D01*
X184039070Y-117610930D01*
X184024654Y-117595024D01*
X184011866Y-117577781D01*
X184000830Y-117559368D01*
X183991651Y-117539962D01*
X183984419Y-117519750D01*
X183979203Y-117498926D01*
X183976053Y-117477691D01*
X183975000Y-117456250D01*
X183975000Y-116943750D01*
X183976053Y-116922309D01*
X183979203Y-116901074D01*
X183984419Y-116880250D01*
X183991651Y-116860038D01*
X184000830Y-116840632D01*
X184011866Y-116822219D01*
X184024654Y-116804976D01*
X184039070Y-116789070D01*
X184054976Y-116774654D01*
X184072219Y-116761866D01*
X184090632Y-116750830D01*
X184110038Y-116741651D01*
X184130250Y-116734419D01*
X184151074Y-116729203D01*
X184172309Y-116726053D01*
X184193750Y-116725000D01*
X184631250Y-116725000D01*
X184652691Y-116726053D01*
X184652691Y-116726053D01*
G37*
D12*
X184412500Y-117200000D03*
D11*
G36*
X193352691Y-118926053D02*
G01*
X193373926Y-118929203D01*
X193394750Y-118934419D01*
X193414962Y-118941651D01*
X193434368Y-118950830D01*
X193452781Y-118961866D01*
X193470024Y-118974654D01*
X193485930Y-118989070D01*
X193500346Y-119004976D01*
X193513134Y-119022219D01*
X193524170Y-119040632D01*
X193533349Y-119060038D01*
X193540581Y-119080250D01*
X193545797Y-119101074D01*
X193548947Y-119122309D01*
X193550000Y-119143750D01*
X193550000Y-119656250D01*
X193548947Y-119677691D01*
X193545797Y-119698926D01*
X193540581Y-119719750D01*
X193533349Y-119739962D01*
X193524170Y-119759368D01*
X193513134Y-119777781D01*
X193500346Y-119795024D01*
X193485930Y-119810930D01*
X193470024Y-119825346D01*
X193452781Y-119838134D01*
X193434368Y-119849170D01*
X193414962Y-119858349D01*
X193394750Y-119865581D01*
X193373926Y-119870797D01*
X193352691Y-119873947D01*
X193331250Y-119875000D01*
X192893750Y-119875000D01*
X192872309Y-119873947D01*
X192851074Y-119870797D01*
X192830250Y-119865581D01*
X192810038Y-119858349D01*
X192790632Y-119849170D01*
X192772219Y-119838134D01*
X192754976Y-119825346D01*
X192739070Y-119810930D01*
X192724654Y-119795024D01*
X192711866Y-119777781D01*
X192700830Y-119759368D01*
X192691651Y-119739962D01*
X192684419Y-119719750D01*
X192679203Y-119698926D01*
X192676053Y-119677691D01*
X192675000Y-119656250D01*
X192675000Y-119143750D01*
X192676053Y-119122309D01*
X192679203Y-119101074D01*
X192684419Y-119080250D01*
X192691651Y-119060038D01*
X192700830Y-119040632D01*
X192711866Y-119022219D01*
X192724654Y-119004976D01*
X192739070Y-118989070D01*
X192754976Y-118974654D01*
X192772219Y-118961866D01*
X192790632Y-118950830D01*
X192810038Y-118941651D01*
X192830250Y-118934419D01*
X192851074Y-118929203D01*
X192872309Y-118926053D01*
X192893750Y-118925000D01*
X193331250Y-118925000D01*
X193352691Y-118926053D01*
X193352691Y-118926053D01*
G37*
D12*
X193112500Y-119400000D03*
D11*
G36*
X194927691Y-118926053D02*
G01*
X194948926Y-118929203D01*
X194969750Y-118934419D01*
X194989962Y-118941651D01*
X195009368Y-118950830D01*
X195027781Y-118961866D01*
X195045024Y-118974654D01*
X195060930Y-118989070D01*
X195075346Y-119004976D01*
X195088134Y-119022219D01*
X195099170Y-119040632D01*
X195108349Y-119060038D01*
X195115581Y-119080250D01*
X195120797Y-119101074D01*
X195123947Y-119122309D01*
X195125000Y-119143750D01*
X195125000Y-119656250D01*
X195123947Y-119677691D01*
X195120797Y-119698926D01*
X195115581Y-119719750D01*
X195108349Y-119739962D01*
X195099170Y-119759368D01*
X195088134Y-119777781D01*
X195075346Y-119795024D01*
X195060930Y-119810930D01*
X195045024Y-119825346D01*
X195027781Y-119838134D01*
X195009368Y-119849170D01*
X194989962Y-119858349D01*
X194969750Y-119865581D01*
X194948926Y-119870797D01*
X194927691Y-119873947D01*
X194906250Y-119875000D01*
X194468750Y-119875000D01*
X194447309Y-119873947D01*
X194426074Y-119870797D01*
X194405250Y-119865581D01*
X194385038Y-119858349D01*
X194365632Y-119849170D01*
X194347219Y-119838134D01*
X194329976Y-119825346D01*
X194314070Y-119810930D01*
X194299654Y-119795024D01*
X194286866Y-119777781D01*
X194275830Y-119759368D01*
X194266651Y-119739962D01*
X194259419Y-119719750D01*
X194254203Y-119698926D01*
X194251053Y-119677691D01*
X194250000Y-119656250D01*
X194250000Y-119143750D01*
X194251053Y-119122309D01*
X194254203Y-119101074D01*
X194259419Y-119080250D01*
X194266651Y-119060038D01*
X194275830Y-119040632D01*
X194286866Y-119022219D01*
X194299654Y-119004976D01*
X194314070Y-118989070D01*
X194329976Y-118974654D01*
X194347219Y-118961866D01*
X194365632Y-118950830D01*
X194385038Y-118941651D01*
X194405250Y-118934419D01*
X194426074Y-118929203D01*
X194447309Y-118926053D01*
X194468750Y-118925000D01*
X194906250Y-118925000D01*
X194927691Y-118926053D01*
X194927691Y-118926053D01*
G37*
D12*
X194687500Y-119400000D03*
D11*
G36*
X191627691Y-118926053D02*
G01*
X191648926Y-118929203D01*
X191669750Y-118934419D01*
X191689962Y-118941651D01*
X191709368Y-118950830D01*
X191727781Y-118961866D01*
X191745024Y-118974654D01*
X191760930Y-118989070D01*
X191775346Y-119004976D01*
X191788134Y-119022219D01*
X191799170Y-119040632D01*
X191808349Y-119060038D01*
X191815581Y-119080250D01*
X191820797Y-119101074D01*
X191823947Y-119122309D01*
X191825000Y-119143750D01*
X191825000Y-119656250D01*
X191823947Y-119677691D01*
X191820797Y-119698926D01*
X191815581Y-119719750D01*
X191808349Y-119739962D01*
X191799170Y-119759368D01*
X191788134Y-119777781D01*
X191775346Y-119795024D01*
X191760930Y-119810930D01*
X191745024Y-119825346D01*
X191727781Y-119838134D01*
X191709368Y-119849170D01*
X191689962Y-119858349D01*
X191669750Y-119865581D01*
X191648926Y-119870797D01*
X191627691Y-119873947D01*
X191606250Y-119875000D01*
X191168750Y-119875000D01*
X191147309Y-119873947D01*
X191126074Y-119870797D01*
X191105250Y-119865581D01*
X191085038Y-119858349D01*
X191065632Y-119849170D01*
X191047219Y-119838134D01*
X191029976Y-119825346D01*
X191014070Y-119810930D01*
X190999654Y-119795024D01*
X190986866Y-119777781D01*
X190975830Y-119759368D01*
X190966651Y-119739962D01*
X190959419Y-119719750D01*
X190954203Y-119698926D01*
X190951053Y-119677691D01*
X190950000Y-119656250D01*
X190950000Y-119143750D01*
X190951053Y-119122309D01*
X190954203Y-119101074D01*
X190959419Y-119080250D01*
X190966651Y-119060038D01*
X190975830Y-119040632D01*
X190986866Y-119022219D01*
X190999654Y-119004976D01*
X191014070Y-118989070D01*
X191029976Y-118974654D01*
X191047219Y-118961866D01*
X191065632Y-118950830D01*
X191085038Y-118941651D01*
X191105250Y-118934419D01*
X191126074Y-118929203D01*
X191147309Y-118926053D01*
X191168750Y-118925000D01*
X191606250Y-118925000D01*
X191627691Y-118926053D01*
X191627691Y-118926053D01*
G37*
D12*
X191387500Y-119400000D03*
D11*
G36*
X190052691Y-118926053D02*
G01*
X190073926Y-118929203D01*
X190094750Y-118934419D01*
X190114962Y-118941651D01*
X190134368Y-118950830D01*
X190152781Y-118961866D01*
X190170024Y-118974654D01*
X190185930Y-118989070D01*
X190200346Y-119004976D01*
X190213134Y-119022219D01*
X190224170Y-119040632D01*
X190233349Y-119060038D01*
X190240581Y-119080250D01*
X190245797Y-119101074D01*
X190248947Y-119122309D01*
X190250000Y-119143750D01*
X190250000Y-119656250D01*
X190248947Y-119677691D01*
X190245797Y-119698926D01*
X190240581Y-119719750D01*
X190233349Y-119739962D01*
X190224170Y-119759368D01*
X190213134Y-119777781D01*
X190200346Y-119795024D01*
X190185930Y-119810930D01*
X190170024Y-119825346D01*
X190152781Y-119838134D01*
X190134368Y-119849170D01*
X190114962Y-119858349D01*
X190094750Y-119865581D01*
X190073926Y-119870797D01*
X190052691Y-119873947D01*
X190031250Y-119875000D01*
X189593750Y-119875000D01*
X189572309Y-119873947D01*
X189551074Y-119870797D01*
X189530250Y-119865581D01*
X189510038Y-119858349D01*
X189490632Y-119849170D01*
X189472219Y-119838134D01*
X189454976Y-119825346D01*
X189439070Y-119810930D01*
X189424654Y-119795024D01*
X189411866Y-119777781D01*
X189400830Y-119759368D01*
X189391651Y-119739962D01*
X189384419Y-119719750D01*
X189379203Y-119698926D01*
X189376053Y-119677691D01*
X189375000Y-119656250D01*
X189375000Y-119143750D01*
X189376053Y-119122309D01*
X189379203Y-119101074D01*
X189384419Y-119080250D01*
X189391651Y-119060038D01*
X189400830Y-119040632D01*
X189411866Y-119022219D01*
X189424654Y-119004976D01*
X189439070Y-118989070D01*
X189454976Y-118974654D01*
X189472219Y-118961866D01*
X189490632Y-118950830D01*
X189510038Y-118941651D01*
X189530250Y-118934419D01*
X189551074Y-118929203D01*
X189572309Y-118926053D01*
X189593750Y-118925000D01*
X190031250Y-118925000D01*
X190052691Y-118926053D01*
X190052691Y-118926053D01*
G37*
D12*
X189812500Y-119400000D03*
D11*
G36*
X184652691Y-119526053D02*
G01*
X184673926Y-119529203D01*
X184694750Y-119534419D01*
X184714962Y-119541651D01*
X184734368Y-119550830D01*
X184752781Y-119561866D01*
X184770024Y-119574654D01*
X184785930Y-119589070D01*
X184800346Y-119604976D01*
X184813134Y-119622219D01*
X184824170Y-119640632D01*
X184833349Y-119660038D01*
X184840581Y-119680250D01*
X184845797Y-119701074D01*
X184848947Y-119722309D01*
X184850000Y-119743750D01*
X184850000Y-120256250D01*
X184848947Y-120277691D01*
X184845797Y-120298926D01*
X184840581Y-120319750D01*
X184833349Y-120339962D01*
X184824170Y-120359368D01*
X184813134Y-120377781D01*
X184800346Y-120395024D01*
X184785930Y-120410930D01*
X184770024Y-120425346D01*
X184752781Y-120438134D01*
X184734368Y-120449170D01*
X184714962Y-120458349D01*
X184694750Y-120465581D01*
X184673926Y-120470797D01*
X184652691Y-120473947D01*
X184631250Y-120475000D01*
X184193750Y-120475000D01*
X184172309Y-120473947D01*
X184151074Y-120470797D01*
X184130250Y-120465581D01*
X184110038Y-120458349D01*
X184090632Y-120449170D01*
X184072219Y-120438134D01*
X184054976Y-120425346D01*
X184039070Y-120410930D01*
X184024654Y-120395024D01*
X184011866Y-120377781D01*
X184000830Y-120359368D01*
X183991651Y-120339962D01*
X183984419Y-120319750D01*
X183979203Y-120298926D01*
X183976053Y-120277691D01*
X183975000Y-120256250D01*
X183975000Y-119743750D01*
X183976053Y-119722309D01*
X183979203Y-119701074D01*
X183984419Y-119680250D01*
X183991651Y-119660038D01*
X184000830Y-119640632D01*
X184011866Y-119622219D01*
X184024654Y-119604976D01*
X184039070Y-119589070D01*
X184054976Y-119574654D01*
X184072219Y-119561866D01*
X184090632Y-119550830D01*
X184110038Y-119541651D01*
X184130250Y-119534419D01*
X184151074Y-119529203D01*
X184172309Y-119526053D01*
X184193750Y-119525000D01*
X184631250Y-119525000D01*
X184652691Y-119526053D01*
X184652691Y-119526053D01*
G37*
D12*
X184412500Y-120000000D03*
D11*
G36*
X186227691Y-119526053D02*
G01*
X186248926Y-119529203D01*
X186269750Y-119534419D01*
X186289962Y-119541651D01*
X186309368Y-119550830D01*
X186327781Y-119561866D01*
X186345024Y-119574654D01*
X186360930Y-119589070D01*
X186375346Y-119604976D01*
X186388134Y-119622219D01*
X186399170Y-119640632D01*
X186408349Y-119660038D01*
X186415581Y-119680250D01*
X186420797Y-119701074D01*
X186423947Y-119722309D01*
X186425000Y-119743750D01*
X186425000Y-120256250D01*
X186423947Y-120277691D01*
X186420797Y-120298926D01*
X186415581Y-120319750D01*
X186408349Y-120339962D01*
X186399170Y-120359368D01*
X186388134Y-120377781D01*
X186375346Y-120395024D01*
X186360930Y-120410930D01*
X186345024Y-120425346D01*
X186327781Y-120438134D01*
X186309368Y-120449170D01*
X186289962Y-120458349D01*
X186269750Y-120465581D01*
X186248926Y-120470797D01*
X186227691Y-120473947D01*
X186206250Y-120475000D01*
X185768750Y-120475000D01*
X185747309Y-120473947D01*
X185726074Y-120470797D01*
X185705250Y-120465581D01*
X185685038Y-120458349D01*
X185665632Y-120449170D01*
X185647219Y-120438134D01*
X185629976Y-120425346D01*
X185614070Y-120410930D01*
X185599654Y-120395024D01*
X185586866Y-120377781D01*
X185575830Y-120359368D01*
X185566651Y-120339962D01*
X185559419Y-120319750D01*
X185554203Y-120298926D01*
X185551053Y-120277691D01*
X185550000Y-120256250D01*
X185550000Y-119743750D01*
X185551053Y-119722309D01*
X185554203Y-119701074D01*
X185559419Y-119680250D01*
X185566651Y-119660038D01*
X185575830Y-119640632D01*
X185586866Y-119622219D01*
X185599654Y-119604976D01*
X185614070Y-119589070D01*
X185629976Y-119574654D01*
X185647219Y-119561866D01*
X185665632Y-119550830D01*
X185685038Y-119541651D01*
X185705250Y-119534419D01*
X185726074Y-119529203D01*
X185747309Y-119526053D01*
X185768750Y-119525000D01*
X186206250Y-119525000D01*
X186227691Y-119526053D01*
X186227691Y-119526053D01*
G37*
D12*
X185987500Y-120000000D03*
D11*
G36*
X206227691Y-120626053D02*
G01*
X206248926Y-120629203D01*
X206269750Y-120634419D01*
X206289962Y-120641651D01*
X206309368Y-120650830D01*
X206327781Y-120661866D01*
X206345024Y-120674654D01*
X206360930Y-120689070D01*
X206375346Y-120704976D01*
X206388134Y-120722219D01*
X206399170Y-120740632D01*
X206408349Y-120760038D01*
X206415581Y-120780250D01*
X206420797Y-120801074D01*
X206423947Y-120822309D01*
X206425000Y-120843750D01*
X206425000Y-121356250D01*
X206423947Y-121377691D01*
X206420797Y-121398926D01*
X206415581Y-121419750D01*
X206408349Y-121439962D01*
X206399170Y-121459368D01*
X206388134Y-121477781D01*
X206375346Y-121495024D01*
X206360930Y-121510930D01*
X206345024Y-121525346D01*
X206327781Y-121538134D01*
X206309368Y-121549170D01*
X206289962Y-121558349D01*
X206269750Y-121565581D01*
X206248926Y-121570797D01*
X206227691Y-121573947D01*
X206206250Y-121575000D01*
X205768750Y-121575000D01*
X205747309Y-121573947D01*
X205726074Y-121570797D01*
X205705250Y-121565581D01*
X205685038Y-121558349D01*
X205665632Y-121549170D01*
X205647219Y-121538134D01*
X205629976Y-121525346D01*
X205614070Y-121510930D01*
X205599654Y-121495024D01*
X205586866Y-121477781D01*
X205575830Y-121459368D01*
X205566651Y-121439962D01*
X205559419Y-121419750D01*
X205554203Y-121398926D01*
X205551053Y-121377691D01*
X205550000Y-121356250D01*
X205550000Y-120843750D01*
X205551053Y-120822309D01*
X205554203Y-120801074D01*
X205559419Y-120780250D01*
X205566651Y-120760038D01*
X205575830Y-120740632D01*
X205586866Y-120722219D01*
X205599654Y-120704976D01*
X205614070Y-120689070D01*
X205629976Y-120674654D01*
X205647219Y-120661866D01*
X205665632Y-120650830D01*
X205685038Y-120641651D01*
X205705250Y-120634419D01*
X205726074Y-120629203D01*
X205747309Y-120626053D01*
X205768750Y-120625000D01*
X206206250Y-120625000D01*
X206227691Y-120626053D01*
X206227691Y-120626053D01*
G37*
D12*
X205987500Y-121100000D03*
D11*
G36*
X204652691Y-120626053D02*
G01*
X204673926Y-120629203D01*
X204694750Y-120634419D01*
X204714962Y-120641651D01*
X204734368Y-120650830D01*
X204752781Y-120661866D01*
X204770024Y-120674654D01*
X204785930Y-120689070D01*
X204800346Y-120704976D01*
X204813134Y-120722219D01*
X204824170Y-120740632D01*
X204833349Y-120760038D01*
X204840581Y-120780250D01*
X204845797Y-120801074D01*
X204848947Y-120822309D01*
X204850000Y-120843750D01*
X204850000Y-121356250D01*
X204848947Y-121377691D01*
X204845797Y-121398926D01*
X204840581Y-121419750D01*
X204833349Y-121439962D01*
X204824170Y-121459368D01*
X204813134Y-121477781D01*
X204800346Y-121495024D01*
X204785930Y-121510930D01*
X204770024Y-121525346D01*
X204752781Y-121538134D01*
X204734368Y-121549170D01*
X204714962Y-121558349D01*
X204694750Y-121565581D01*
X204673926Y-121570797D01*
X204652691Y-121573947D01*
X204631250Y-121575000D01*
X204193750Y-121575000D01*
X204172309Y-121573947D01*
X204151074Y-121570797D01*
X204130250Y-121565581D01*
X204110038Y-121558349D01*
X204090632Y-121549170D01*
X204072219Y-121538134D01*
X204054976Y-121525346D01*
X204039070Y-121510930D01*
X204024654Y-121495024D01*
X204011866Y-121477781D01*
X204000830Y-121459368D01*
X203991651Y-121439962D01*
X203984419Y-121419750D01*
X203979203Y-121398926D01*
X203976053Y-121377691D01*
X203975000Y-121356250D01*
X203975000Y-120843750D01*
X203976053Y-120822309D01*
X203979203Y-120801074D01*
X203984419Y-120780250D01*
X203991651Y-120760038D01*
X204000830Y-120740632D01*
X204011866Y-120722219D01*
X204024654Y-120704976D01*
X204039070Y-120689070D01*
X204054976Y-120674654D01*
X204072219Y-120661866D01*
X204090632Y-120650830D01*
X204110038Y-120641651D01*
X204130250Y-120634419D01*
X204151074Y-120629203D01*
X204172309Y-120626053D01*
X204193750Y-120625000D01*
X204631250Y-120625000D01*
X204652691Y-120626053D01*
X204652691Y-120626053D01*
G37*
D12*
X204412500Y-121100000D03*
D11*
G36*
X201352691Y-120626053D02*
G01*
X201373926Y-120629203D01*
X201394750Y-120634419D01*
X201414962Y-120641651D01*
X201434368Y-120650830D01*
X201452781Y-120661866D01*
X201470024Y-120674654D01*
X201485930Y-120689070D01*
X201500346Y-120704976D01*
X201513134Y-120722219D01*
X201524170Y-120740632D01*
X201533349Y-120760038D01*
X201540581Y-120780250D01*
X201545797Y-120801074D01*
X201548947Y-120822309D01*
X201550000Y-120843750D01*
X201550000Y-121356250D01*
X201548947Y-121377691D01*
X201545797Y-121398926D01*
X201540581Y-121419750D01*
X201533349Y-121439962D01*
X201524170Y-121459368D01*
X201513134Y-121477781D01*
X201500346Y-121495024D01*
X201485930Y-121510930D01*
X201470024Y-121525346D01*
X201452781Y-121538134D01*
X201434368Y-121549170D01*
X201414962Y-121558349D01*
X201394750Y-121565581D01*
X201373926Y-121570797D01*
X201352691Y-121573947D01*
X201331250Y-121575000D01*
X200893750Y-121575000D01*
X200872309Y-121573947D01*
X200851074Y-121570797D01*
X200830250Y-121565581D01*
X200810038Y-121558349D01*
X200790632Y-121549170D01*
X200772219Y-121538134D01*
X200754976Y-121525346D01*
X200739070Y-121510930D01*
X200724654Y-121495024D01*
X200711866Y-121477781D01*
X200700830Y-121459368D01*
X200691651Y-121439962D01*
X200684419Y-121419750D01*
X200679203Y-121398926D01*
X200676053Y-121377691D01*
X200675000Y-121356250D01*
X200675000Y-120843750D01*
X200676053Y-120822309D01*
X200679203Y-120801074D01*
X200684419Y-120780250D01*
X200691651Y-120760038D01*
X200700830Y-120740632D01*
X200711866Y-120722219D01*
X200724654Y-120704976D01*
X200739070Y-120689070D01*
X200754976Y-120674654D01*
X200772219Y-120661866D01*
X200790632Y-120650830D01*
X200810038Y-120641651D01*
X200830250Y-120634419D01*
X200851074Y-120629203D01*
X200872309Y-120626053D01*
X200893750Y-120625000D01*
X201331250Y-120625000D01*
X201352691Y-120626053D01*
X201352691Y-120626053D01*
G37*
D12*
X201112500Y-121100000D03*
D11*
G36*
X202927691Y-120626053D02*
G01*
X202948926Y-120629203D01*
X202969750Y-120634419D01*
X202989962Y-120641651D01*
X203009368Y-120650830D01*
X203027781Y-120661866D01*
X203045024Y-120674654D01*
X203060930Y-120689070D01*
X203075346Y-120704976D01*
X203088134Y-120722219D01*
X203099170Y-120740632D01*
X203108349Y-120760038D01*
X203115581Y-120780250D01*
X203120797Y-120801074D01*
X203123947Y-120822309D01*
X203125000Y-120843750D01*
X203125000Y-121356250D01*
X203123947Y-121377691D01*
X203120797Y-121398926D01*
X203115581Y-121419750D01*
X203108349Y-121439962D01*
X203099170Y-121459368D01*
X203088134Y-121477781D01*
X203075346Y-121495024D01*
X203060930Y-121510930D01*
X203045024Y-121525346D01*
X203027781Y-121538134D01*
X203009368Y-121549170D01*
X202989962Y-121558349D01*
X202969750Y-121565581D01*
X202948926Y-121570797D01*
X202927691Y-121573947D01*
X202906250Y-121575000D01*
X202468750Y-121575000D01*
X202447309Y-121573947D01*
X202426074Y-121570797D01*
X202405250Y-121565581D01*
X202385038Y-121558349D01*
X202365632Y-121549170D01*
X202347219Y-121538134D01*
X202329976Y-121525346D01*
X202314070Y-121510930D01*
X202299654Y-121495024D01*
X202286866Y-121477781D01*
X202275830Y-121459368D01*
X202266651Y-121439962D01*
X202259419Y-121419750D01*
X202254203Y-121398926D01*
X202251053Y-121377691D01*
X202250000Y-121356250D01*
X202250000Y-120843750D01*
X202251053Y-120822309D01*
X202254203Y-120801074D01*
X202259419Y-120780250D01*
X202266651Y-120760038D01*
X202275830Y-120740632D01*
X202286866Y-120722219D01*
X202299654Y-120704976D01*
X202314070Y-120689070D01*
X202329976Y-120674654D01*
X202347219Y-120661866D01*
X202365632Y-120650830D01*
X202385038Y-120641651D01*
X202405250Y-120634419D01*
X202426074Y-120629203D01*
X202447309Y-120626053D01*
X202468750Y-120625000D01*
X202906250Y-120625000D01*
X202927691Y-120626053D01*
X202927691Y-120626053D01*
G37*
D12*
X202687500Y-121100000D03*
D11*
G36*
X200227691Y-116426053D02*
G01*
X200248926Y-116429203D01*
X200269750Y-116434419D01*
X200289962Y-116441651D01*
X200309368Y-116450830D01*
X200327781Y-116461866D01*
X200345024Y-116474654D01*
X200360930Y-116489070D01*
X200375346Y-116504976D01*
X200388134Y-116522219D01*
X200399170Y-116540632D01*
X200408349Y-116560038D01*
X200415581Y-116580250D01*
X200420797Y-116601074D01*
X200423947Y-116622309D01*
X200425000Y-116643750D01*
X200425000Y-117156250D01*
X200423947Y-117177691D01*
X200420797Y-117198926D01*
X200415581Y-117219750D01*
X200408349Y-117239962D01*
X200399170Y-117259368D01*
X200388134Y-117277781D01*
X200375346Y-117295024D01*
X200360930Y-117310930D01*
X200345024Y-117325346D01*
X200327781Y-117338134D01*
X200309368Y-117349170D01*
X200289962Y-117358349D01*
X200269750Y-117365581D01*
X200248926Y-117370797D01*
X200227691Y-117373947D01*
X200206250Y-117375000D01*
X199768750Y-117375000D01*
X199747309Y-117373947D01*
X199726074Y-117370797D01*
X199705250Y-117365581D01*
X199685038Y-117358349D01*
X199665632Y-117349170D01*
X199647219Y-117338134D01*
X199629976Y-117325346D01*
X199614070Y-117310930D01*
X199599654Y-117295024D01*
X199586866Y-117277781D01*
X199575830Y-117259368D01*
X199566651Y-117239962D01*
X199559419Y-117219750D01*
X199554203Y-117198926D01*
X199551053Y-117177691D01*
X199550000Y-117156250D01*
X199550000Y-116643750D01*
X199551053Y-116622309D01*
X199554203Y-116601074D01*
X199559419Y-116580250D01*
X199566651Y-116560038D01*
X199575830Y-116540632D01*
X199586866Y-116522219D01*
X199599654Y-116504976D01*
X199614070Y-116489070D01*
X199629976Y-116474654D01*
X199647219Y-116461866D01*
X199665632Y-116450830D01*
X199685038Y-116441651D01*
X199705250Y-116434419D01*
X199726074Y-116429203D01*
X199747309Y-116426053D01*
X199768750Y-116425000D01*
X200206250Y-116425000D01*
X200227691Y-116426053D01*
X200227691Y-116426053D01*
G37*
D12*
X199987500Y-116900000D03*
D11*
G36*
X198652691Y-116426053D02*
G01*
X198673926Y-116429203D01*
X198694750Y-116434419D01*
X198714962Y-116441651D01*
X198734368Y-116450830D01*
X198752781Y-116461866D01*
X198770024Y-116474654D01*
X198785930Y-116489070D01*
X198800346Y-116504976D01*
X198813134Y-116522219D01*
X198824170Y-116540632D01*
X198833349Y-116560038D01*
X198840581Y-116580250D01*
X198845797Y-116601074D01*
X198848947Y-116622309D01*
X198850000Y-116643750D01*
X198850000Y-117156250D01*
X198848947Y-117177691D01*
X198845797Y-117198926D01*
X198840581Y-117219750D01*
X198833349Y-117239962D01*
X198824170Y-117259368D01*
X198813134Y-117277781D01*
X198800346Y-117295024D01*
X198785930Y-117310930D01*
X198770024Y-117325346D01*
X198752781Y-117338134D01*
X198734368Y-117349170D01*
X198714962Y-117358349D01*
X198694750Y-117365581D01*
X198673926Y-117370797D01*
X198652691Y-117373947D01*
X198631250Y-117375000D01*
X198193750Y-117375000D01*
X198172309Y-117373947D01*
X198151074Y-117370797D01*
X198130250Y-117365581D01*
X198110038Y-117358349D01*
X198090632Y-117349170D01*
X198072219Y-117338134D01*
X198054976Y-117325346D01*
X198039070Y-117310930D01*
X198024654Y-117295024D01*
X198011866Y-117277781D01*
X198000830Y-117259368D01*
X197991651Y-117239962D01*
X197984419Y-117219750D01*
X197979203Y-117198926D01*
X197976053Y-117177691D01*
X197975000Y-117156250D01*
X197975000Y-116643750D01*
X197976053Y-116622309D01*
X197979203Y-116601074D01*
X197984419Y-116580250D01*
X197991651Y-116560038D01*
X198000830Y-116540632D01*
X198011866Y-116522219D01*
X198024654Y-116504976D01*
X198039070Y-116489070D01*
X198054976Y-116474654D01*
X198072219Y-116461866D01*
X198090632Y-116450830D01*
X198110038Y-116441651D01*
X198130250Y-116434419D01*
X198151074Y-116429203D01*
X198172309Y-116426053D01*
X198193750Y-116425000D01*
X198631250Y-116425000D01*
X198652691Y-116426053D01*
X198652691Y-116426053D01*
G37*
D12*
X198412500Y-116900000D03*
D11*
G36*
X201752691Y-102526053D02*
G01*
X201773926Y-102529203D01*
X201794750Y-102534419D01*
X201814962Y-102541651D01*
X201834368Y-102550830D01*
X201852781Y-102561866D01*
X201870024Y-102574654D01*
X201885930Y-102589070D01*
X201900346Y-102604976D01*
X201913134Y-102622219D01*
X201924170Y-102640632D01*
X201933349Y-102660038D01*
X201940581Y-102680250D01*
X201945797Y-102701074D01*
X201948947Y-102722309D01*
X201950000Y-102743750D01*
X201950000Y-103256250D01*
X201948947Y-103277691D01*
X201945797Y-103298926D01*
X201940581Y-103319750D01*
X201933349Y-103339962D01*
X201924170Y-103359368D01*
X201913134Y-103377781D01*
X201900346Y-103395024D01*
X201885930Y-103410930D01*
X201870024Y-103425346D01*
X201852781Y-103438134D01*
X201834368Y-103449170D01*
X201814962Y-103458349D01*
X201794750Y-103465581D01*
X201773926Y-103470797D01*
X201752691Y-103473947D01*
X201731250Y-103475000D01*
X201293750Y-103475000D01*
X201272309Y-103473947D01*
X201251074Y-103470797D01*
X201230250Y-103465581D01*
X201210038Y-103458349D01*
X201190632Y-103449170D01*
X201172219Y-103438134D01*
X201154976Y-103425346D01*
X201139070Y-103410930D01*
X201124654Y-103395024D01*
X201111866Y-103377781D01*
X201100830Y-103359368D01*
X201091651Y-103339962D01*
X201084419Y-103319750D01*
X201079203Y-103298926D01*
X201076053Y-103277691D01*
X201075000Y-103256250D01*
X201075000Y-102743750D01*
X201076053Y-102722309D01*
X201079203Y-102701074D01*
X201084419Y-102680250D01*
X201091651Y-102660038D01*
X201100830Y-102640632D01*
X201111866Y-102622219D01*
X201124654Y-102604976D01*
X201139070Y-102589070D01*
X201154976Y-102574654D01*
X201172219Y-102561866D01*
X201190632Y-102550830D01*
X201210038Y-102541651D01*
X201230250Y-102534419D01*
X201251074Y-102529203D01*
X201272309Y-102526053D01*
X201293750Y-102525000D01*
X201731250Y-102525000D01*
X201752691Y-102526053D01*
X201752691Y-102526053D01*
G37*
D12*
X201512500Y-103000000D03*
D11*
G36*
X203327691Y-102526053D02*
G01*
X203348926Y-102529203D01*
X203369750Y-102534419D01*
X203389962Y-102541651D01*
X203409368Y-102550830D01*
X203427781Y-102561866D01*
X203445024Y-102574654D01*
X203460930Y-102589070D01*
X203475346Y-102604976D01*
X203488134Y-102622219D01*
X203499170Y-102640632D01*
X203508349Y-102660038D01*
X203515581Y-102680250D01*
X203520797Y-102701074D01*
X203523947Y-102722309D01*
X203525000Y-102743750D01*
X203525000Y-103256250D01*
X203523947Y-103277691D01*
X203520797Y-103298926D01*
X203515581Y-103319750D01*
X203508349Y-103339962D01*
X203499170Y-103359368D01*
X203488134Y-103377781D01*
X203475346Y-103395024D01*
X203460930Y-103410930D01*
X203445024Y-103425346D01*
X203427781Y-103438134D01*
X203409368Y-103449170D01*
X203389962Y-103458349D01*
X203369750Y-103465581D01*
X203348926Y-103470797D01*
X203327691Y-103473947D01*
X203306250Y-103475000D01*
X202868750Y-103475000D01*
X202847309Y-103473947D01*
X202826074Y-103470797D01*
X202805250Y-103465581D01*
X202785038Y-103458349D01*
X202765632Y-103449170D01*
X202747219Y-103438134D01*
X202729976Y-103425346D01*
X202714070Y-103410930D01*
X202699654Y-103395024D01*
X202686866Y-103377781D01*
X202675830Y-103359368D01*
X202666651Y-103339962D01*
X202659419Y-103319750D01*
X202654203Y-103298926D01*
X202651053Y-103277691D01*
X202650000Y-103256250D01*
X202650000Y-102743750D01*
X202651053Y-102722309D01*
X202654203Y-102701074D01*
X202659419Y-102680250D01*
X202666651Y-102660038D01*
X202675830Y-102640632D01*
X202686866Y-102622219D01*
X202699654Y-102604976D01*
X202714070Y-102589070D01*
X202729976Y-102574654D01*
X202747219Y-102561866D01*
X202765632Y-102550830D01*
X202785038Y-102541651D01*
X202805250Y-102534419D01*
X202826074Y-102529203D01*
X202847309Y-102526053D01*
X202868750Y-102525000D01*
X203306250Y-102525000D01*
X203327691Y-102526053D01*
X203327691Y-102526053D01*
G37*
D12*
X203087500Y-103000000D03*
D11*
G36*
X184652691Y-100626053D02*
G01*
X184673926Y-100629203D01*
X184694750Y-100634419D01*
X184714962Y-100641651D01*
X184734368Y-100650830D01*
X184752781Y-100661866D01*
X184770024Y-100674654D01*
X184785930Y-100689070D01*
X184800346Y-100704976D01*
X184813134Y-100722219D01*
X184824170Y-100740632D01*
X184833349Y-100760038D01*
X184840581Y-100780250D01*
X184845797Y-100801074D01*
X184848947Y-100822309D01*
X184850000Y-100843750D01*
X184850000Y-101356250D01*
X184848947Y-101377691D01*
X184845797Y-101398926D01*
X184840581Y-101419750D01*
X184833349Y-101439962D01*
X184824170Y-101459368D01*
X184813134Y-101477781D01*
X184800346Y-101495024D01*
X184785930Y-101510930D01*
X184770024Y-101525346D01*
X184752781Y-101538134D01*
X184734368Y-101549170D01*
X184714962Y-101558349D01*
X184694750Y-101565581D01*
X184673926Y-101570797D01*
X184652691Y-101573947D01*
X184631250Y-101575000D01*
X184193750Y-101575000D01*
X184172309Y-101573947D01*
X184151074Y-101570797D01*
X184130250Y-101565581D01*
X184110038Y-101558349D01*
X184090632Y-101549170D01*
X184072219Y-101538134D01*
X184054976Y-101525346D01*
X184039070Y-101510930D01*
X184024654Y-101495024D01*
X184011866Y-101477781D01*
X184000830Y-101459368D01*
X183991651Y-101439962D01*
X183984419Y-101419750D01*
X183979203Y-101398926D01*
X183976053Y-101377691D01*
X183975000Y-101356250D01*
X183975000Y-100843750D01*
X183976053Y-100822309D01*
X183979203Y-100801074D01*
X183984419Y-100780250D01*
X183991651Y-100760038D01*
X184000830Y-100740632D01*
X184011866Y-100722219D01*
X184024654Y-100704976D01*
X184039070Y-100689070D01*
X184054976Y-100674654D01*
X184072219Y-100661866D01*
X184090632Y-100650830D01*
X184110038Y-100641651D01*
X184130250Y-100634419D01*
X184151074Y-100629203D01*
X184172309Y-100626053D01*
X184193750Y-100625000D01*
X184631250Y-100625000D01*
X184652691Y-100626053D01*
X184652691Y-100626053D01*
G37*
D12*
X184412500Y-101100000D03*
D11*
G36*
X186227691Y-100626053D02*
G01*
X186248926Y-100629203D01*
X186269750Y-100634419D01*
X186289962Y-100641651D01*
X186309368Y-100650830D01*
X186327781Y-100661866D01*
X186345024Y-100674654D01*
X186360930Y-100689070D01*
X186375346Y-100704976D01*
X186388134Y-100722219D01*
X186399170Y-100740632D01*
X186408349Y-100760038D01*
X186415581Y-100780250D01*
X186420797Y-100801074D01*
X186423947Y-100822309D01*
X186425000Y-100843750D01*
X186425000Y-101356250D01*
X186423947Y-101377691D01*
X186420797Y-101398926D01*
X186415581Y-101419750D01*
X186408349Y-101439962D01*
X186399170Y-101459368D01*
X186388134Y-101477781D01*
X186375346Y-101495024D01*
X186360930Y-101510930D01*
X186345024Y-101525346D01*
X186327781Y-101538134D01*
X186309368Y-101549170D01*
X186289962Y-101558349D01*
X186269750Y-101565581D01*
X186248926Y-101570797D01*
X186227691Y-101573947D01*
X186206250Y-101575000D01*
X185768750Y-101575000D01*
X185747309Y-101573947D01*
X185726074Y-101570797D01*
X185705250Y-101565581D01*
X185685038Y-101558349D01*
X185665632Y-101549170D01*
X185647219Y-101538134D01*
X185629976Y-101525346D01*
X185614070Y-101510930D01*
X185599654Y-101495024D01*
X185586866Y-101477781D01*
X185575830Y-101459368D01*
X185566651Y-101439962D01*
X185559419Y-101419750D01*
X185554203Y-101398926D01*
X185551053Y-101377691D01*
X185550000Y-101356250D01*
X185550000Y-100843750D01*
X185551053Y-100822309D01*
X185554203Y-100801074D01*
X185559419Y-100780250D01*
X185566651Y-100760038D01*
X185575830Y-100740632D01*
X185586866Y-100722219D01*
X185599654Y-100704976D01*
X185614070Y-100689070D01*
X185629976Y-100674654D01*
X185647219Y-100661866D01*
X185665632Y-100650830D01*
X185685038Y-100641651D01*
X185705250Y-100634419D01*
X185726074Y-100629203D01*
X185747309Y-100626053D01*
X185768750Y-100625000D01*
X186206250Y-100625000D01*
X186227691Y-100626053D01*
X186227691Y-100626053D01*
G37*
D12*
X185987500Y-101100000D03*
D14*
X190050000Y-113000000D03*
X191000000Y-113000000D03*
X191950000Y-113000000D03*
X191950000Y-110800000D03*
X190050000Y-110800000D03*
D15*
X198050000Y-102800000D03*
X189550000Y-102800000D03*
D16*
X194025000Y-114950000D03*
X194675000Y-114950000D03*
X195325000Y-114950000D03*
X195975000Y-114950000D03*
X196625000Y-114950000D03*
X197275000Y-114950000D03*
X197925000Y-114950000D03*
X198575000Y-114950000D03*
X198575000Y-109050000D03*
X197925000Y-109050000D03*
X197275000Y-109050000D03*
X196625000Y-109050000D03*
X195975000Y-109050000D03*
X195325000Y-109050000D03*
X194675000Y-109050000D03*
X194025000Y-109050000D03*
M02*
