M48
; DRILL file {KiCad (5.1.2)-1} date 2019/10/13 0:02:15
; FORMAT={-:-/ absolute / metric / decimal}
; #@! TF.CreationDate,2019-10-13T00:02:15+09:00
; #@! TF.GenerationSoftware,Kicad,Pcbnew,(5.1.2)-1
FMAT,2
METRIC
T1C0.400
T2C0.500
T3C0.762
T4C3.200
%
G90
G05
T1
X189.0Y-117.0
X191.062Y-109.944
X192.2Y-105.1
X193.054Y-114.392
X193.18Y-115.882
X194.922Y-102.882
X195.065Y-117.312
X195.6Y-111.2
X195.696Y-106.709
X196.274Y-117.961
X196.717Y-116.63
X197.6Y-122.0
X199.0Y-111.0
X199.445Y-115.687
X200.16Y-120.198
X201.0Y-122.371
X203.09Y-106.405
T2
X208.2Y-104.6
X205.1Y-116.9
X208.2Y-101.4
T3
X185.2Y-108.0
X185.2Y-110.0
X185.2Y-112.0
X185.2Y-114.0
X202.2Y-108.0
X202.2Y-110.0
X202.2Y-112.0
X202.2Y-114.0
T4
X180.0Y-120.0
X180.0Y-102.0
T0
M30
